<?xml version="1.0" encoding="utf-8"?>
<!-- Generator: Adobe Illustrator 18.1.1, SVG Export Plug-In . SVG Version: 6.00 Build 0)  -->
<svg version="1.1" id="Camada_1" xmlns="http://www.w3.org/2000/svg" xmlns:xlink="http://www.w3.org/1999/xlink" x="0px" y="0px"
	 viewBox="0 0 48.5 73" enable-background="new 0 0 48.5 73" xml:space="preserve">
<g>
	<polygon fill="#332A25" points="0,9.6 28.3,0 48.5,12.3 48.5,63.5 20.2,73 0,60.7 	"/>
	<polygon fill="#B7B4B6" points="3.3,11.9 3.3,21.7 20.2,32.1 20.2,22.3 	"/>
	<polygon fill="#EDECEE" points="27.3,19.9 20.2,22.3 20.2,32.1 27.3,29.6 27.3,22.9 	"/>
	<polygon fill="#EDECEE" points="35.7,17 29.8,19.1 29.8,22.9 29.8,28.8 35.1,27 35.7,26.8 35.7,22.9 	"/>
	<polygon fill="#EDECEE" points="45.2,13.8 38.1,16.2 38.1,16.2 38.1,22.9 38.1,26 45.2,23.6 	"/>
	<polygon fill="#332A25" points="35.1,27 35.1,27 29.8,28.8 28.6,29.2 20.2,32.1 20.2,35.3 35.5,30.2 45.2,26.9 45.2,23.6 	"/>
	<polygon fill="#332A25" points="3.3,21.7 3.3,25 20.2,35.3 20.2,32.1 	"/>
	<polygon fill="#FFFFFF" points="16,13 18.4,12.2 29.8,19 35.7,17 24.4,10.2 26.8,9.4 38.1,16.2 45.2,13.8 28.3,3.5 3.3,11.9 
		20.2,22.3 27.3,19.9 	"/>
	
		<rect x="27.3" y="19.5" transform="matrix(0.9476 -0.3194 0.3194 0.9476 -4.7197 10.1368)" fill="#332A25" width="2.5" height="0"/>
	<polygon fill="#332A25" points="18.4,12.2 16,13 27.3,19.9 29.8,19 	"/>
	<polygon fill="#332A25" points="29.8,22.9 29.8,19.1 27.3,19.9 27.3,22.9 27.3,29.6 28.6,29.2 29.8,28.8 	"/>
	<path fill="#332A25" d="M28.6,29.2l1.2-0.4L28.6,29.2z"/>
	<polygon fill="#332A25" points="35.7,17 35.7,17 38.1,16.2 38.1,16.2 35.7,17 	"/>
	<polygon fill="#332A25" points="24.4,10.2 35.7,17 38.1,16.2 26.8,9.4 	"/>
	<polygon fill="#332A25" points="35.7,22.9 35.7,26.8 38.1,26 38.1,22.9 38.1,16.2 38.1,16.2 35.7,17 	"/>
	<polygon fill="#FFFFFF" points="35.5,30.2 35.5,30.2 20.2,35.3 20.2,45.3 27.4,42.9 35.7,40.1 35.7,43.4 35.5,43.4 20.2,48.6 
		20.2,69.6 45.2,61.2 45.2,52.4 45,52.5 29.8,57.6 29.8,54.3 36.9,51.9 45.2,49.1 45.2,26.9 	"/>
	<polygon fill="#332A25" points="35.5,43.4 35.7,43.4 35.7,40.1 27.4,42.9 20.2,45.3 20.2,48.6 	"/>
	<polygon fill="#332A25" points="29.8,54.3 29.8,57.6 45,52.5 45.2,52.4 45.2,49.1 36.9,51.9 	"/>
	<polygon fill="#B7B4B6" points="3.3,59.3 20.2,69.6 20.2,48.6 3.3,38.2 	"/>
	<polygon fill="#B7B4B6" points="3.3,25 3.3,34.8 3.3,35 20.2,45.3 20.2,45.1 20.2,44.2 20.2,35.3 	"/>
	<polygon fill="#332A25" points="3.3,38.2 20.2,48.6 20.2,45.3 3.3,35 	"/>
</g>
</svg>
