<?xml version="1.0" encoding="utf-8"?>
<!-- Generator: Adobe Illustrator 18.1.1, SVG Export Plug-In . SVG Version: 6.00 Build 0)  -->
<svg version="1.1" id="Camada_1" xmlns="http://www.w3.org/2000/svg" xmlns:xlink="http://www.w3.org/1999/xlink" x="0px" y="0px"
	 viewBox="0 0 35 40" enable-background="new 0 0 35 40" xml:space="preserve">
<g>
	<path fill-rule="evenodd" clip-rule="evenodd" fill="#5B5B5B" d="M17.6,8c4.5,0,8.9,0,13.4,0c0.2,0,0.2,0,0.2,0.2
		c0,8.6,0,17.3,0,25.9c0,0.2,0,0.3,0.1,0.4c0.4,0.5,0.8,1,1.2,1.5c0.1,0.1,0.2,0.2,0.3,0.2c0.6,0,1.3,0,1.9,0c0.1,0,0.2,0,0.2,0.2
		c0,0.4,0,0.9,0,1.3c0,0.1,0,0.2-0.1,0.2c-0.9,0-1.9,0-2.8,0c-0.1,0-0.2,0-0.2-0.1c-0.6-0.8-1.3-1.6-1.9-2.4
		c-0.1-0.1-0.1-0.1-0.3-0.1c-8.1,0-16.2,0-24.3,0c-0.1,0-0.2,0-0.3,0.1c-0.6,0.8-1.3,1.6-1.9,2.4c-0.1,0.1-0.1,0.1-0.3,0.1
		c-0.9,0-1.8,0-2.8,0c-0.1,0-0.2,0-0.2-0.2c0-0.4,0-0.9,0-1.3c0-0.1,0.1-0.2,0.2-0.2c0.7,0,1.3,0,2,0c0.1,0,0.2,0,0.2-0.1
		c0.5-0.6,1-1.3,1.5-1.9C4,34.1,4,34,4,33.9C4,26,4,18.2,4,10.3c0-0.7,0-1.4,0-2.1C4,8,4,8,4.2,8C8.7,8,13.1,8,17.6,8z M14.3,15.3
		c0,1.7,0,3.3,0,5c0,0.2,0,0.2,0.2,0.2c2.1,0,4.3,0,6.4,0c0.2,0,0.2,0,0.2-0.2c0-3.3,0-6.7,0-10c0-0.2,0-0.2-0.2-0.2
		c-2.1,0-4.3,0-6.4,0c-0.2,0-0.2,0-0.2,0.2C14.3,12,14.3,13.7,14.3,15.3z M5.8,15.3c0,1.7,0,3.3,0,5c0,0.2,0,0.2,0.2,0.2
		c2.1,0,4.2,0,6.3,0c0.2,0,0.2,0,0.2-0.2c0-3.3,0-6.7,0-10c0-0.2,0-0.2-0.2-0.2c-2.1,0-4.2,0-6.3,0c-0.2,0-0.2,0-0.2,0.2
		C5.8,12,5.8,13.7,5.8,15.3z M22.9,15.4c0,1.7,0,3.3,0,5c0,0.2,0,0.2,0.2,0.2c2,0,4.1,0,6.1,0c0.2,0,0.2,0,0.2-0.2c0-3.3,0-6.7,0-10
		c0-0.2-0.1-0.2-0.2-0.2c-2,0-4.1,0-6.1,0c-0.2,0-0.2,0-0.2,0.2C22.9,12,22.9,13.7,22.9,15.4z M17.7,31.3c1.8,0,3.5-1.4,3.5-3.5
		c0-2-1.6-3.5-3.5-3.5c-1.9,0-3.5,1.5-3.5,3.5C14.2,29.9,15.9,31.4,17.7,31.3z"/>
	<path fill-rule="evenodd" clip-rule="evenodd" fill="#5B5B5B" d="M10.2,3.5c0-0.5,0-0.9,0-1.4c0-0.1,0.1-0.2,0.2-0.2
		c0.9-0.5,1.8-0.8,2.7-1.1c1.2-0.4,2.5-0.6,3.8-0.7c2.9-0.2,5.6,0.4,8.1,1.9C25,2,25,2,25,2.2c0,0.4,0,0.8,0,1.2
		c0,0.1,0,0.2,0.2,0.2c0.8,0,1.5,0,2.3,0c0.1,0,0.2,0,0.2,0.2c0,1.1,0,2.2,0,3.3c0,0.1,0,0.2-0.2,0.2c-6.5,0-13.1,0-19.6,0
		C7.8,7.2,7.8,7.1,7.8,7c0-1.1,0-2.2,0-3.3c0-0.1,0-0.2,0.2-0.2c0.7,0,1.3,0,2,0C10,3.5,10.1,3.5,10.2,3.5"/>
	<path fill-rule="evenodd" clip-rule="evenodd" fill="#5B5B5B" d="M17.7,40c-3.6,0-7.2,0-10.9,0c-0.2,0-0.2,0-0.2-0.2
		c0.3-1.2,0.5-2.4,0.8-3.6C7.5,36,7.5,36,7.6,36c0,0,0.1,0,0.1,0c6.7,0,13.4,0,20,0c0.2,0,0.2,0,0.3,0.2c0.2,1.2,0.5,2.3,0.8,3.5
		c0,0,0,0.1,0,0.1c0.1,0.2,0,0.2-0.1,0.2c-3.2,0-6.4,0-9.5,0C18.7,40,18.2,40,17.7,40z"/>
	<path fill-rule="evenodd" clip-rule="evenodd" fill="#5B5B5B" d="M32.4,20.1c0-2.2,0-4.4,0-6.6c0-0.2,0-0.2,0.2-0.2
		c0.6,0,1.2,0,1.7,0c0.2,0,0.2,0.1,0.2,0.2c0,4,0,8,0,12c0,0.4,0,0.8,0,1.3c0,0.1,0,0.2-0.2,0.2c-0.6,0-1.2,0-1.8,0
		c-0.2,0-0.2,0-0.2-0.2C32.4,24.6,32.4,22.4,32.4,20.1z"/>
	<path fill-rule="evenodd" clip-rule="evenodd" fill="#5B5B5B" d="M2.6,20.2c0,2.2,0,4.4,0,6.6c0,0.2,0,0.2-0.2,0.2
		c-0.6,0-1.2,0-1.7,0c-0.1,0-0.2,0-0.2-0.2c0-4.4,0-8.9,0-13.3c0-0.1,0-0.2,0.2-0.2c0.6,0,1.2,0,1.8,0c0.2,0,0.2,0,0.2,0.2
		C2.6,15.8,2.6,18,2.6,20.2z"/>
	<path fill-rule="evenodd" clip-rule="evenodd" fill="#5B5B5B" d="M10.2,3.4c4.9,0,9.8,0,14.8,0c0,0.1-0.1,0-0.1,0
		c-4.8,0-9.6,0-14.5,0C10.3,3.5,10.2,3.5,10.2,3.4L10.2,3.4z"/>
</g>
</svg>
