<?xml version="1.0" encoding="utf-8"?>
<!-- Generator: Adobe Illustrator 18.1.1, SVG Export Plug-In . SVG Version: 6.00 Build 0)  -->
<svg version="1.1" id="Camada_1" xmlns="http://www.w3.org/2000/svg" xmlns:xlink="http://www.w3.org/1999/xlink" x="0px" y="0px"
	 viewBox="0 0 34 30" enable-background="new 0 0 34 30" xml:space="preserve">
<g>
	<path fill-rule="evenodd" clip-rule="evenodd" fill="#39B080" d="M8.3,22c0,0.8-0.1,1.5-0.1,2.3c-0.1,0.7-0.1,1.5-0.3,2.2
		c-0.1,0.8-0.3,1.6-0.7,2.3c-0.2,0.3-0.4,0.7-0.7,0.9C6.3,29.8,6.1,30,5.9,30c-0.4,0-0.6-0.1-0.8-0.4c-0.2-0.3-0.2-0.7-0.2-1.1
		c0-0.3,0.1-0.6,0.3-0.9c0.2-0.4,0.3-0.9,0.4-1.4c0.2-1.1,0.3-2.1,0.3-3.2C6,22.2,6,21.5,6,20.8c0-0.1,0-0.1-0.1-0.2
		c-0.3-0.3-0.4-0.6-0.4-1c0,0,0-0.1,0-0.1c0-2.1,0-4.3,0-6.4c0-0.1,0-0.2,0-0.3c0-0.4,0.3-0.7,0.6-1c0.4-0.3,0.9-0.4,1.3-0.4
		c0.6-0.1,1.2,0,1.8,0.2c0.4,0.2,0.8,0.4,1,0.8c0,0,0.1,0,0.1,0c0.8-0.1,1.7-0.2,2.5-0.4c0.1,0,0.1-0.1,0.2-0.1
		c0.6-0.4,1.3-0.6,2-0.5c0,0,0.1,0,0.1,0c0.6,0.2,0.8,0.7,0.4,1.2c-0.3,0.4-0.7,0.7-1.2,0.8c-1.2,0.3-2.4,0.6-3.7,0.7
		c-0.1,0-0.2,0-0.3,0c-0.1,0-0.1,0-0.1,0.1c0,0,0,0.1,0,0.1c0,1.6,0,3.2,0,4.8c0,0.6,0.1,1.2,0.2,1.7c0.3,1.1,0.5,2.3,0.7,3.4
		c0.1,0.8,0.1,1.6,0,2.4c0,0.5-0.2,0.9-0.6,1.2c-0.4,0.3-0.8,0.3-1.1,0c-0.3-0.3-0.4-0.6-0.5-1c0-0.2,0-0.5,0-0.7
		c0-0.1,0-0.1-0.1-0.1c0,0,0,0,0-0.1c0.1-0.7-0.1-1.4-0.2-2c-0.1-0.7-0.2-1.3-0.4-2C8.4,22.1,8.3,22.1,8.3,22z"/>
	<path fill-rule="evenodd" clip-rule="evenodd" fill="#39B080" d="M7.9,10.3c-1.3,0-2.3-1-2.4-2.4c0-1.3,1-2.4,2.3-2.4
		c1.3,0,2.4,1.1,2.4,2.4C10.3,9.3,9.2,10.3,7.9,10.3z"/>
	<path fill-rule="evenodd" clip-rule="evenodd" fill="#39B080" d="M29.7,9.1c0,0.3-0.2,0.5-0.5,0.5c-0.1,0-0.1,0-0.2,0.1
		c-0.3,0.9-0.6,1.7-1,2.6c0,0.1,0,0.1,0,0.2c0.2,0.2,0.2,0.5,0,0.7c-0.2,0.2-0.5,0.2-0.7,0c-0.2-0.2-0.3-0.5-0.1-0.7
		c0.1-0.1,0-0.1,0-0.2c-1.1-2-2.2-4.1-3.2-6.1c-0.1-0.1-0.1-0.1-0.2-0.2c-0.1,0-0.1,0-0.1,0.1c-0.4,0.6-0.8,1.3-1.2,1.9
		c-0.9,1.4-1.7,2.8-2.6,4.2c0,0.1-0.1,0.1,0,0.2c0.2,0.2,0.2,0.4,0.1,0.6c-0.1,0.2-0.3,0.3-0.5,0.3c-0.2,0-0.4-0.1-0.5-0.3
		c-0.1-0.2-0.1-0.4,0.1-0.5c0-0.1,0-0.1,0-0.2C18.4,9.7,17.7,7,17,4.3c0-0.1-0.2-0.2-0.3-0.1c-0.8,0.8-1.7,1.7-2.5,2.5
		c0,0,0,0.1,0,0.1c0.1,0.3-0.1,0.6-0.4,0.7c-0.3,0.1-0.6-0.1-0.7-0.3c-0.1-0.2,0-0.4,0.1-0.6c0.2-0.2,0.4-0.2,0.6-0.1
		c0.1,0,0.1,0,0.2,0c0.8-0.8,1.6-1.7,2.5-2.5c0,0,0.1-0.1,0-0.1c-0.1-0.3,0-0.5,0.3-0.7c0.2-0.1,0.5,0,0.7,0.2
		c0.2,0.2,0.1,0.5-0.1,0.7c-0.1,0.1-0.1,0.1-0.1,0.2c0.7,2.6,1.4,5.3,2.1,7.9c0,0,0,0.1,0.1,0.1c0.1,0,0.1,0,0.2-0.1
		c0.6-1,1.3-2.1,1.9-3.1C22.2,8.1,22.8,7,23.4,6c0.1-0.1,0.1-0.2,0.1-0.3c0-0.3,0.1-0.5,0.4-0.6c0.2-0.1,0.5,0,0.6,0.3
		c0.1,0.2,0.1,0.5-0.2,0.7c-0.1,0.1-0.1,0.1,0,0.2c1.1,2,2.1,4,3.2,6c0,0,0,0.1,0.1,0.1c0.1,0,0.1-0.1,0.1-0.1
		c0.3-0.9,0.7-1.8,1-2.7c0-0.1,0-0.1,0-0.2c-0.1-0.2-0.1-0.5,0-0.6c0.1-0.2,0.4-0.3,0.6-0.2C29.5,8.6,29.7,8.8,29.7,9.1z"/>
	<path fill-rule="evenodd" clip-rule="evenodd" fill="#39B080" d="M34,0.2C34,0,34,0,33.8,0C28.2,0,22.6,0,17,0C11.4,0,5.8,0,0.2,0
		C0,0,0,0,0,0.2c0,3.7,0,7.3,0,11c0,1.9,0,3.8,0,5.8c0,0.1,0,0.1,0.1,0.1c1.6,0,3.3,0,4.9,0c0.1,0,0.1,0,0.1-0.1c0-0.5,0-0.9,0-1.4
		c0-0.2,0-0.2-0.2-0.2c-1,0-2.1,0-3.1-0.1c-0.2,0-0.2,0-0.2-0.2c0-4.4,0-8.7,0-13.1c0-0.2,0-0.2,0.2-0.2c10,0,20.1,0,30.1,0
		c0.1,0,0.2,0,0.2,0.2c0,4.4,0,8.7,0,13.1c0,0.2,0,0.2-0.2,0.2c-7,0-14,0-21.1,0c0,0-0.1,0-0.1,0c-0.1,0-0.1,0-0.1,0.1
		c0,0.5,0,1,0,1.5c0,0.1,0,0.2,0.2,0.2c7.7,0,15.3,0,23,0c0.1,0,0.2,0,0.2-0.2C34,11.3,34,5.8,34,0.2z M33.3,16.6
		c-7.3,0-14.6,0-22,0c-0.2,0-0.2,0-0.2-0.2c0-0.2,0-0.4,0-0.5c0-0.1,0-0.1,0.1-0.1c0,0,0.1,0,0.1,0c7,0,14.1,0,21.1,0
		c0.2,0,0.2,0,0.2-0.2c0-4.7,0-9.4,0-14.1c0-0.2,0-0.2-0.2-0.2c-10.4,0-20.7,0-31.1,0c-0.1,0-0.2,0-0.2,0.2c0,4.7,0,9.4,0,14.1
		c0,0.1,0,0.2,0.2,0.2c0.9,0,1.8,0,2.7,0c0.2,0,0.4,0,0.6,0c0.1,0,0.1,0,0.1,0.1c0,0.2,0,0.3,0,0.5c0,0.1,0,0.1-0.1,0.1
		c-1,0-2,0-3,0c-0.3,0-0.6,0-0.9,0c-0.1,0-0.1,0-0.1-0.1c0-1.4,0-2.8,0-4.2c0-3.9,0-7.7,0-11.6c0-0.2,0-0.2,0.2-0.2
		c5.4,0,10.9,0,16.3,0c5.4,0,10.9,0,16.3,0c0.2,0,0.2,0,0.2,0.2c0,5.2,0,10.5,0,15.7C33.5,16.6,33.5,16.6,33.3,16.6z"/>
</g>
</svg>
