<?xml version="1.0" encoding="utf-8"?>
<!-- Generator: Adobe Illustrator 18.1.1, SVG Export Plug-In . SVG Version: 6.00 Build 0)  -->
<svg version="1.1" id="Camada_1" xmlns="http://www.w3.org/2000/svg" xmlns:xlink="http://www.w3.org/1999/xlink" x="0px" y="0px"
	 viewBox="0 0 33 40.5" enable-background="new 0 0 33 40.5" xml:space="preserve">
<g>
	<path fill-rule="evenodd" clip-rule="evenodd" fill="#5B5B5B" d="M0.2,34.5c0-0.4,0-0.7,0-1c0-0.4,0-0.8,0.1-1.2
		c0-0.3,0.1-0.6,0.1-0.8c0-0.3,0.1-0.5,0.1-0.8c0.1-0.4,0.1-0.8,0.2-1.2c0.2-0.9,0.4-1.9,0.8-2.8c0.3-0.7,0.6-1.3,1-1.9
		c0.3-0.4,0.6-0.8,1-1.2c0.8-0.8,1.8-1.3,2.8-1.6c0.6-0.2,1.2-0.4,1.8-0.7c0.5-0.2,1-0.4,1.5-0.7c0.3-0.1,0.5-0.3,0.8-0.4
		c0.1-0.1,0.2-0.2,0.3-0.4c0-0.1,0.1-0.1,0.1,0c0.4,0.3,0.8,0.5,1.1,0.8c0.1,0,0.1,0.1,0.1,0.2c0,0.8,0,1.7,0,2.5c0,0.7,0,1.4,0,2.1
		c0,0.3,0.1,0.6,0.2,0.8c0.4,1.1,0.8,2.2,1.2,3.3c0.4,1.1,0.8,2.2,1.2,3.3c0.6,1.5,1.1,3,1.7,4.5c0.1,0.2,0.2,0.3,0.3,0.5
		c0.1,0.1,0.2,0,0.2,0c0.1-0.1,0.3-0.3,0.4-0.4c0.3-0.6,0.6-1.3,0.8-2c0.2-0.6,0.5-1.2,0.7-1.8c0.2-0.6,0.5-1.3,0.7-1.9
		c0.2-0.7,0.5-1.3,0.7-2c0.2-0.6,0.4-1.2,0.6-1.7c0.2-0.7,0.5-1.4,0.7-2.1c0,0,0-0.1,0-0.1c0-1.1,0-2.1,0-3.2c0-0.6,0-1.1,0-1.7
		c0-0.1,0-0.1,0.1-0.1c0.3-0.2,0.7-0.4,1-0.7c0.1,0,0.1,0,0.2,0c0.4,0.2,0.9,0.5,1.3,0.7c0.4,0.2,0.8,0.4,1.1,0.6
		c0.5,0.2,1,0.5,1.5,0.6c0.3,0.1,0.6,0.2,1,0.3c0.6,0.2,1.2,0.5,1.7,0.8c0.5,0.4,0.9,0.8,1.3,1.2c0.4,0.6,0.8,1.2,1.1,1.8
		c0.3,0.6,0.5,1.1,0.7,1.7c0.2,0.6,0.3,1.2,0.4,1.8c0.1,0.3,0.1,0.7,0.2,1c0,0.5,0,1,0,1.5c0,0.8,0,1.6,0,2.3c0,0.8,0,1.7,0,2.5
		c0,0.2,0,0.4,0,0.7c0,0.1,0,0.1-0.1,0.1c-0.6,0.3-1.2,0.5-1.8,0.7c-0.6,0.2-1.2,0.4-1.9,0.5c-0.6,0.2-1.3,0.3-1.9,0.4
		c-0.6,0.1-1.3,0.2-1.9,0.3c-0.4,0.1-0.7,0.1-1.1,0.1c-0.5,0.1-0.9,0.1-1.4,0.1c-0.4,0-0.7,0-1.1,0.1c-0.4,0-0.8,0-1.1,0.1
		c-1.3,0.1-2.6,0-4,0c-0.5,0-0.9,0-1.4,0c-0.4,0-0.8,0-1.3-0.1c-0.2,0-0.4,0-0.6,0c-0.3,0-0.6,0-0.9-0.1c-0.2,0-0.5,0-0.7-0.1
		c-0.3,0-0.7-0.1-1-0.1c-0.2,0-0.4,0-0.7-0.1c-0.3,0-0.5-0.1-0.8-0.1c-0.3,0-0.5-0.1-0.8-0.1c-0.3,0-0.6-0.1-0.8-0.1
		c-0.3,0-0.7-0.1-1-0.1c-0.4-0.1-0.7-0.1-1.1-0.2c-0.5-0.1-0.9-0.1-1.4-0.2c-0.4-0.1-0.9-0.2-1.3-0.3c-0.6-0.1-1.3-0.3-1.9-0.4
		c-0.2,0-0.2-0.2-0.2-0.3c-0.2-0.4-0.3-0.8-0.4-1.2c-0.1-0.5-0.1-0.9-0.2-1.4C0.2,35.1,0.2,34.7,0.2,34.5z M32,31.7
		c-0.1-0.3,0-0.7-0.1-1c0-0.3-0.1-0.6-0.1-1c-0.1-0.6-0.2-1.2-0.4-1.7c-0.4-1.3-1-2.6-1.9-3.6C29,24,28.5,23.6,28,23.3
		c-0.4-0.2-0.7-0.3-1.1-0.4c-0.8-0.2-1.5-0.5-2.2-0.8c-0.7-0.3-1.4-0.7-2.1-1.1c-0.1,0-0.4,0.2-0.4,0.3c0,0,0,0,0,0
		c0,0.6,0,1.1,0,1.7c0,0.9,0,1.8,0,2.8c0,0.1,0,0.3,0,0.4c-0.3,0.9-0.6,1.8-0.9,2.7c-0.8,2.1-1.5,4.3-2.3,6.4
		c-0.3,0.8-0.6,1.7-1,2.5c-0.2,0.3-0.4,0.6-0.7,0.8c-0.2,0.1-0.4,0.2-0.7,0.1c-0.5-0.1-0.8-0.4-0.9-0.9c-0.4-1.2-0.9-2.3-1.3-3.5
		c-1-2.7-2-5.4-3-8.1c-0.1-0.2-0.1-0.3-0.1-0.5c0-1.4,0-2.8,0.1-4.2c0-0.2-0.1-0.4-0.3-0.5c-0.1,0-0.1,0-0.1,0
		c-0.3,0.2-0.5,0.3-0.8,0.4c-1.1,0.5-2.3,1-3.5,1.4C5.2,23.3,4.1,24,3.3,25c-0.4,0.5-0.7,1.1-1,1.7C2,27.5,1.8,28.2,1.6,29
		c-0.1,0.4-0.1,0.7-0.2,1.1c-0.1,0.5-0.2,1-0.2,1.5c-0.1,0.4-0.1,0.7-0.1,1.1C1,33,1,33.3,1,33.6c0,0.9,0,1.7,0.1,2.6
		c0.1,0.4,0.1,0.8,0.3,1.2c0,0.1,0.1,0.2,0.2,0.2c0.6,0.1,1.1,0.2,1.7,0.3c0.5,0.1,1.1,0.2,1.6,0.3c0.5,0.1,0.9,0.1,1.4,0.2
		c0.4,0.1,0.9,0.1,1.3,0.2c0.4,0.1,0.7,0.1,1.1,0.1C9.1,38.9,9.4,39,9.8,39c0.4,0,0.8,0.1,1.1,0.1c0.4,0,0.9,0.1,1.3,0.1
		c0.4,0,0.8,0.1,1.1,0.1c0.5,0,0.9,0.1,1.4,0.1c0.5,0,1,0,1.5,0.1c0.6,0,1.2,0,1.8,0c0.6,0,1.1,0,1.7,0c0.2,0,0.4,0,0.6,0
		c0.5,0,1-0.1,1.5-0.1c0.4,0,0.8-0.1,1.3-0.1c0.5,0,1-0.1,1.5-0.2c0.6-0.1,1.2-0.2,1.8-0.3c0.8-0.1,1.6-0.3,2.4-0.5
		c1-0.3,2.1-0.6,3.1-1c0.1,0,0.1-0.1,0.1-0.2c0-0.7,0-1.3,0-2C32,34,32,32.9,32,31.7z"/>
	<path fill-rule="evenodd" clip-rule="evenodd" fill="#5B5B5B" d="M15.5,0.3c1.4,0,2.8,0.3,4.1,0.7c0.8,0.3,1.5,0.6,2.2,0.9
		c1.6,0.9,2.6,2.3,3,4.1c0.2,1,0.1,2.1-0.1,3.1c-0.1,0.3-0.1,0.5-0.2,0.8c0,0.1,0,0.1,0,0.2c0.4,0.6,0.4,1.3,0.3,2
		c-0.1,0.7-0.4,1.4-0.7,2.1c-0.1,0.3-0.2,0.5-0.3,0.8c-0.6,1.8-1.4,3.4-2.7,4.7c-0.9,0.9-2,1.7-3.2,2c-1.3,0.3-2.6,0.1-3.8-0.5
		c-1.2-0.6-2.2-1.6-3-2.7c-0.9-1.2-1.5-2.5-1.8-3.9c-0.1-0.5-0.3-0.8-0.5-1.2c-0.3-0.7-0.5-1.4-0.5-2.2c0-0.4,0.1-0.8,0.4-1.2
		c0.1-0.1,0-0.1,0-0.2C8.4,9.1,8.3,8.2,8.3,7.3C8.4,5.7,9,4.2,10,2.9c0.5-0.7,1.1-1.3,1.9-1.8c0.8-0.4,1.6-0.7,2.5-0.8
		C14.8,0.3,15.1,0.2,15.5,0.3z M24.1,7.1c0-0.4,0-0.9-0.2-1.4c-0.2-0.9-0.7-1.7-1.4-2.3c-0.5-0.5-1.1-0.8-1.7-1.1
		c-1.5-0.7-3.1-1.2-4.8-1.3c-0.7,0-1.3,0-2,0.1c-1.2,0.3-2.2,0.9-3,1.8C9.6,4.6,9,6.3,9.2,8.4C9.2,9,9.3,9.5,9.6,10.1
		c0.1,0.1,0,0.2-0.1,0.2c-0.3,0.2-0.4,0.5-0.5,0.8c0,0.2,0,0.4,0,0.7c0.1,0.8,0.4,1.5,0.8,2.1C9.9,14,10,14.1,10,14.2
		c0,0.3,0.1,0.6,0.2,0.9c0.4,1.3,1.1,2.5,2,3.6c0.7,0.9,1.6,1.6,2.7,2c1.2,0.5,2.4,0.5,3.5,0c1-0.4,1.8-1.1,2.5-1.9
		c0.9-1.1,1.5-2.3,2-3.6c0.3-0.7,0.5-1.4,0.8-2.1c0.3-0.6,0.4-1.2,0.3-1.9c0-0.3-0.1-0.6-0.4-0.9c-0.1-0.1-0.1-0.2-0.1-0.3
		C23.9,9.1,24.1,8.2,24.1,7.1z"/>
	<path fill-rule="evenodd" clip-rule="evenodd" fill="#5B5B5B" d="M18.6,22.8c-0.3,0.5-0.7,1.1-1,1.6c-0.2,0.3-0.4,0.7-0.6,1
		c0,0.1,0,0.1,0,0.2c0.5,0.5,1,0.9,1.4,1.4c0.1,0.1,0.1,0.1,0.1,0.2c-0.4,2-0.7,4-1.1,6c-0.2,1.3-0.5,2.6-0.7,3.9c0,0,0,0.1,0,0.1
		c-0.1-0.1-0.1-0.2-0.1-0.3c-0.3-1.9-0.7-3.8-1-5.7c-0.2-1.3-0.5-2.7-0.7-4c0-0.1,0-0.1,0.1-0.2c0.5-0.5,1-0.9,1.4-1.4
		c0.1-0.1,0.1-0.1,0-0.2c-0.6-0.8-1.1-1.7-1.6-2.5c0,0,0-0.1,0-0.1c0.3,0.1,0.6,0.2,0.9,0.3c1,0.2,1.9,0.1,2.8-0.2
		C18.4,22.8,18.5,22.8,18.6,22.8L18.6,22.8z"/>
	<polygon fill-rule="evenodd" clip-rule="evenodd" fill="#5B5B5B" points="18.6,22.8 18.6,22.8 18.6,22.8 	"/>
</g>
</svg>
