<?xml version="1.0" encoding="utf-8"?>
<!-- Generator: Adobe Illustrator 18.1.1, SVG Export Plug-In . SVG Version: 6.00 Build 0)  -->
<svg version="1.1" id="Camada_1" xmlns="http://www.w3.org/2000/svg" xmlns:xlink="http://www.w3.org/1999/xlink" x="0px" y="0px"
	 viewBox="0 0 40 40" enable-background="new 0 0 40 40" xml:space="preserve">
<g>
	<path fill="#5B5B5B" d="M26.3,0.1C26.4,0.1,26.4,0.1,26.3,0.1c0.3,0.2,0.2,0.3,0.1,0.5c-0.3,0.3-0.2,0.8,0,1
		c0.3,0.3,0.7,0.3,1.1,0.1c0.1-0.1,0.1-0.2,0.2-0.2c0.1,0,0.2,0.2,0.3,0.2c0.1,0.1,0.1,0.1,0.2,0.2c0.1,0.1,0.1,0.1,0,0.2
		c-0.2,0.2-0.3,0.4-0.3,0.7c0.1,0.3,0.3,0.6,0.6,0.7c0.3,0.1,0.6,0,0.8-0.2c0,0,0-0.1,0.1-0.1c0.1,0,0.3,0.3,0.2,0.5
		c-0.4,0.9-0.5,1.7-0.3,2.7c0.5,3,3.5,4.9,6.4,4c0.2-0.1,0.4-0.2,0.6-0.2c0.2,0.1,0.3,0.3,0.4,0.4c0.1,0.1,0.2,0.2,0,0.3
		c-0.3,0.3-0.3,0.8,0,1.1c0.3,0.3,0.7,0.4,1,0.1c0.1-0.1,0.1-0.2,0.3-0.2c0.1,0,0.2,0.2,0.3,0.2c0,0,0.1,0.1,0.1,0.1
		c0.1,0.1,0.1,0.1,0,0.3c-0.3,0.3-0.3,0.7,0,1.1c0.3,0.3,0.7,0.4,1.1,0.2c0.3-0.2,0.3-0.2,0.5,0.1c0,0,0,0,0,0
		c0.1,0.1,0.1,0.2,0,0.3c-0.5,0.5-1.1,1.1-1.6,1.6c-2.2,2.2-4.4,4.3-6.6,6.5c-1.8,1.8-3.6,3.6-5.5,5.4c-2.1,2.1-4.2,4.2-6.3,6.3
		c-0.8,0.8-1.5,1.5-2.3,2.3c-1.3,1.3-2.6,2.6-3.9,3.9c0,0-0.1,0-0.1,0c-0.1-0.2-0.2-0.3-0.4-0.4c-0.1-0.1-0.1-0.1,0-0.3
		c0.2-0.3,0.2-0.7,0-0.9c-0.2-0.3-0.6-0.4-0.9-0.2c-0.3,0.2-0.5,0.1-0.6-0.2c0,0,0,0,0,0c-0.1-0.1-0.1-0.2,0-0.3
		c0.2-0.3,0.1-0.7-0.1-0.9c-0.2-0.3-0.6-0.4-0.9-0.2c-0.2,0.1-0.4,0.1-0.5-0.1c0,0-0.1-0.1-0.1-0.1c-0.1-0.1-0.1-0.2-0.1-0.3
		c0.2-0.7,0.2-1.4,0.1-2.1c-0.4-2.9-3.2-4.7-6-4.1c-0.3,0.1-0.5,0-0.7-0.2c-0.1-0.1-0.2-0.2-0.1-0.4c0.2-0.3,0.1-0.6-0.1-0.9
		c-0.2-0.3-0.5-0.4-0.8-0.2c-0.3,0.1-0.4,0-0.6-0.2c0,0,0-0.1-0.1-0.1c-0.1-0.1-0.1-0.2-0.1-0.3c0.1-0.3,0.1-0.6-0.1-0.8
		c-0.2-0.2-0.5-0.4-0.7-0.3c-0.3,0.1-0.6,0.1-0.8-0.2c0,0,0-0.1,0-0.1c0.1,0,0.1-0.1,0.2-0.1c1.1-1,2.1-2.1,3.2-3.1
		c2.6-2.5,5.2-5.1,7.7-7.6c1.8-1.8,3.6-3.6,5.4-5.3c2.1-2.1,4.2-4.2,6.3-6.3c0.8-0.8,1.6-1.6,2.4-2.4C25.6,0.8,25.9,0.4,26.3,0.1z
		 M14.5,24.1c0,0,0.1-0.1,0.1-0.1c3.1-3.1,6.3-6.3,9.4-9.4c0,0,0.1-0.1,0.1-0.2c-0.1,0-0.1,0-0.2,0c-2.3,0.8-4.6,1.6-6.9,2.4
		c-0.1,0-0.2,0.1-0.2,0.2c-0.3,0.8-0.5,1.6-0.8,2.4C15.5,21,15,22.5,14.5,24.1C14.5,24.1,14.4,24.1,14.5,24.1
		C14.5,24.2,14.5,24.1,14.5,24.1z M24.7,16C24.7,16,24.6,15.9,24.7,16c-0.2-0.2-0.4-0.4-0.5-0.5c-0.1-0.2-0.2-0.1-0.4,0
		c-2.7,2.7-5.4,5.4-8.1,8.1c-0.3,0.3-0.3,0.3,0,0.6c0.1,0.1,0.2,0.4,0.4,0.3c0.1,0,0.3-0.2,0.4-0.3c0.3-0.3,0.3-0.3,0.6,0
		c0.8,0.8,1.5,1.5,2.3,2.3c0.1,0.1,0.1,0.2,0,0.3c-0.1,0.1-0.2,0.2-0.3,0.3c-0.2,0.2-0.2,0.2,0,0.5c0.1,0.1,0.4,0.3,0.4,0.4
		c0,0.2-0.2,0.3-0.4,0.4c0,0,0,0,0,0c-0.1,0.1-0.1,0.1,0,0.2c0.2,0.2,0.4,0.3,0.5,0.5c0.1,0.1,0.2,0.1,0.3,0c3-3,6.1-6.1,9.1-9.1
		c0.1-0.1,0.4-0.2,0.3-0.4c0-0.1-0.2-0.3-0.3-0.4c-0.1-0.1-0.3-0.3-0.4-0.3c-0.2,0-0.3,0.2-0.4,0.3c0,0,0,0-0.1,0.1
		c-0.1,0.1-0.1,0.1-0.2,0c-0.1-0.1-0.3-0.3-0.4-0.4c-0.1-0.1-0.2-0.2-0.3,0c-0.2,0.2-0.4,0.4-0.6,0.6c-0.1,0.1-0.1,0.1-0.3,0
		c-0.8-0.8-1.6-1.7-2.5-2.5c-0.1-0.1-0.1-0.1,0-0.2c0.2-0.2,0.5-0.5,0.7-0.7C24.6,16.1,24.7,16,24.7,16z M29.5,13
		C29.5,12.9,29.5,12.9,29.5,13c-0.3,0.3-0.7,0.4-1.1,0.1c0.3,0.4,0.2,0.8-0.2,1.1c0.5-0.1,0.8,0.1,1,0.5c0-0.5,0.3-0.8,0.8-0.8
		c-0.2-0.1-0.3-0.2-0.4-0.3c-0.2-0.1-0.2-0.2-0.2-0.4C29.5,13.2,29.5,13.1,29.5,13z M24.1,11.7c0.5-0.1,0.8,0.1,1,0.5
		c0-0.5,0.3-0.7,0.8-0.8c-0.5-0.2-0.6-0.5-0.5-1c-0.3,0.4-0.7,0.4-1.1,0.2C24.5,11,24.5,11.4,24.1,11.7z M19,12.6
		c0.5-0.2,0.8,0,1,0.5c0-0.5,0.3-0.8,0.8-0.8c-0.5-0.2-0.6-0.5-0.5-1c-0.3,0.4-0.7,0.4-1.1,0.2c0.1,0.3,0.2,0.5,0.2,0.6
		C19.4,12.2,19.2,12.3,19,12.6z M10.4,24.2c0,0-0.2,1.1-0.2,1.2c0.5-0.1,0.8,0.1,1,0.5c0-0.5,0.3-0.7,0.8-0.8
		c-0.5-0.2-0.6-0.5-0.5-1C11.2,24.4,10.8,24.4,10.4,24.2z M11.6,21.2c0-0.5,0.3-0.8,0.8-0.8C12.3,20.3,12,20.2,12,20
		c-0.1-0.2,0-0.4,0-0.6c0,0,0,0,0-0.1c-0.3,0.4-0.7,0.4-1.1,0.2c0.1,0.3,0.2,0.5,0.2,0.6c0,0.2-0.2,0.3-0.4,0.6
		C11.1,20.6,11.4,20.8,11.6,21.2z M14.5,29c-0.2-0.2-0.4-0.3-0.5-0.4c-0.1-0.2,0-0.4-0.1-0.7c-0.3,0.4-0.7,0.4-1.1,0.2
		c0,0-0.2,1.1-0.2,1.2c0.5-0.2,0.8,0.1,1,0.5C13.7,29.2,14,29,14.5,29z"/>
	<path fill-rule="evenodd" clip-rule="evenodd" fill="#5B5B5B" d="M14.5,24.1C14.5,24.1,14.5,24.2,14.5,24.1
		C14.4,24.1,14.5,24.1,14.5,24.1C14.5,24.1,14.5,24.1,14.5,24.1z"/>
	<path fill-rule="evenodd" clip-rule="evenodd" fill="#5B5B5B" d="M25.4,20.7C25.4,20.8,25.3,20.8,25.4,20.7
		c-0.3,0.3-0.5,0.5-0.8,0.8c-0.1,0.1-0.1,0.1-0.2,0c-0.8-0.8-1.7-1.7-2.5-2.5c-0.1-0.1-0.1-0.1,0-0.2c0.2-0.2,0.5-0.5,0.7-0.7
		c0.1-0.1,0.1-0.1,0.2,0C23.6,18.9,24.5,19.8,25.4,20.7C25.3,20.7,25.4,20.7,25.4,20.7z"/>
	<path fill-rule="evenodd" clip-rule="evenodd" fill="#5B5B5B" d="M22.6,23.5C22.5,23.5,22.5,23.5,22.6,23.5
		c-0.9-0.9-1.8-1.8-2.6-2.6c-0.1-0.1-0.1-0.1,0-0.2c0.2-0.2,0.5-0.4,0.7-0.7c0.1-0.1,0.1-0.1,0.2,0c0.8,0.8,1.7,1.7,2.5,2.5
		c0.1,0.1,0.1,0.1,0,0.2C23.1,23,22.9,23.2,22.6,23.5C22.6,23.5,22.6,23.5,22.6,23.5z"/>
	<path fill-rule="evenodd" clip-rule="evenodd" fill="#5B5B5B" d="M21.5,24.6C21.4,24.7,21.4,24.7,21.5,24.6
		c-0.3,0.3-0.5,0.5-0.8,0.8c-0.1,0.1-0.1,0.1-0.2,0c-0.8-0.8-1.7-1.7-2.5-2.5c-0.1-0.1-0.1-0.1,0-0.2c0.2-0.2,0.5-0.5,0.7-0.7
		c0.1-0.1,0.1-0.1,0.2,0C19.7,22.9,20.5,23.7,21.5,24.6C21.4,24.6,21.4,24.6,21.5,24.6z"/>
</g>
</svg>
