<?xml version="1.0" encoding="utf-8"?>
<!-- Generator: Adobe Illustrator 18.1.1, SVG Export Plug-In . SVG Version: 6.00 Build 0)  -->
<svg version="1.1" id="Camada_1" xmlns="http://www.w3.org/2000/svg" xmlns:xlink="http://www.w3.org/1999/xlink" x="0px" y="0px"
	 viewBox="0 0 40 37.5" enable-background="new 0 0 40 37.5" xml:space="preserve">
<g>
	<path fill-rule="evenodd" clip-rule="evenodd" fill="#3A79BC" d="M35.5,13.1C35.5,13,35.5,13,35.5,13.1c0.5-0.4,1-0.6,1.6-0.6
		c0.9,0,1.4,0.5,1.4,1.3c0,0.7-0.1,1.3-0.3,1.9c-0.1,0.2,0,0.3,0.1,0.4c0.3,0.3,0.6,0.6,0.8,0.9c0.3,0.3,0.5,0.6,0.8,0.9
		c-0.4,0.1-0.7,0.1-1.1,0.2c-0.4,0.1-0.8,0.1-1.3,0.2c-0.1,0-0.2,0.1-0.2,0.2c-0.7,2.3-1.4,4.5-2.1,6.8c0,0.1,0,0.2,0.1,0.2
		c0.4,0.1,0.8,0.3,1.2,0.4c0.1,0,0.1,0.1,0.1,0.2c-0.3,0.9-0.7,1.8-1,2.7c0,0,0,0,0,0.1c-0.2-0.2-0.3-0.4-0.5-0.6
		c-0.2-0.3-0.5-0.6-0.7-1c-0.1-0.1-0.2-0.2-0.4-0.1c-0.7,0.3-1.4,0.5-2.1,0.8c0-0.3,0.2-0.5,0.2-0.8c0.2-0.7,0.5-1.5,0.7-2.2
		c0.1-0.2,0.1-0.2,0.3-0.1c0.3,0.1,0.6,0.2,0.9,0.3c0.2,0.1,0.2,0,0.3-0.1c0.5-1.6,1-3.2,1.5-4.9c0.2-0.5,0.3-1,0.5-1.6
		c-1.6,0.3-3.2,0.5-4.9,0.8c0.2-0.5,0.3-0.9,0.5-1.3c0.1-0.2,0.1-0.3-0.1-0.5c-3.5-3.7-7.7-6.2-12.6-7.4c-1.9-0.5-3.8-0.7-5.7-0.8
		c-2.4-0.1-4.7,0-7.1,0.4c-0.1,0-0.2,0.1-0.3,0.2c-0.1,0.3-0.2,0.5-0.3,0.8C4,8.8,2,6.9,0,5c0.6-0.1,1.3-0.3,1.9-0.4
		C5,4,8.1,3.3,11.2,2.7c3.2-0.7,6.5-1.4,9.7-2.1c0.7-0.2,1.4-0.3,2.2-0.5c0.1,0,0.2,0,0.4,0.1c2.3,2.4,4.6,4.9,6.9,7.3
		c1.6,1.7,3.1,3.3,4.7,5C35.1,12.7,35.3,12.9,35.5,13.1C35.5,13.1,35.5,13.1,35.5,13.1C35.6,13.1,35.5,13.1,35.5,13.1z M37.5,15.2
		c0-0.2,0.1-0.3,0.1-0.4c0.1-0.3,0.1-0.7,0.1-1c0-0.3-0.2-0.4-0.4-0.4c-0.4,0-0.7,0.2-1,0.3c-0.1,0-0.1,0.1,0,0.1
		c0.1,0.1,0.2,0.2,0.3,0.3C36.8,14.5,37.1,14.8,37.5,15.2z"/>
	<path fill-rule="evenodd" clip-rule="evenodd" fill="#3A79BC" d="M13.4,10.1c4.6,0,8.8,1.4,12.6,4c1.6,1.1,3.1,2.4,4.5,3.8
		c0.1,0.1,0.2,0.2,0.1,0.4c-0.5,1.5-1,3-1.6,4.5c0,0.1,0,0.2-0.2,0.1c-2.7-1.7-5.5-3.1-8.5-4.2c-2.8-1-5.6-1.8-8.5-2.2
		C10.1,16.2,8.4,16,6.6,16c-0.3,0-0.3,0-0.2-0.3c0.4-1.5,0.8-3,1.2-4.5c0-0.1,0.1-0.2,0.2-0.2c1.2-0.4,2.4-0.6,3.6-0.7
		C12.1,10.2,12.8,10.1,13.4,10.1z"/>
	<path fill-rule="evenodd" clip-rule="evenodd" fill="#3A79BC" d="M14.3,37.4c-0.3-0.3-0.7-0.6-1-0.9c-0.1-0.1-0.2-0.1-0.2,0
		c-0.3,0.3-0.5,0.5-0.8,0.8c-0.5-2.1-1-4.1-0.4-6.2c-0.3,0.2-0.5,0.5-0.7,0.8c-0.5,0.8-0.8,1.7-0.9,2.6C10,35.3,10,36.2,10,37.1
		c0,0,0,0.1,0,0.1c-0.3-0.2-0.7-0.4-1-0.6c-0.1-0.1-0.3-0.1-0.4-0.1c-0.4,0.1-0.8,0.2-1.2,0.3c-0.2,0.1-0.2,0-0.2-0.2
		c0.1-0.4,0.3-0.8,0.5-1.2c0.8-1.8,1.6-3.6,2.5-5.3c0.1-0.3,0.1-0.3-0.1-0.3c-2-0.4-4-0.7-6-0.9c-0.4-0.1-0.8-0.1-1.2-0.1
		c-0.1,0-0.2,0-0.3-0.1c-1.1-0.8-1.7-2-1.8-3.4c-0.1-1,0.1-1.9,0.3-2.8c0-0.2,0.1-0.3,0.3-0.3c0.4-0.2,0.7-0.1,1,0.2
		c0.2,0.2,0.4,0.4,0.6,0.5c0.1,0.1,0.1-0.1,0.2-0.1c0.3-0.7,0.7-1.4,1.2-2c0.4-0.6,0.9-1,1.6-1.4c0.4-0.2,0.7-0.1,1,0.3
		c0.1,0.2,0.3,0.3,0.5,0.5c0.4,0.3,1,0.5,1.5,0.7c2.9,1.2,5.9,2,8.9,2.6c1.4,0.3,2.7,0.6,4.1,0.8c0.1,0,0.1,0,0.2,0
		c0.6-0.5,1.3-0.6,2.1-0.5c2.1,0.2,3.7,1.2,4.5,3.2c0.9,2.1,0.5,3.9-1.3,5.6c-0.5,0.5-1,0.9-1.7,1.2c-1,0.4-1.9,0.2-2.7-0.4
		c-0.1-0.1-0.3-0.1-0.4-0.2c-2.7-1.1-5.5-1.9-8.4-2.6c-0.2,0-0.2,0-0.3,0.2c-0.4,1.3-0.4,2.7-0.1,4c0.2,0.9,0.4,1.7,0.7,2.5
		C14.3,37.3,14.3,37.3,14.3,37.4z M21.2,31.7C21.2,31.7,21.2,31.7,21.2,31.7C21.2,31.7,21.2,31.7,21.2,31.7
		c-0.5-0.8-0.8-1.7-1.1-2.6c-0.1-0.4-0.3-0.7-0.4-1c-0.1-0.2-0.2-0.2-0.3-0.2c-0.5,0-1.1-0.1-1.6-0.2c-1.4-0.3-2.7-0.7-4.1-0.9
		c-0.2,0-0.3,0-0.3,0.2c0,0.9,0.2,1.7,0.5,2.5c0.1,0.2,0.1,0.2,0.3,0.3c1.8,0.4,3.7,0.9,5.5,1.5C20,31.4,20.6,31.5,21.2,31.7z
		 M22.4,27.6c0.1-0.2,0.2-0.3,0.2-0.4c0.1-0.2,0.1-0.2,0.3-0.1c1,0.4,2,0.8,3,0.9c0.4,0.1,0.4,0.1,0.3,0.4c-0.2,0.8-0.5,1.5-1.1,2.1
		c-0.6,0.6-1.4,0.6-2-0.1c-0.9-1-1.6-2.2-1.7-3.6c-0.1-0.5-0.2-1.1-0.1-1.6c0-0.1-0.1-0.1-0.2-0.2c-2.1-0.4-4.1-0.8-6.1-1.3
		c-0.1,0-0.2,0-0.2,0c-0.6,0.4-1.1,1-1.3,1.7c-0.1,0.1,0,0.2,0.1,0.2c0.4,0.1,0.8,0.1,1.2,0.2c1.7,0.3,3.4,0.9,5.2,1
		c0.1,0,0.1,0.1,0.2,0.1c0.2,0.3,0.4,0.7,0.5,1c0.3,0.8,0.6,1.5,0.9,2.3c0.3,0.6,0.6,1.2,1.2,1.6c0.1,0.1,0.3,0.2,0.3,0.4
		c0.1,0.1,0.2,0.2,0.3,0.2c0.8,0.5,1.5,0.5,2.3,0c0.5-0.3,1-0.8,1.4-1.2c0.6-0.7,1-1.4,1-2.3c0-1.3-0.4-2.4-1.4-3.2
		c-1-0.9-2.1-1.4-3.4-1.2c-0.8,0.1-1.1,0.5-1.1,1.2C22.2,26.5,22.3,27,22.4,27.6z M1.8,23.2c-0.1,0.8-0.2,1.6-0.1,2.4
		c0.1,0.6,0.3,1.2,0.7,1.7c0.3,0.3,0.6,0.6,1.1,0.7c2.3,0.2,4.6,0.6,6.8,1c0.1,0,0.2,0,0.1-0.2c-0.2-0.8-0.3-1.6-0.2-2.4
		c0-0.1,0-0.2-0.1-0.2c-1.7-0.5-3.5-1-5.2-1.5c-0.9-0.3-1.8-0.5-2.5-1C2.2,23.5,2,23.3,1.8,23.2z M12.1,23c-1.5-0.4-3-1-4.4-1.6
		c-0.6-0.2-1.1-0.5-1.5-1c-0.1-0.1-0.1-0.1-0.2,0c-0.3,0.2-0.5,0.4-0.7,0.7c-0.5,0.6-0.9,1.4-1.3,2.1c-0.1,0.2-0.1,0.3,0.1,0.3
		c1,0.3,2,0.6,2.9,0.9c1.1,0.3,2.2,0.6,3.3,1c0.1,0,0.2,0,0.3-0.1c0.1-0.4,0.3-0.7,0.5-1.1C11.3,23.7,11.7,23.4,12.1,23z M22.6,28
		C22.6,28.1,22.6,28.1,22.6,28c0.3,0.8,0.7,1.4,1.3,1.9c0.2,0.2,0.4,0.2,0.6,0c0.3-0.3,0.5-0.6,0.7-1c0.1-0.1-0.1-0.1-0.1-0.1
		c-0.8-0.2-1.5-0.4-2.2-0.7C22.7,28,22.7,28,22.6,28z"/>
	<path fill-rule="evenodd" clip-rule="evenodd" fill="#3A79BC" d="M35.5,13.1C35.5,13.1,35.6,13.1,35.5,13.1
		C35.5,13.1,35.5,13.1,35.5,13.1C35.5,13.1,35.5,13.1,35.5,13.1z"/>
</g>
</svg>
