<?xml version="1.0" encoding="utf-8"?>
<!-- Generator: Adobe Illustrator 18.1.1, SVG Export Plug-In . SVG Version: 6.00 Build 0)  -->
<svg version="1.1" id="IntraVista" xmlns="http://www.w3.org/2000/svg" xmlns:xlink="http://www.w3.org/1999/xlink" x="0px" y="0px"
	 viewBox="0 0 614 288" enable-background="new 0 0 614 288" xml:space="preserve">
<g>
	<g>
		<polygon fill="none" points="505.4,60.8 505.3,60.8 506.2,61.1 		"/>
		<polygon fill="none" points="505.3,67.6 504,72.1 503.8,72 511.4,74.5 514.9,63.9 507.6,61.5 505.9,67.7 		"/>
		<polygon fill="#6DB52D" points="507.6,61.5 506.2,61.1 507.6,61.5 		"/>
		<path fill="none" d="M507.6,61.5L507.6,61.5l-1.4-0.5l-0.8-0.3l0,0l-0.6-0.2c0.4-4.8-0.3-9.7-2.2-14.3l8.1-5.4l-6.2-9.3l-8.1,5.4
			c-3.3-3.4-7.3-5.8-11.6-7.3l1.6-8.8l-10.9-2l-1.7,9.3c-3.6,0.2-7.1,1-10.5,2.5l-6-8.9l-8.3,5.6l6,8.9c-3.4,3.2-5.9,7.1-7.4,11.2
			l-9.6-1.9l-2.2,10.9l9.8,2l0.1-0.4c0,3.8,0.8,7.6,2.3,11.2l-8.1,5.4l6.2,9.3l8.1-5.4c2.5,2.6,5.4,4.6,8.5,6.1l-2.3,8.7l10.7,2.9
			l2.4-8.8c4.7,0.3,9.4-0.5,13.9-2.5l5.7,8.6l8.3-5.6l-5.7-8.6c2.5-2.4,4.5-5.1,6-8l2.2,0.6l7.6,2.5l3.5-10.6L507.6,61.5z"/>
		<polygon fill="none" points="559.3,29.5 561.9,31.9 563.6,30 558.6,25.4 556.4,27.8 558.6,30.1 		"/>
		<polygon fill="none" points="559.5,34.5 560.9,33 559.4,34.5 		"/>
		<path fill="#5C5C5C" d="M610.5,116.1c11.3-35-18.1-89.3-56.4-105.9c-38.4-16.6-89.9-9.4-115.9,7.3c-26,16.7-31.8,51.4-36.5,71.9
			c-4.7,20.5,6.3,32.6,6.3,32.6l-25,47.6c9,8.8,19.9,10.2,19.9,10.2c4.5,1.1-2.4,19.1-2.4,19.1c-0.8,5.5,9.8,17.6,9.8,17.6
			c-0.3,22.4-1.7,21.3-1.7,21.3c-4.1,29.4,60.4,6.6,60.4,6.6c11.4,31.7-17.9,42.9-17.9,42.9h158.5c0,0-16.4-9.6-35-44.1
			c-18.6-34.6-3.8-45.7,8.8-65.4C596,158,599.2,151.1,610.5,116.1z M523.4,36.2l3.9-5.6l4.5,3.1c1.9-2.1,4.3-3.7,7-4.7l-1-5.9
			l6.7-1.1l1,5.9c3,0.1,5.8,0.9,8.3,2.2l2.4-2.4l0,0l2.2-2.4l5,4.6l-1.7,1.9l0,0l-1,1.1l-1.4,1.6l0,0l-0.1,0.1
			c1.3,1.6,2.3,3.4,3,5.5l6.3-1l1,6.1l-6.3,1c0,3-0.8,5.9-2.1,8.4l4.4,3.6l-4.3,5.3l-4.3-3.5c-1.6,1.4-3.5,2.5-5.5,3.2l1,5.9
			l-6.7,1.1l-1-5.9c-2.4-0.1-4.7-0.6-6.9-1.5l0.2,0.1l-3.6,5l-5.6-4l3.5-4.9c-2-1.9-3.5-4.3-4.4-7l-6.5,1.1l-1-6.1L527,46
			c0-2.3,0.4-4.5,1.2-6.5L523.4,36.2z M503.8,72l-2.2-0.6c-1.5,3-3.5,5.7-6,8l5.7,8.6l-8.3,5.6l-5.7-8.6c-4.4,2-9.2,2.8-13.9,2.5
			l-2.4,8.8l-10.7-2.9l2.3-8.7c-3.1-1.5-6-3.5-8.5-6.1l-8.1,5.4l-6.2-9.3l8.1-5.4c-1.5-3.6-2.3-7.4-2.3-11.2l-0.1,0.4l-9.8-2
			l2.2-10.9l9.6,1.9c1.5-4.2,4-8.1,7.4-11.2l-6-8.9l8.3-5.6l6,8.9c3.4-1.5,6.9-2.3,10.5-2.5l1.7-9.3l10.9,2l-1.6,8.8
			c4.3,1.5,8.3,3.9,11.6,7.3l8.1-5.4l6.2,9.3l-8.1,5.4c1.9,4.6,2.6,9.5,2.2,14.3l0.6,0.2l0,0l0.8,0.3l1.4,0.4l0,0.1l7.3,2.4
			l-3.5,10.6L503.8,72z M576.2,147l-9.9,5.1l-4.5-8.6c-3.8,1.1-7.6,1.5-11.4,1.1l0.4,0.1l-3,9.6l-10.6-3.4l2.9-9.3
			c-4-2-7.6-4.9-10.4-8.6l-9.5,5l-4.6-8.9l9.5-5c-1.1-3.5-1.6-7.1-1.4-10.7l-9-2.7l3.2-10.7l8.6,2.5c1.9-4.1,4.8-7.9,8.5-10.8
			l-4.5-8.6l9.9-5.1l4.5,8.6c4.8-1.4,9.7-1.6,14.4-0.7l0.3-0.6l-0.1,0l4.1-9.1l10.1,4.6l-4.1,9.1l-0.1,0l-0.1,0.2
			c2.8,1.8,5.4,4.2,7.5,6.9l9.2-4.8l4.6,8.9l-9.2,4.8c1.5,4.6,1.8,9.4,1,14l8.5,3.3l-4,10.4l-8.4-3.3c-1.8,3-4.1,5.6-6.9,7.8
			L576.2,147z"/>
		<polygon fill="#6DB52D" points="561.9,31.9 561.9,31.9 560.9,33 		"/>
		<circle fill="#5C5C5C" cx="475.3" cy="57.7" r="20.5"/>
		<circle fill="#5C5C5C" cx="553.3" cy="115.4" r="20.5"/>
		<circle fill="#5C5C5C" cx="545.6" cy="45.9" r="13"/>
	</g>
	<path fill="#5C5C5C" d="M213.4,198.9c0,0-7-18-2.4-19.1c0,0,11-1.4,19.9-10.2l-25-47.6c0,0,11-12,6.3-32.6
		c-4.7-20.5-10.5-55.2-36.5-71.9c-26-16.7-77.5-23.9-115.9-7.3C21.5,26.8-7.9,81,3.5,116.1c11.3,35,14.5,41.9,27.1,61.6
		c12.6,19.7,27.3,30.8,8.8,65.4c-18.6,34.6-35,44.1-35,44.1h158.5c0,0-29.3-11.2-17.9-42.9c0,0,64.5,22.7,60.4-6.6
		c0,0-1.4,1.2-1.7-21.3C203.6,216.4,214.2,204.3,213.4,198.9z M110.2,119.5c-9.6,0-18.6-1.5-26.8-4.1c-5.7,9.1-40.1,11.6-40.1,11.6
		c13.4-5.5,21.4-20.8,21.4-20.8c-11.5-8.1-18.6-19.3-18.6-31.7c0-24.8,28.7-45,64.1-45c35.4,0,64.1,20.1,64.1,45
		C174.3,99.3,145.6,119.5,110.2,119.5z"/>
</g>
</svg>
