<?xml version="1.0" encoding="utf-8"?>
<!-- Generator: Adobe Illustrator 18.1.1, SVG Export Plug-In . SVG Version: 6.00 Build 0)  -->
<svg version="1.1" id="Camada_1" xmlns="http://www.w3.org/2000/svg" xmlns:xlink="http://www.w3.org/1999/xlink" x="0px" y="0px"
	 viewBox="0 0 34 40" enable-background="new 0 0 34 40" xml:space="preserve">
<path fill-rule="evenodd" clip-rule="evenodd" fill="#39B080" d="M21.2,27c3.1,2.2,6.2,4.4,9.2,6.6c-0.1,0-0.2,0-0.3,0
	c-0.4,0-0.9,0-1.3,0.1c-0.1,0-0.1,0-0.2-0.1c-1.9-1.3-3.7-2.6-5.6-4c-0.9-0.6-1.8-1.3-2.7-1.9c0,0-0.1-0.1-0.1,0
	c-0.6,0.4-1.1,0.8-1.7,1.2c4.6,3.4,9.2,6.9,13.8,10.3c-0.1,0.1-0.3,0.1-0.4,0.1c-0.5,0.2-0.9,0.4-1.4,0.5c-0.1,0-0.1,0-0.2,0
	c-2.6-1.9-5.2-3.8-7.8-5.7c-1.8-1.4-3.7-2.7-5.5-4.1c-0.1,0-0.1-0.1-0.2,0c-2.9,2.1-5.8,4.2-8.7,6.3c-1.4,1-2.8,2-4.2,3.1
	c-0.1,0.1-0.2,0.1-0.3,0c-0.7-0.2-1.4-0.4-2-0.6c0,0,0,0-0.1,0c4.6-3.3,9.3-6.7,13.9-10c-0.2-0.2-0.4-0.3-0.7-0.5
	c-0.2-0.2-0.5-0.3-0.7-0.5C14,28,14,28,13.9,28c-1.8,1.3-3.6,2.6-5.4,4c-0.7,0.5-1.5,1.1-2.2,1.6c-0.1,0.1-0.1,0.1-0.2,0.1
	c-0.5-0.1-1-0.2-1.6-0.2c2.9-2.1,5.7-4.1,8.5-6.2c-0.3-0.2-0.6-0.4-0.9-0.6c-2.9-2.2-5.9-4.3-8.8-6.5C3.1,20,3,20,2.8,20
	c-0.4-0.1-0.8-0.1-1.2-0.2c0,0,0,0-0.1,0c0.1-0.2,0.2-0.3,0.4-0.4C2.2,18.9,2.6,18.5,3,18C3,18,3,17.9,3,17.9c0-1.8,0-3.6,0-5.4
	c0-0.1,0-0.1-0.1-0.1c-0.3,0.1-0.6,0.2-0.9,0.3c0,0-0.1,0-0.1,0c-0.6,0-1.2,0-1.8,0c-0.1,0-0.1,0-0.1-0.1c0-0.3,0-0.7,0-1
	c0-0.1,0-0.1,0.1-0.1c1.7-0.5,3.3-1.1,5-1.6c0.1,0,0.1-0.1,0.1-0.1c0-0.6,0-1.1,0-1.7C5.2,8,5.2,8,5.1,8C4.7,8,4.3,8,3.9,8
	C3.9,8,3.8,8,3.8,7.9c0-2.6,0-5.2,0-7.8C3.8,0,3.9,0,3.9,0C4,0,4,0,4,0c8.6,0,17.2,0,25.7,0c0,0,0.1,0,0.1,0c0,0,0.1,0,0.1,0.1
	c0,0,0,0,0,0.1c0,2.6,0,5.2,0,7.8c0,0.1,0,0.1-0.1,0.1c-0.3,0-0.6,0-0.9,0c-0.1,0-0.1,0-0.1,0.1c0,0.6,0,1.1,0,1.7
	c0,0.1,0,0.1,0.1,0.1c1.7,0.5,3.3,1,5,1.6c0.2,0.1,0.2,0,0.2,0.2c0,0.3,0,0.6,0,0.9c0,0.1,0,0.1-0.1,0.1c-0.7,0-1.3,0-2,0
	c-0.1,0-0.1,0-0.1,0c-0.3-0.1-0.5-0.2-0.8-0.4c-0.1,0-0.1,0-0.1,0.1c0,1.9,0,3.7,0,5.6c0,0.1,0,0.1,0.1,0.2c0.4,0.5,0.8,1,1.2,1.6
	c0.1,0.1,0.1,0.1,0,0.1c-0.5,0.2-1,0.3-1.6,0.4c-0.1,0-0.1,0-0.2,0.1C27.3,22.5,24.3,24.7,21.2,27C21.2,26.9,21.2,27,21.2,27z
	 M30,16.9C30,16.9,30,16.9,30,16.9c-0.2-0.3-0.2-0.6-0.2-0.9c0-1.4,0-2.7,0-4.1c0-0.1,0-0.2-0.1-0.2c-0.3-0.1-0.6-0.3-0.8-0.4
	c0,0-0.1,0-0.1,0c0,0,0,0.1,0,0.1c0,1.4,0,2.9,0,4.3c0,0.1,0,0.1,0.1,0.1c0,0,0.1,0,0.1,0c0.1,0,0.2,0,0.3,0.1
	c0,0.1,0.1,0.1,0.1,0.2C29.5,16.3,29.8,16.6,30,16.9C30,16.9,30,16.9,30,16.9C30,16.9,30,17,30,16.9C30,17,30,17,30,16.9
	C30,17,30,17,30,16.9C30,16.9,30,16.9,30,16.9z M17,8c-3.3,0-6.5,0-9.8,0c-0.1,0-0.1,0-0.1,0.1c0,2.6,0,5.1,0,7.7c0,0,0,0,0,0
	c0,0.1,0,0.1,0.1,0.1c0.2,0,0.4,0,0.6,0c0.9,0.1,1.9,0.1,2.8,0.1c0.9,0,1.8,0.1,2.7,0.1c0.8,0,1.6,0,2.4,0.1c0.9,0,1.8,0,2.7,0
	c1.2,0,2.3,0,3.5,0c0.6,0,1.3,0,1.9-0.1c1,0,2-0.1,3-0.2c0.1,0,0.1,0,0.1-0.1c0-2.6,0-5.2,0-7.7c0-0.1,0-0.1-0.1-0.1
	C23.6,8,20.3,8,17,8z M7.3,20.6C7.3,20.6,7.3,20.6,7.3,20.6C7.3,20.6,7.3,20.6,7.3,20.6c1,0.8,2,1.5,3,2.3c1.4,1.1,2.8,2.1,4.2,3.2
	c0.1,0,0.1,0,0.2,0c0.5-0.4,1-0.7,1.5-1.1c0.1,0,0.1-0.1,0-0.1c-1.8-1.3-3.6-2.6-5.5-3.9c0,0-0.1,0-0.1,0c-0.3,0-0.7-0.1-1-0.1
	c-0.5-0.1-1.1-0.1-1.6-0.2C7.8,20.6,7.6,20.6,7.3,20.6z M26.7,20.9C26.7,20.9,26.7,20.9,26.7,20.9c0,0-0.1,0-0.1,0
	c-1,0.1-2,0.2-3,0.3c-0.2,0-0.4,0-0.5,0.2c-0.1,0.1-0.1,0.1-0.2,0.2c-1.5,1.1-3.1,2.2-4.6,3.3c-0.1,0.1-0.1,0.1,0,0.1
	c0.4,0.3,0.9,0.6,1.3,0.9c0.1,0.1,0.1,0.1,0.2,0c2.1-1.5,4.2-3,6.3-4.5C26.3,21.2,26.5,21,26.7,20.9z M12.9,21
	C12.9,21.1,12.9,21.1,12.9,21c1.5,1.1,2.9,2.1,4.3,3.1c0.1,0,0.1,0,0.1,0c1.3-0.9,2.6-1.9,3.8-2.8c0,0,0.1,0,0.1-0.1
	C18.5,21.3,15.7,21.2,12.9,21z M18.8,26.6C18.7,26.6,18.7,26.6,18.8,26.6c-0.5-0.4-1-0.7-1.4-1c0,0-0.1,0-0.1,0
	c-0.5,0.4-1,0.8-1.6,1.1c-0.1,0-0.1,0.1,0,0.1c0.4,0.3,0.9,0.6,1.3,1c0.1,0,0.1,0,0.1,0c0.3-0.2,0.5-0.4,0.8-0.6
	C18.2,27,18.5,26.8,18.8,26.6z M4.5,16.2C4.5,16.1,4.6,16,4.7,16c0.1-0.2,0.2-0.2,0.4-0.2c0.1,0,0.1,0,0.1-0.1c0-0.9,0-1.9,0-2.8
	c0-0.4,0-0.8,0-1.2c0-0.1,0-0.1-0.1-0.1c-0.2,0.1-0.3,0.1-0.5,0.2c-0.1,0-0.1,0.1-0.1,0.2c0,1.4,0,2.8,0,4.2
	C4.5,16.1,4.5,16.1,4.5,16.2z"/>
</svg>
