<?xml version="1.0" encoding="utf-8"?>
<!-- Generator: Adobe Illustrator 18.1.1, SVG Export Plug-In . SVG Version: 6.00 Build 0)  -->
<svg version="1.1" id="Camada_1" xmlns="http://www.w3.org/2000/svg" xmlns:xlink="http://www.w3.org/1999/xlink" x="0px" y="0px"
	 viewBox="0 0 35 30" enable-background="new 0 0 35 30" xml:space="preserve">
<path fill-rule="evenodd" clip-rule="evenodd" fill="#E8423A" d="M19.9,0c5,0,10,0,15,0C35,0,35,0,35,0.2c0,9.9,0,19.8,0,29.6
	c0,0.2,0,0.2-0.2,0.2c-2.1,0-4.1,0-6.2,0c-1.6,0-3.2,0-4.7,0c-1.6,0-3.2,0-4.8,0c-1.6,0-3.2,0-4.7,0c-1.6,0-3.2,0-4.7,0
	c-1.6,0-3.2,0-4.8,0c-1.6,0-3.2,0-4.7,0C0,30,0,30,0,29.8c0-4.3,0-8.5,0-12.8c0-0.2,0-0.2,0.2-0.2c1.5,0,2.9,0,4.4,0
	c0.2,0,0.2,0,0.2-0.2c0-3.3,0-6.5,0-9.8c0-0.2,0-0.2,0.2-0.2c8.2,0,16.4,0,24.7,0c0.2,0,0.2,0,0.2-0.2c0-0.9,0-1.8,0-2.7
	c0-0.2,0-0.2-0.2-0.2c-8.2,0-16.4,0-24.6,0c0,0-0.1,0-0.1,0c-0.1,0-0.1,0-0.1-0.1c0-1.1,0-2.3,0-3.4c0,0,0,0,0-0.1
	c0,0,0-0.1,0.1-0.1c0,0,0.1,0,0.1,0C9.9,0,14.9,0,19.9,0z M23.6,27.8c0,0,0-0.1,0-0.1c0-0.6,0-1.3,0-1.9c0-0.2,0-0.2-0.1-0.2
	c-1.5,0-3,0-4.5,0c-0.1,0-0.1,0-0.1-0.1c0-0.6,0-1.2,0-1.8c0-0.2,0-0.1-0.1-0.1c-1.5,0-3,0-4.5,0c0,0-0.1,0-0.1,0
	c-0.1,0-0.1,0-0.1-0.1c0,0,0,0,0-0.1c0-0.7,0-1.3,0-2c0-0.2,0-0.1-0.1-0.1c-1.5,0-3,0-4.5,0c0,0-0.1,0-0.1,0c-0.1,0-0.1,0-0.1-0.1
	c0,0,0,0,0-0.1c0-0.6,0-1.2,0-1.8c0-0.2,0-0.1-0.1-0.1c-1.4,0-2.7,0-4.1,0c0,0-0.1,0-0.1,0c0,0-0.1,0-0.1-0.1c0,0,0-0.1,0-0.1
	c0-0.5,0-1.1,0-1.6c0-0.1,0-0.1-0.1-0.1c0,0,0,0,0,0c-1.4,0-2.7,0-4.1,0c-0.2,0-0.2,0-0.2,0.2c0,4,0,8.1,0,12.1c0,0.2,0,0.2,0.2,0.2
	c9.2,0,18.5,0,27.7,0c0,0,0.1,0,0.1,0c0.1,0,0.1,0,0.1-0.1c0,0,0,0,0-0.1c0-0.6,0-1.1,0-1.7c0-0.2,0-0.2-0.2-0.2c-1.5,0-3,0-4.5,0
	C23.6,27.7,23.6,27.7,23.6,27.8C23.6,27.8,23.6,27.8,23.6,27.8z M27.1,11.6c0.6,0,1.2,0,1.8,0c0,0,0.1,0,0.1,0c0,0,0.1,0,0.1-0.1
	c0,0,0,0,0-0.1c0-0.6,0-1.1,0-1.7c0-0.2,0-0.1-0.1-0.1c-1.2,0-2.4,0-3.6,0c0,0,0,0-0.1,0c0,0-0.1,0-0.1,0.1c0,0,0,0,0,0.1
	c0,0.6,0,1.1,0,1.7c0,0.1,0,0.1,0.1,0.1C25.9,11.6,26.5,11.6,27.1,11.6z M27.1,13.6c-0.6,0-1.2,0-1.8,0c0,0-0.1,0-0.1,0
	c-0.1,0-0.1,0-0.1,0.1c0,0,0,0,0,0.1c0,0.6,0,1.1,0,1.7c0,0.1,0,0.1,0.1,0.1c1.2,0,2.4,0,3.6,0c0,0,0,0,0.1,0c0.1,0,0.1,0,0.1-0.1
	c0,0,0,0,0-0.1c0-0.6,0-1.1,0-1.7c0,0,0,0,0-0.1c0-0.1,0-0.1-0.1-0.1c0,0-0.1,0-0.1,0C28.3,13.6,27.7,13.6,27.1,13.6z M27.1,19.5
	c0.6,0,1.2,0,1.8,0c0,0,0.1,0,0.1,0c0,0,0.1,0,0.1-0.1c0,0,0,0,0-0.1c0-0.6,0-1.1,0-1.7c0-0.2,0-0.1-0.1-0.1c-1.2,0-2.4,0-3.6,0
	c0,0,0,0-0.1,0c0,0-0.1,0-0.1,0.1c0,0,0,0,0,0.1c0,0.6,0,1.1,0,1.7c0,0.1,0,0.1,0.1,0.1C25.9,19.5,26.5,19.5,27.1,19.5z M27.1,23.5
	c0.6,0,1.2,0,1.8,0c0.1,0,0.1,0,0.1-0.1c0-0.6,0-1.2,0-1.8c0-0.1,0-0.1-0.1-0.1c0,0,0,0-0.1,0c-1.2,0-2.4,0-3.6,0c0,0,0,0-0.1,0
	c-0.1,0-0.1,0-0.1,0.1c0,0.6,0,1.2,0,1.8c0,0.1,0,0.1,0.1,0.1c0,0,0,0,0.1,0C25.9,23.5,26.5,23.5,27.1,23.5z"/>
</svg>
