<?xml version="1.0" encoding="utf-8"?>
<!-- Generator: Adobe Illustrator 18.1.1, SVG Export Plug-In . SVG Version: 6.00 Build 0)  -->
<svg version="1.1" id="Camada_1" xmlns="http://www.w3.org/2000/svg" xmlns:xlink="http://www.w3.org/1999/xlink" x="0px" y="0px"
	 viewBox="0 0 35 35" enable-background="new 0 0 35 35" xml:space="preserve">
<g>
	<path fill-rule="evenodd" clip-rule="evenodd" fill="#5B5B5B" d="M18.1,34.8c-3.3,0-6-0.6-8.5-1.9c-1.2-0.6-2.4-1.4-3.4-2.3
		c-0.1-0.1-0.2-0.1-0.3-0.1c-1,0.2-2,0.2-3-0.1c-1.3-0.4-2.1-1.3-2.5-2.5C0.1,27.2,0,26.4,0,25.7c0-1.5,0.2-3,0.6-4.5
		c0.1-0.3,0-0.5,0-0.8c0-0.6-0.1-1.2-0.1-1.8c-0.1-2.7,0.5-5.3,1.7-7.7c1.3-2.5,3.1-4.6,5.4-6.2c2-1.4,4.2-2.3,6.5-2.8
		c1-0.2,2.1-0.3,3.2-0.3c0.9,0,1.8,0,2.7,0.1c0,0,0.1,0,0.1-0.1c0,0,0.1,0,0.1-0.1c1.4-0.6,2.8-1,4.2-1.3c0.8-0.1,1.6-0.2,2.4-0.1
		c0.9,0.1,1.7,0.3,2.4,0.8c0.8,0.5,1.2,1.3,1.4,2.2c0.2,0.8,0.2,1.7,0,2.6c0,0.3-0.1,0.7-0.2,1c0,0.1,0,0.1,0.1,0.2
		c1.5,1.6,2.6,3.3,3.4,5.3c0.5,1.2,0.8,2.4,1,3.6C35,17,35,18.1,35,19.2c-0.1,2.2-0.7,4.3-1.7,6.3c-1.6,3.1-4,5.5-7,7.1
		c-1.7,0.9-3.5,1.5-5.4,1.9C19.8,34.7,18.8,34.8,18.1,34.8z M27,13.6c0-0.1,0-0.1,0.1-0.1c0.4-0.9,0.8-1.8,1.2-2.7
		c0.5-1.1,0.9-2.3,1.2-3.5c0-0.1,0-0.2-0.1-0.3c-0.3-0.2-0.6-0.5-0.8-0.7C26,4.1,23,2.9,19.7,2.5c-0.9-0.1-1.7-0.1-2.6-0.1
		c-0.9,0-1.7,0.1-2.6,0.3C12.2,3.1,10,4,8.1,5.3C5.7,7,3.9,9.1,2.6,11.8c-0.9,1.8-1.3,3.8-1.4,5.8c-0.1,1.3,0.1,2.6,0.4,3.9
		c0.7,3.2,2.3,5.8,4.7,8.1c0.1,0.1,0.1,0.1,0.2,0.1c0.8-0.2,1.5-0.4,2.2-0.7c1.9-0.7,3.6-1.6,5.3-2.6c0.1,0,0.1-0.1,0.2-0.1
		c0.1,0.2,0.3,0.4,0.4,0.7c-1.2,0.7-2.4,1.4-3.7,1.9c-1.2,0.6-2.5,1.1-3.9,1.5c0.1,0.1,0.1,0.1,0.1,0.1c0.9,0.7,1.9,1.3,2.9,1.8
		c2.2,1.1,4.6,1.7,7,1.8c0.8,0,1.6,0,2.4-0.1c1-0.1,2-0.3,3-0.6c2.8-0.8,5.2-2.3,7.2-4.4c1.1-1.2,2.1-2.5,2.8-4
		c1.1-2.3,1.7-4.7,1.6-7.3c0-0.9-0.1-1.8-0.3-2.6c-0.6-2.7-1.8-5-3.6-7.1c0,0-0.1-0.1-0.1-0.1c-0.3,1.1-0.7,2.1-1.1,3.1
		c-0.4,1-0.9,2-1.4,3c-0.1,0-0.1,0-0.1-0.1C27.4,13.8,27.2,13.7,27,13.6z M21.5,2C21.5,2,21.5,2,21.5,2c3.1,0.7,5.8,2.1,8.2,4.3
		c0-0.3,0.1-0.5,0.1-0.7c0.1-0.7,0.1-1.4,0-2.1c-0.2-1.2-0.9-1.9-2.1-2.2C26.9,1,26.1,1,25.2,1.1c-0.9,0.1-1.7,0.3-2.5,0.5
		C22.3,1.7,21.9,1.8,21.5,2z M1,22.8c0,0.1,0,0.1,0,0.2c-0.1,0.6-0.2,1.2-0.2,1.8c-0.1,1,0,1.9,0.3,2.9c0.3,0.9,0.9,1.6,1.8,2
		c0.7,0.3,1.4,0.3,2.1,0.2c0.1,0,0.2,0,0.3,0C3.3,27.8,1.9,25.5,1,22.8z"/>
	<path fill-rule="evenodd" clip-rule="evenodd" fill="#5B5B5B" d="M22.2,29.2c-0.8-1.8-1.6-3.5-2.3-5.3c-0.1,0.1-0.2,0.2-0.3,0.3
		c-0.2,0.2-0.4,0.4-0.6,0.6c0,0-0.1,0.1-0.1,0.2c0,1,0.1,2,0.1,3c0,0.2,0,0.3-0.2,0.4c-0.3,0.1-0.5,0.3-0.8,0.5
		c-0.4-0.8-0.8-1.7-1.2-2.5c-0.3,0-0.5,0.1-0.7,0.1c-0.1,0-0.2,0-0.3,0c-0.4-0.1-0.6-0.3-0.7-0.7c0-0.2,0-0.5,0.1-0.7
		c0-0.1,0-0.2-0.1-0.2c-0.7-0.3-1.4-0.7-2.1-1c0,0-0.1,0-0.1-0.1c0.3-0.3,0.6-0.6,0.9-0.8c0,0,0.1,0,0.2,0c0.8,0,1.7,0.1,2.5,0.1
		c0,0,0.1,0,0.1,0c0.3-0.3,0.7-0.6,1-1c0,0,0,0,0-0.1c-1.8-0.9-3.5-1.7-5.3-2.6c0.2-0.2,0.4-0.5,0.6-0.7c0.1-0.2,0.3-0.3,0.4-0.5
		c0.1-0.1,0.2-0.1,0.3-0.1c2.6,0,5.1,0,7.7,0c0.2,0,0.3,0,0.4-0.2c0.8-0.8,1.5-1.5,2.3-2.3c0.6-0.5,1.2-1,2-1.1
		c0.2-0.1,0.5-0.1,0.7-0.1c0.5,0,0.8,0.4,0.7,1c0,0.6-0.3,1.1-0.7,1.6c-0.3,0.5-0.7,0.9-1.1,1.3c-0.6,0.6-1.1,1.1-1.7,1.7
		c-0.1,0.1-0.1,0.2-0.1,0.2c-0.1,1.3-0.1,2.7-0.1,4c0,1-0.1,1.9-0.1,2.9c0,0.3,0,0.6,0,0.9c0,0,0,0.1-0.1,0.1
		C23.1,28.5,22.7,28.8,22.2,29.2C22.3,29.2,22.3,29.2,22.2,29.2z"/>
</g>
</svg>
