<?xml version="1.0" encoding="UTF-8"?>
<svg xmlns="http://www.w3.org/2000/svg" xmlns:xlink="http://www.w3.org/1999/xlink" version="1.2" >
<font id="Avenir Next Condensed Regular">
<font-face  font-family="Avenir Next Condensed" units-per-em="1000" ascent="1000" descent="-366" font-style="normal" font-weight="400" font-stretch="condensed" cap-height="708" x-height="496" underline-position="-75" underline-thickness="50" />
<missing-glyph  horiz-adv-x="512" d="M222 117 L222 184 L278 184 L278 117 L222 117 Z M225 234 L223 251 Q223 307 236 332 Q243 345 254 359.5 Q265 374 282 391 Q298 406 308 417.5 Q318 429 323 438.5 Q328 448 330 456.5 Q332 465 332 474 Q332 510 309.5 534.5 Q287 559 256 559 Q225 559 202.5 537 Q180 515 174 464 L124 472 Q131 544 168 576.5 Q205 609 259 609 Q313 609 348 573.5 Q383 538 383 478 Q383 446 370.5 419.5 Q358 393 320 358 Q283 325 277 306 Q271 286 271 234 L225 234 Z M462 50 L462 667 L50 667 L50 50 L462 50 Z M512 718 L512 0 L0 0 L0 718 L512 718 Z " />
<glyph glyph-name="null" horiz-adv-x="185" d="" />
<glyph glyph-name="nonmarkingreturn" unicode="&#xd;" d="" />
<glyph glyph-name="space" unicode="&#x20;" horiz-adv-x="185" d="" />
<glyph glyph-name="exclam" unicode="&#x21;" horiz-adv-x="294" d="M114 211 L114 708 L181 708 L181 211 L114 211 Z M194 43 Q194 22 180.5 7.5 Q167 -7 147 -7 Q127 -7 114 7.5 Q101 22 101 43 Q101 64 114 78.5 Q127 93 147 93 Q167 93 180.5 78.5 Q194 64 194 43 Z " />
<glyph glyph-name="quotedbl" unicode="&#x22;" horiz-adv-x="345" d="M207 461 L207 708 L265 708 L265 461 L207 461 Z M80 461 L80 708 L138 708 L138 461 L80 461 Z " />
<glyph glyph-name="numbersign" unicode="&#x23;" horiz-adv-x="379" d="M284 430 L271 279 L329 279 L329 221 L265 221 L247 0 L195 0 L214 221 L142 221 L123 0 L71 0 L89 221 L26 221 L26 279 L95 279 L109 430 L45 430 L45 488 L114 488 L133 708 L185 708 L166 488 L238 488 L257 708 L309 708 L289 488 L353 488 L353 430 L284 430 Z M160 430 L147 279 L219 279 L233 430 L160 430 Z " />
<glyph glyph-name="dollar" unicode="&#x24;" horiz-adv-x="470" d="M408 193 Q408 149 396 114.5 Q384 80 363 55 Q342 30 313 16 Q284 2 250 1 L250 -79 L213 -79 L213 1 Q169 3 126 22 Q83 41 56 71 L93 121 Q118 92 150 76.5 Q182 61 213 60 L213 330 Q182 342 155.5 357.5 Q129 373 109.5 394.5 Q90 416 79 446.5 Q68 477 68 520 Q68 603 110 651 Q152 699 215 706 L215 786 L252 786 L252 707 Q294 706 333 691 Q372 676 400 642 L365 594 Q345 620 315.5 634.5 Q286 649 252 649 L252 386 Q283 373 311.5 358 Q340 343 361.5 321 Q383 299 395.5 268.5 Q408 238 408 193 Z M213 647 Q180 642 154.5 611.5 Q129 581 129 526 Q129 497 135.5 476.5 Q142 456 153.5 442 Q165 428 180.5 418 Q196 408 213 400 L213 647 Z M344 188 Q344 218 336.5 238.5 Q329 259 316.5 274 Q304 289 287 299 Q270 309 252 318 L252 60 Q290 62 317 96 Q344 130 344 188 Z " />
<glyph glyph-name="percent" unicode="&#x25;" horiz-adv-x="631" d="M283 541 Q283 502 274.5 468.5 Q266 435 250.5 411 Q235 387 212 373.5 Q189 360 160 360 Q131 360 108.5 373.5 Q86 387 70 411 Q54 435 45.5 468.5 Q37 502 37 541 Q37 580 45 613.5 Q53 647 69 671.5 Q85 696 108 709.5 Q131 723 160 723 Q189 723 212 709.5 Q235 696 250.5 671.5 Q266 647 274.5 613.5 Q283 580 283 541 Z M227 541 Q227 598 210 635 Q193 672 160 672 Q126 672 109.5 635 Q93 598 93 541 Q93 486 109.5 448.5 Q126 411 160 411 Q193 411 210 448.5 Q227 486 227 541 Z M604 170 Q604 131 595.5 97.5 Q587 64 571.5 40 Q556 16 533 2.5 Q510 -11 481 -11 Q452 -11 429 2.5 Q406 16 390 40 Q374 64 365.5 97.5 Q357 131 357 170 Q357 209 365.5 242.5 Q374 276 390 300.5 Q406 325 429 338.5 Q452 352 481 352 Q510 352 533 338.5 Q556 325 571.5 300.5 Q587 276 595.5 242.5 Q604 209 604 170 Z M547 170 Q547 227 530.5 264 Q514 301 481 301 Q447 301 430.5 264 Q414 227 414 170 Q414 115 430.5 77.5 Q447 40 481 40 Q514 40 530.5 77.5 Q547 115 547 170 Z M206 -23 L157 -8 L435 737 L483 722 L206 -23 Z " />
<glyph glyph-name="ampersand" unicode="&#x26;" horiz-adv-x="520" d="M428 0 L364 97 Q354 74 340 53 Q326 32 307 16.5 Q288 1 263.5 -8 Q239 -17 208 -17 Q134 -17 88.5 36 Q43 89 43 185 Q43 223 52.5 254 Q62 285 78 310.5 Q94 336 116 356.5 Q138 377 164 394 Q130 445 118 482.5 Q106 520 106 561 Q106 638 146 682.5 Q186 727 248 727 Q278 727 302.5 716 Q327 705 344.5 685 Q362 665 372 636.5 Q382 608 382 574 Q382 539 371 511 Q360 483 341.5 459.5 Q323 436 298 417 Q273 398 246 380 L359 211 L421 380 L489 380 L398 160 L508 0 L428 0 Z M318 569 Q318 617 299.5 644.5 Q281 672 247 672 Q213 672 191.5 641.5 Q170 611 170 563 Q170 524 181 493 Q192 462 218 422 Q260 449 289 483.5 Q318 518 318 569 Z M194 348 Q177 336 161 321.5 Q145 307 133 287.5 Q121 268 113.5 244 Q106 220 106 190 Q106 121 136.5 82 Q167 43 215 43 Q236 43 253.5 52 Q271 61 285.5 75.5 Q300 90 310.5 109 Q321 128 328 148 L194 348 Z " />
<glyph glyph-name="quotesingle" unicode="&#x27;" horiz-adv-x="218" d="M80 461 L80 708 L138 708 L138 461 L80 461 Z " />
<glyph glyph-name="parenleft" unicode="&#x28;" horiz-adv-x="250" d="M143 -165 Q86 -71 55 48 Q24 167 24 288 Q24 409 55 528 Q86 647 143 741 L198 715 Q172 672 151.5 620.5 Q131 569 117 513.5 Q103 458 95.5 400.5 Q88 343 88 288 Q88 233 95.5 175.5 Q103 118 117 62.5 Q131 7 151.5 -44.5 Q172 -96 198 -139 L143 -165 Z " />
<glyph glyph-name="parenright" unicode="&#x29;" horiz-adv-x="250" d="M52 -139 Q78 -96 98.5 -44.5 Q119 7 133 62.5 Q147 118 154.5 175.5 Q162 233 162 288 Q162 343 154.5 400.5 Q147 458 133 513.5 Q119 569 98.5 620.5 Q78 672 52 715 L107 741 Q164 647 195 528 Q226 409 226 288 Q226 167 195 48 Q164 -71 107 -165 L52 -139 L52 -139 Z " />
<glyph glyph-name="asterisk" unicode="&#x2a;" horiz-adv-x="423" d="M257 508 L338 383 L292 350 L212 477 L133 352 L86 385 L167 508 L38 554 L57 605 L183 558 L183 708 L241 708 L241 558 L368 604 L385 552 L257 508 Z " />
<glyph glyph-name="plus" unicode="&#x2b;" horiz-adv-x="666" d="M363 333 L588 333 L588 273 L363 273 L363 48 L303 48 L303 273 L78 273 L78 333 L303 333 L303 558 L363 558 L363 333 Z " />
<glyph glyph-name="comma" unicode="&#x2c;" horiz-adv-x="217" d="M88 -131 L34 -131 L92 117 L158 117 L88 -131 Z " />
<glyph glyph-name="hyphen" unicode="&#x2d;" horiz-adv-x="226" d="M38 235 L38 291 L188 291 L188 235 L38 235 Z " />
<glyph glyph-name="period" unicode="&#x2e;" horiz-adv-x="217" d="M155 43 Q155 21 141.5 7 Q128 -7 108 -7 Q88 -7 75 7 Q62 21 62 43 Q62 63 75 78 Q88 93 108 93 Q128 93 141.5 78 Q155 63 155 43 Z " />
<glyph glyph-name="slash" unicode="&#x2f;" horiz-adv-x="254" d="M65 -34 L15 -25 L192 748 L242 738 L65 -34 Z " />
<glyph glyph-name="zero" unicode="0" horiz-adv-x="470" d="M425 354 Q425 292 417.5 227 Q410 162 389 109 Q368 56 331 22 Q294 -12 235 -12 Q176 -12 139 22 Q102 56 81 109 Q60 162 52 227 Q44 292 44 354 Q44 416 52 481 Q60 546 81 599 Q102 652 139 686 Q176 720 235 720 Q294 720 331 686 Q368 652 389 599 Q410 546 417.5 481 Q425 416 425 354 Z M354 354 Q354 379 352.5 411.5 Q351 444 347 478 Q343 512 335 544.5 Q327 577 314 602.5 Q301 628 281.5 643.5 Q262 659 235 659 Q208 659 188.5 643.5 Q169 628 156 602.5 Q143 577 134.5 544.5 Q126 512 122 478 Q118 444 116.5 411.5 Q115 379 115 354 Q115 328 116.5 295.5 Q118 263 122 229.5 Q126 196 134.5 163.5 Q143 131 156 105.5 Q169 80 188.5 64.5 Q208 49 235 49 Q262 49 281.5 64.5 Q301 80 314 105.5 Q327 131 335 163.5 Q343 196 347 229.5 Q351 263 352.5 295.5 Q354 328 354 354 Z " />
<glyph glyph-name="one" unicode="1" horiz-adv-x="470" d="M239 0 L239 628 L109 527 L76 581 L243 708 L306 708 L306 0 L239 0 Z " />
<glyph glyph-name="two" unicode="2" horiz-adv-x="470" d="M393 535 Q393 502 385.5 472.5 Q378 443 364 414.5 Q350 386 330.5 356.5 Q311 327 288 293 L127 62 L386 62 L386 0 L51 0 L51 66 L244 341 Q280 393 301 438.5 Q322 484 322 530 Q322 556 316 579.5 Q310 603 297.5 621 Q285 639 266.5 649.5 Q248 660 223 660 Q180 660 152.5 631.5 Q125 603 115 549 L49 557 Q63 637 109 678.5 Q155 720 227 720 Q269 720 300 705.5 Q331 691 351.5 665.5 Q372 640 382.5 606.5 Q393 573 393 535 Z " />
<glyph glyph-name="three" unicode="3" horiz-adv-x="470" d="M408 193 Q408 153 396 116 Q384 79 360 50.5 Q336 22 301 5 Q266 -12 221 -12 Q151 -12 103.5 23 Q56 58 36 124 L98 142 Q112 100 142.5 74 Q173 48 218 48 Q249 48 272 61.5 Q295 75 310 96.5 Q325 118 332.5 144 Q340 170 340 195 Q340 267 301.5 304.5 Q263 342 202 342 L181 342 L181 398 L203 398 Q257 398 290 435 Q323 472 323 535 Q323 557 317 579 Q311 601 298 619 Q285 637 265.5 648.5 Q246 660 218 660 Q186 660 160.5 641.5 Q135 623 121 591 L61 611 Q83 666 128 693 Q173 720 222 720 Q261 720 292 706.5 Q323 693 344.5 669 Q366 645 378 612.5 Q390 580 390 542 Q390 513 383 485.5 Q376 458 362.5 435 Q349 412 328.5 395.5 Q308 379 280 373 L280 371 Q338 360 373 312 Q408 264 408 193 Z " />
<glyph glyph-name="four" unicode="4" horiz-adv-x="470" d="M348 169 L348 0 L285 0 L285 169 L31 169 L31 234 L256 708 L348 708 L348 229 L436 229 L436 169 L348 169 Z M286 641 L284 641 L94 229 L286 229 L286 641 Z " />
<glyph glyph-name="five" unicode="5" horiz-adv-x="470" d="M406 222 Q406 166 392.5 122.5 Q379 79 354.5 49 Q330 19 296 3.5 Q262 -12 222 -12 Q156 -12 112.5 21 Q69 54 49 114 L109 136 Q125 95 153 72 Q181 49 221 49 Q273 49 306 94.5 Q339 140 339 220 Q339 296 306 343 Q273 390 210 390 Q181 390 148.5 380.5 Q116 371 93 356 L101 708 L382 708 L382 647 L161 647 L154 426 Q171 434 192.5 439.5 Q214 445 231 445 Q276 445 308.5 428.5 Q341 412 363 382.5 Q385 353 395.5 312 Q406 271 406 222 Z " />
<glyph glyph-name="six" unicode="6" horiz-adv-x="470" d="M427 219 Q427 166 413.5 123.5 Q400 81 375 51 Q350 21 314.5 4.5 Q279 -12 236 -12 Q191 -12 155.5 4.5 Q120 21 95.5 51 Q71 81 58 123.5 Q45 166 45 217 Q45 267 58.5 315 Q72 363 96 411 L242 708 L318 708 L164 406 L166 405 Q182 422 205.5 432.5 Q229 443 256 443 Q287 443 317.5 430.5 Q348 418 372.5 391 Q397 364 412 321.5 Q427 279 427 219 Z M357 219 Q357 256 349.5 287.5 Q342 319 327.5 341.5 Q313 364 291 376.5 Q269 389 239 389 Q211 389 188 376 Q165 363 148.5 339.5 Q132 316 123 284.5 Q114 253 114 217 Q114 139 147 93 Q180 47 237 47 Q294 47 325.5 95 Q357 143 357 219 Z " />
<glyph glyph-name="seven" unicode="7" horiz-adv-x="470" d="M173 0 L99 0 L331 646 L54 646 L54 708 L401 708 L401 649 L173 0 Z " />
<glyph glyph-name="eight" unicode="8" horiz-adv-x="470" d="M424 193 Q424 147 411 109.5 Q398 72 373.5 45 Q349 18 314 3 Q279 -12 236 -12 Q193 -12 158.5 3 Q124 18 100 45 Q76 72 63 109.5 Q50 147 50 193 Q50 265 80 312 Q110 359 164 377 L164 379 Q116 399 91.5 441 Q67 483 67 540 Q67 577 77.5 610 Q88 643 109.5 667.5 Q131 692 162.5 706 Q194 720 236 720 Q278 720 309.5 706 Q341 692 362.5 667.5 Q384 643 395 610 Q406 577 406 540 Q406 483 382 441 Q358 399 310 379 L310 377 Q364 357 394 311 Q424 265 424 193 Z M337 536 Q337 593 310.5 630 Q284 667 236 667 Q187 667 161.5 630 Q136 593 136 536 Q136 509 143 485 Q150 461 163 443 Q176 425 194.5 414 Q213 403 236 403 Q259 403 278 414 Q297 425 310 443 Q323 461 330 485 Q337 509 337 536 Z M352 196 Q352 264 320 306.5 Q288 349 236 349 Q184 349 152 306.5 Q120 264 120 196 Q120 164 128 136 Q136 108 151 87.5 Q166 67 187.5 55.5 Q209 44 236 44 Q264 44 285.5 55.5 Q307 67 322 87.5 Q337 108 344.5 136 Q352 164 352 196 Z " />
<glyph glyph-name="nine" unicode="9" horiz-adv-x="470" d="M423 495 Q423 447 410 398.5 Q397 350 373 299 L230 0 L155 0 L310 313 L308 314 Q275 279 216 279 Q186 279 156 291 Q126 303 102 329 Q78 355 63 396 Q48 437 48 495 Q48 546 61.5 587.5 Q75 629 99.5 658.5 Q124 688 158.5 704 Q193 720 236 720 Q324 720 373.5 659.5 Q423 599 423 495 Z M353 497 Q353 570 322 616 Q291 662 235 662 Q179 662 148.5 615.5 Q118 569 118 497 Q118 462 125.5 432 Q133 402 147.5 380.5 Q162 359 183.5 347 Q205 335 234 335 Q261 335 283 347.5 Q305 360 320.5 381.5 Q336 403 344.5 432.5 Q353 462 353 497 Z " />
<glyph glyph-name="colon" unicode="&#x3a;" horiz-adv-x="260" d="M177 50 Q177 28 163.5 14 Q150 0 130 0 Q110 0 97 14 Q84 28 84 50 Q84 70 97 85 Q110 100 130 100 Q150 100 163.5 85 Q177 70 177 50 Z M177 446 Q177 424 163.5 410 Q150 396 130 396 Q110 396 97 410 Q84 424 84 446 Q84 466 97 481 Q110 496 130 496 Q150 496 163.5 481 Q177 466 177 446 Z " />
<glyph glyph-name="semicolon" unicode="&#x3b;" horiz-adv-x="260" d="M177 446 Q177 424 163.5 410 Q150 396 130 396 Q110 396 97 410 Q84 424 84 446 Q84 466 97 481 Q110 496 130 496 Q150 496 163.5 481 Q177 466 177 446 Z M101 -131 L47 -131 L105 117 L171 117 L101 -131 Z " />
<glyph glyph-name="less" unicode="&#x3c;" horiz-adv-x="666" d="M588 504 L159 303 L588 102 L588 42 L78 280 L78 326 L588 564 L588 504 Z " />
<glyph glyph-name="equal" unicode="&#x3d;" horiz-adv-x="666" d="M588 408 L588 348 L78 348 L78 408 L588 408 Z M588 258 L588 198 L78 198 L78 258 L588 258 Z " />
<glyph glyph-name="greater" unicode="&#x3e;" horiz-adv-x="666" d="M78 564 L588 326 L588 280 L78 42 L78 102 L507 303 L78 504 L78 564 Z " />
<glyph glyph-name="question" unicode="&#x3f;" horiz-adv-x="368" d="M343 553 Q343 522 336 497.5 Q329 473 318 453.5 Q307 434 292.5 417 Q278 400 262 384 Q245 366 234 350.5 Q223 335 217 320 Q211 305 208.5 288.5 Q206 272 206 252 L206 213 L148 213 L148 262 Q148 302 161.5 337 Q175 372 207 408 L229 434 Q249 457 263 482 Q277 507 277 547 Q277 603 253.5 634 Q230 665 186 665 Q163 665 146 655.5 Q129 646 116 630 Q103 614 95 593.5 Q87 573 84 551 L26 562 Q37 634 79 679 Q121 724 193 724 Q262 724 302.5 679.5 Q343 635 343 553 Z M229 43 Q229 22 216 7.5 Q203 -7 183 -7 Q163 -7 149.5 7.5 Q136 22 136 43 Q136 64 149.5 78.5 Q163 93 183 93 Q202 93 215.5 78.5 Q229 64 229 43 Z " />
<glyph glyph-name="at" unicode="&#x40;" horiz-adv-x="640" d="M605 407 Q605 355 594.5 310 Q584 265 564 231.5 Q544 198 515.5 179 Q487 160 451 160 Q419 160 399 178.5 Q379 197 380 235 L379 235 Q373 223 365 209.5 Q357 196 345.5 185 Q334 174 318.5 167 Q303 160 284 160 Q257 160 237.5 172.5 Q218 185 205 206 Q192 227 185.5 254.5 Q179 282 179 313 Q179 356 188.5 400 Q198 444 216.5 479 Q235 514 262.5 536 Q290 558 326 558 Q361 558 380 537 Q399 516 403 486 L406 486 L417 534 L476 534 L440 362 Q435 335 432 307 Q429 279 429 265 Q429 244 435.5 232 Q442 220 462 219 Q481 218 497.5 233 Q514 248 525 274 Q536 300 542.5 334 Q549 368 549 406 Q549 466 535 515 Q521 564 493.5 599.5 Q466 635 426 654 Q386 673 334 673 Q280 673 236 647 Q192 621 161.5 577 Q131 533 114 475 Q97 417 97 353 Q97 285 113 227.5 Q129 170 159.5 127.5 Q190 85 235 61 Q280 37 338 37 Q397 37 445.5 63.5 Q494 90 527 129 L560 82 Q518 34 463 7.5 Q408 -19 333 -19 Q261 -19 205.5 9 Q150 37 112.5 87 Q75 137 56 205 Q37 273 37 353 Q37 432 58 500 Q79 568 118 618.5 Q157 669 212 698 Q267 727 334 727 Q399 727 449.5 705 Q500 683 534.5 641.5 Q569 600 587 540.5 Q605 481 605 407 Z M389 409 Q389 445 377.5 471.5 Q366 498 334 498 Q311 498 294 480.5 Q277 463 266 436 Q255 409 249 375.5 Q243 342 243 310 Q243 271 256.5 245 Q270 219 302 219 Q324 219 340.5 240 Q357 261 367.5 291 Q378 321 383.5 353.5 Q389 386 389 409 Z " />
<glyph glyph-name="A" unicode="A" horiz-adv-x="464" d="M384 0 L341 177 L123 177 L78 0 L7 0 L187 708 L282 708 L457 0 L384 0 Z M235 645 L231 645 L133 233 L331 233 L235 645 Z " />
<glyph glyph-name="B" unicode="B" horiz-adv-x="486" d="M446 193 Q446 138 428.5 101 Q411 64 384 41.5 Q357 19 324.5 9.5 Q292 0 262 0 L81 0 L81 708 L241 708 Q271 708 303 700 Q335 692 361.5 672.5 Q388 653 405 619.5 Q422 586 422 535 Q422 499 413.5 472.5 Q405 446 391 426.5 Q377 407 359 394.5 Q341 382 322 375 L322 373 Q341 369 363 357 Q385 345 403.5 323.5 Q422 302 434 269.5 Q446 237 446 193 Z M357 525 Q357 560 346.5 584 Q336 608 318.5 622.5 Q301 637 279 643 Q257 649 234 649 L147 649 L147 398 L236 398 Q258 398 279.5 405 Q301 412 318 427.5 Q335 443 346 467 Q357 491 357 525 Z M377 197 Q377 237 365 264.5 Q353 292 334 309 Q315 326 291.5 334 Q268 342 246 342 L147 342 L147 59 L246 59 Q273 59 297 67 Q321 75 339 92 Q357 109 367 135 Q377 161 377 197 Z " />
<glyph glyph-name="C" unicode="C" horiz-adv-x="479" d="M461 80 Q433 33 390 8 Q347 -17 293 -17 Q235 -17 190 11.5 Q145 40 114 89.5 Q83 139 66.5 207 Q50 275 50 354 Q50 434 66.5 502 Q83 570 114.5 619.5 Q146 669 191 697 Q236 725 293 725 Q343 725 386.5 704 Q430 683 459 638 L414 592 Q391 627 360.5 644 Q330 661 296 661 Q252 661 219.5 637 Q187 613 165.5 571 Q144 529 133.5 473 Q123 417 123 354 Q123 291 134 235.5 Q145 180 166.5 138 Q188 96 220.5 71.5 Q253 47 297 47 Q335 47 366 68.5 Q397 90 417 125 L461 80 L461 80 Z " />
<glyph glyph-name="D" unicode="D" horiz-adv-x="541" d="M490 353 Q490 266 472 200 Q454 134 420 89.5 Q386 45 338.5 22.5 Q291 0 233 0 L81 0 L81 708 L234 708 Q292 708 339.5 685.5 Q387 663 420.5 618 Q454 573 472 506.5 Q490 440 490 353 Z M421 353 Q421 428 406.5 483.5 Q392 539 366.5 575 Q341 611 306.5 629 Q272 647 232 647 L150 647 L150 61 L232 61 Q272 61 306.5 79 Q341 97 366.5 133 Q392 169 406.5 224 Q421 279 421 353 Z " />
<glyph glyph-name="E" unicode="E" horiz-adv-x="418" d="M81 0 L81 708 L366 708 L366 646 L149 646 L149 397 L352 397 L352 338 L149 338 L149 63 L376 63 L376 0 L81 0 Z " />
<glyph glyph-name="F" unicode="F" horiz-adv-x="396" d="M150 645 L150 392 L349 392 L349 331 L150 331 L150 0 L81 0 L81 708 L364 708 L364 645 L150 645 Z " />
<glyph glyph-name="G" unicode="G" horiz-adv-x="535" d="M469 44 Q440 18 398.5 2.5 Q357 -13 301 -13 Q242 -13 195 13 Q148 39 116 87 Q84 135 67 203 Q50 271 50 355 Q50 434 66.5 502 Q83 570 114 619.5 Q145 669 190 697 Q235 725 292 725 Q344 725 387 704 Q430 683 459 638 L414 592 Q391 627 360.5 644.5 Q330 662 295 662 Q251 662 219 637.5 Q187 613 165.5 571 Q144 529 133.5 473.5 Q123 418 123 355 Q123 289 134 233 Q145 177 167.5 136.5 Q190 96 223.5 73 Q257 50 301 50 Q333 50 358.5 58 Q384 66 401 81 L401 321 L300 321 L300 382 L469 382 L469 44 L469 44 Z " />
<glyph glyph-name="H" unicode="H" horiz-adv-x="573" d="M422 0 L422 336 L151 336 L151 0 L81 0 L81 708 L151 708 L151 398 L422 398 L422 708 L492 708 L492 0 L422 0 Z " />
<glyph glyph-name="I" unicode="I" horiz-adv-x="232" d="M81 0 L81 708 L151 708 L151 0 L81 0 Z " />
<glyph glyph-name="J" unicode="J" horiz-adv-x="379" d="M303 194 Q303 94 265.5 38.5 Q228 -17 145 -17 Q84 -17 47 16 Q10 49 -4 104 L58 129 Q65 96 86.5 71.5 Q108 47 144 47 Q196 47 214.5 89 Q233 131 233 204 L233 708 L303 708 L303 194 L303 194 Z " />
<glyph glyph-name="K" unicode="K" horiz-adv-x="482" d="M387 0 L151 363 L150 363 L150 0 L81 0 L81 708 L150 708 L150 390 L151 390 L373 708 L454 708 L216 381 L471 0 L387 0 Z " />
<glyph glyph-name="L" unicode="L" horiz-adv-x="357" d="M81 0 L81 708 L151 708 L151 65 L353 65 L353 0 L81 0 Z " />
<glyph glyph-name="M" unicode="M" horiz-adv-x="714" d="M564 0 L564 615 L561 615 L387 0 L322 0 L149 615 L146 615 L146 0 L81 0 L81 708 L185 708 L354 110 L358 110 L525 708 L633 708 L633 0 L564 0 Z " />
<glyph glyph-name="N" unicode="N" horiz-adv-x="561" d="M396 0 L149 589 L146 589 L146 0 L81 0 L81 708 L168 708 L413 119 L416 119 L416 708 L480 708 L480 0 L396 0 Z " />
<glyph glyph-name="O" unicode="O" horiz-adv-x="570" d="M519 355 Q519 272 503 203.5 Q487 135 457 86 Q427 37 384 10 Q341 -17 286 -17 Q231 -17 187.5 10 Q144 37 113.5 86 Q83 135 67 203.5 Q51 272 51 355 Q51 437 66.5 505.5 Q82 574 112 622.5 Q142 671 185.5 698 Q229 725 286 725 Q341 725 384 698 Q427 671 457 622.5 Q487 574 503 505.5 Q519 437 519 355 Z M446 355 Q446 419 436 475 Q426 531 405.5 572 Q385 613 355 637 Q325 661 286 661 Q245 661 214.5 637 Q184 613 164 572 Q144 531 134 475 Q124 419 124 355 Q124 291 134 235 Q144 179 164 137 Q184 95 214.5 71 Q245 47 286 47 Q326 47 356 71 Q386 95 406 137 Q426 179 436 235 Q446 291 446 355 Z " />
<glyph glyph-name="P" unicode="P" horiz-adv-x="460" d="M428 516 Q428 467 413.5 429.5 Q399 392 375 367 Q351 342 319.5 329 Q288 316 254 316 L150 316 L150 0 L81 0 L81 708 L248 708 Q279 708 311 699 Q343 690 369 667.5 Q395 645 411.5 608 Q428 571 428 516 Z M359 515 Q359 550 350 575.5 Q341 601 325 617 Q309 633 288.5 640.5 Q268 648 244 648 L150 648 L150 375 L245 375 Q292 375 325.5 409.5 Q359 444 359 515 Z " />
<glyph glyph-name="Q" unicode="Q" horiz-adv-x="573" d="M285 0 Q233 0 190 25 Q147 50 116 97 Q85 144 68 210.5 Q51 277 51 360 Q51 441 68 508.5 Q85 576 116 624 Q147 672 190.5 698.5 Q234 725 287 725 Q340 725 383.5 698 Q427 671 457.5 623 Q488 575 505 508 Q522 441 522 362 Q522 312 513 264 Q504 216 488 176 Q472 136 449.5 106.5 Q427 77 401 63 L401 61 L545 61 L545 0 L285 0 Z M449 360 Q449 422 438 476.5 Q427 531 406 571.5 Q385 612 355 635 Q325 658 287 658 Q249 658 218.5 635 Q188 612 167 572 Q146 532 135 477.5 Q124 423 124 360 Q124 298 135.5 244 Q147 190 168 150 Q189 110 219.5 87 Q250 64 288 64 Q327 64 357 88.5 Q387 113 407.5 154 Q428 195 438.5 248.5 Q449 302 449 360 Z " />
<glyph glyph-name="R" unicode="R" horiz-adv-x="476" d="M369 0 L241 328 L150 328 L150 0 L81 0 L81 708 L251 708 Q286 708 318.5 698.5 Q351 689 376.5 667 Q402 645 417.5 609 Q433 573 433 521 Q433 476 421.5 443.5 Q410 411 391.5 389 Q373 367 350.5 355 Q328 343 306 340 L444 0 L369 0 Z M365 518 Q365 556 354.5 581.5 Q344 607 326.5 622 Q309 637 286.5 643 Q264 649 240 649 L150 649 L150 383 L243 383 Q300 383 332.5 418.5 Q365 454 365 518 Z " />
<glyph glyph-name="S" unicode="S" horiz-adv-x="434" d="M388 181 Q388 134 374 97.5 Q360 61 335.5 35.5 Q311 10 278 -3.5 Q245 -17 208 -17 Q154 -17 108.5 6 Q63 29 35 67 L78 116 Q101 83 136 65 Q171 47 207 47 Q255 47 287.5 81 Q320 115 320 178 Q320 208 310 231 Q300 254 283 272 Q266 290 244.5 304 Q223 318 199 330 Q170 344 144 361.5 Q118 379 98.5 402 Q79 425 67 456.5 Q55 488 55 530 Q55 579 70 615.5 Q85 652 110.5 676.5 Q136 701 168 713 Q200 725 235 725 Q283 725 321.5 708.5 Q360 692 386 657 L343 608 Q323 637 296 649.5 Q269 662 237 662 Q216 662 195.5 654.5 Q175 647 159 631 Q143 615 133 590 Q123 565 123 531 Q123 501 132 479 Q141 457 156.5 440 Q172 423 192.5 410 Q213 397 235 386 Q263 372 290.5 354 Q318 336 340 312 Q362 288 375 256 Q388 224 388 181 Z " />
<glyph glyph-name="T" unicode="T" horiz-adv-x="342" d="M205 648 L205 0 L136 0 L136 648 L0 648 L0 708 L342 708 L342 648 L205 648 Z " />
<glyph glyph-name="U" unicode="U" horiz-adv-x="550" d="M477 248 Q477 193 466.5 144.5 Q456 96 432.5 60 Q409 24 370 3.5 Q331 -17 274 -17 Q217 -17 178.5 3.5 Q140 24 116.5 60 Q93 96 83 144.5 Q73 193 73 248 L73 708 L143 708 L143 257 Q143 218 148.5 180 Q154 142 168.5 112.5 Q183 83 208.5 65 Q234 47 275 47 Q315 47 341 65 Q367 83 381.5 112.5 Q396 142 401.5 179.5 Q407 217 407 257 L407 708 L477 708 L477 248 L477 248 Z " />
<glyph glyph-name="V" unicode="V" horiz-adv-x="456" d="M272 0 L181 0 L6 708 L82 708 L228 79 L230 79 L376 708 L450 708 L272 0 Z " />
<glyph glyph-name="W" unicode="W" horiz-adv-x="728" d="M573 0 L481 0 L365 606 L363 606 L248 0 L156 0 L17 708 L88 708 L204 89 L206 89 L324 708 L408 708 L528 89 L530 89 L645 708 L713 708 L573 0 Z " />
<glyph glyph-name="X" unicode="X" horiz-adv-x="453" d="M369 0 L226 314 L83 0 L9 0 L188 373 L27 708 L101 708 L228 428 L354 708 L426 708 L266 372 L445 0 L369 0 Z " />
<glyph glyph-name="Y" unicode="Y" horiz-adv-x="422" d="M244 291 L244 0 L176 0 L176 291 L0 708 L76 708 L210 363 L347 708 L422 708 L244 291 Z " />
<glyph glyph-name="Z" unicode="Z" horiz-adv-x="397" d="M29 0 L29 60 L288 646 L40 646 L40 708 L361 708 L361 647 L104 63 L363 63 L363 0 L29 0 Z " />
<glyph glyph-name="bracketleft" unicode="&#x5b;" horiz-adv-x="250" d="M40 -156 L40 732 L198 732 L198 678 L105 678 L105 -102 L198 -102 L198 -156 L40 -156 Z " />
<glyph glyph-name="backslash" unicode="&#x5c;" horiz-adv-x="254" d="M66 748 L243 -25 L193 -34 L16 738 L66 748 Z " />
<glyph glyph-name="bracketright" unicode="&#x5d;" horiz-adv-x="250" d="M52 -102 L145 -102 L145 678 L52 678 L52 732 L210 732 L210 -156 L52 -156 L52 -102 Z " />
<glyph glyph-name="asciicircum" unicode="&#x5e;" horiz-adv-x="666" d="M309 708 L357 708 L586 275 L524 275 L333 636 L142 275 L80 275 L309 708 Z " />
<glyph glyph-name="underscore" unicode="&#x5f;" horiz-adv-x="500" d="M0 -75 L500 -75 L500 -125 L0 -125 L0 -75 Z " />
<glyph glyph-name="grave" unicode="&#x60;" horiz-adv-x="225" d="M106 569 L0 713 L72 713 L162 569 L106 569 Z " />
<glyph glyph-name="a" unicode="a" horiz-adv-x="404" d="M285 0 Q284 8 283.5 20 Q283 32 282.5 45.5 Q282 59 282 71.5 Q282 84 282 93 L280 93 Q255 -13 160 -13 Q139 -13 118 -5 Q97 3 80 21 Q63 39 52 66.5 Q41 94 41 133 Q41 187 60 220 Q79 253 108 272 Q137 291 171.5 297.5 Q206 304 237 304 L276 304 L276 330 Q276 395 252 425 Q228 455 187 455 Q159 455 135 440 Q111 425 94 402 L59 443 Q82 476 119 494 Q156 512 193 512 Q271 512 304 461 Q337 410 337 312 L337 106 Q337 96 337.5 81 Q338 66 338.5 50.5 Q339 35 340 21.5 Q341 8 342 0 L285 0 Z M277 252 L237 252 Q213 252 189 247.5 Q165 243 146.5 230.5 Q128 218 116 196 Q104 174 104 139 Q104 87 127 64 Q150 41 177 41 Q205 41 224.5 58 Q244 75 255.5 101 Q267 127 272 158 Q277 189 277 218 L277 252 Z " />
<glyph glyph-name="b" unicode="b" horiz-adv-x="466" d="M419 250 Q419 192 408.5 143.5 Q398 95 378 59.5 Q358 24 329 4 Q300 -16 262 -16 Q211 -16 183 13.5 Q155 43 143 89 L141 89 L141 0 L77 0 L77 756 L143 756 L143 411 L144 411 Q156 456 186.5 484 Q217 512 262 512 Q300 512 329.5 492.5 Q359 473 379 438.5 Q399 404 409 356 Q419 308 419 250 Z M351 248 Q351 291 345 329 Q339 367 326 395 Q313 423 293.5 439 Q274 455 247 455 Q221 455 201 439 Q181 423 167.5 395 Q154 367 147.5 329 Q141 291 141 248 Q141 204 147.5 166.5 Q154 129 167.5 101.5 Q181 74 200.5 58 Q220 42 247 42 Q274 42 293.5 58 Q313 74 326 101.5 Q339 129 345 166.5 Q351 204 351 248 Z " />
<glyph glyph-name="c" unicode="c" horiz-adv-x="336" d="M328 35 Q288 -16 218 -16 Q176 -16 144 3.5 Q112 23 90.5 57.5 Q69 92 58 140.5 Q47 189 47 248 Q47 307 58 355.5 Q69 404 91 439 Q113 474 145 493 Q177 512 219 512 Q257 512 284 498 Q311 484 327 465 L292 417 Q280 434 262 444 Q244 454 220 454 Q193 454 173.5 438.5 Q154 423 141 395.5 Q128 368 121.5 330.5 Q115 293 115 248 Q115 204 121.5 167 Q128 130 141 103 Q154 76 174.5 61 Q195 46 223 46 Q248 46 266.5 56.5 Q285 67 298 86 L328 35 L328 35 Z " />
<glyph glyph-name="d" unicode="d" horiz-adv-x="466" d="M325 0 L325 89 L323 89 Q311 44 283 14 Q255 -16 204 -16 Q166 -16 137 4 Q108 24 88 59.5 Q68 95 57.5 143.5 Q47 192 47 250 Q47 308 57 356 Q67 404 86.5 438.5 Q106 473 135.5 492.5 Q165 512 203 512 Q248 512 279 484.5 Q310 457 321 412 L323 412 L323 756 L389 756 L389 0 L325 0 Z M325 248 Q325 292 318.5 330 Q312 368 298.5 395.5 Q285 423 265 439 Q245 455 219 455 Q192 455 172.5 439 Q153 423 140 395.5 Q127 368 121 330 Q115 292 115 248 Q115 205 121 167.5 Q127 130 140 102 Q153 74 172.5 58 Q192 42 219 42 Q246 42 265.5 58 Q285 74 298.5 102 Q312 130 318.5 167.5 Q325 205 325 248 Z " />
<glyph glyph-name="e" unicode="e" horiz-adv-x="423" d="M114 234 Q114 193 121 158.5 Q128 124 141.5 98.5 Q155 73 175.5 58.5 Q196 44 224 44 Q260 44 282 66 Q304 88 316 119 L366 90 Q348 45 312.5 14.5 Q277 -16 222 -16 Q139 -16 93 54 Q47 124 47 247 Q47 305 59 354 Q71 403 93.5 438 Q116 473 148.5 492.5 Q181 512 221 512 Q265 512 295.5 493 Q326 474 345 441 Q364 408 372.5 364 Q381 320 381 270 L381 234 L114 234 Z M314 289 Q314 364 291 409.5 Q268 455 219 455 Q190 455 170.5 437.5 Q151 420 138.5 394.5 Q126 369 120.5 340 Q115 311 115 289 L314 289 Z " />
<glyph glyph-name="f" unicode="f" horiz-adv-x="237" d="M245 711 Q230 716 216 716 Q196 716 182.5 706 Q169 696 161 680 Q153 664 150 643.5 Q147 623 147 601 L147 496 L231 496 L231 442 L147 442 L147 0 L82 0 L82 442 L15 442 L15 496 L82 496 L82 601 Q82 677 112.5 724.5 Q143 772 209 772 Q232 772 250 766 L245 711 Z " />
<glyph glyph-name="g" unicode="g" horiz-adv-x="466" d="M389 7 Q389 -46 380.5 -91 Q372 -136 352 -169 Q332 -202 298 -221 Q264 -240 213 -240 Q164 -240 121.5 -217.5 Q79 -195 53 -157 L96 -111 Q116 -142 146.5 -161 Q177 -180 215 -180 Q248 -180 269.5 -166 Q291 -152 303 -127 Q315 -102 320 -68 Q325 -34 325 7 L325 89 L323 89 Q311 44 283 14 Q255 -16 204 -16 Q166 -16 137 4 Q108 24 88 59.5 Q68 95 57.5 143.5 Q47 192 47 250 Q47 308 57 356 Q67 404 86.5 438.5 Q106 473 135.5 492.5 Q165 512 203 512 Q248 512 279.5 484.5 Q311 457 322 412 L325 412 L325 496 L389 496 L389 7 Z M325 248 Q325 291 318.5 329 Q312 367 298.5 395 Q285 423 265 439 Q245 455 219 455 Q192 455 172.5 439 Q153 423 140 395.5 Q127 368 121 330 Q115 292 115 248 Q115 205 121 167.5 Q127 130 140 102 Q153 74 172.5 58 Q192 42 219 42 Q246 42 265.5 58 Q285 74 298.5 101.5 Q312 129 318.5 166.5 Q325 204 325 248 Z " />
<glyph glyph-name="h" unicode="h" horiz-adv-x="467" d="M327 0 L327 320 Q327 343 324.5 366.5 Q322 390 314 409.5 Q306 429 290.5 441.5 Q275 454 250 454 Q225 454 205.5 440.5 Q186 427 172 403.5 Q158 380 150.5 349.5 Q143 319 143 286 L143 0 L77 0 L77 756 L143 756 L143 402 L145 402 Q158 450 190 481 Q222 512 270 512 Q310 512 334.5 495 Q359 478 372 450.5 Q385 423 389.5 388.5 Q394 354 394 320 L394 0 L327 0 Z " />
<glyph glyph-name="i" unicode="i" horiz-adv-x="220" d="M154 648 Q154 627 141 613.5 Q128 600 110 600 Q91 600 78.5 613.5 Q66 627 66 648 Q66 668 78.5 682 Q91 696 110 696 Q129 696 141.5 682 Q154 668 154 648 Z M77 0 L77 496 L143 496 L143 0 L77 0 Z " />
<glyph glyph-name="j" unicode="j" horiz-adv-x="221" d="M155 648 Q155 627 142.5 613.5 Q130 600 111 600 Q93 600 80.5 613.5 Q68 627 68 648 Q68 668 80.5 682 Q93 696 111 696 Q130 696 142.5 682 Q155 668 155 648 Z M145 -73 Q145 -149 116 -194.5 Q87 -240 18 -240 Q10 -240 -0.5 -238.5 Q-11 -237 -21 -234 L-15 -174 Q0 -179 14 -179 Q34 -179 46.5 -170 Q59 -161 66.5 -146 Q74 -131 76.5 -111 Q79 -91 79 -69 L79 496 L145 496 L145 -73 Z " />
<glyph glyph-name="k" unicode="k" horiz-adv-x="400" d="M315 0 L145 250 L143 250 L143 0 L77 0 L77 756 L143 756 L143 277 L145 277 L305 496 L384 496 L206 266 L395 0 L315 0 Z " />
<glyph glyph-name="l" unicode="l" horiz-adv-x="220" d="M77 0 L77 756 L143 756 L143 0 L77 0 Z " />
<glyph glyph-name="m" unicode="m" horiz-adv-x="713" d="M147 399 Q158 449 189.5 480.5 Q221 512 271 512 Q298 512 317.5 502.5 Q337 493 350.5 477.5 Q364 462 371.5 441 Q379 420 383 398 L385 398 Q391 420 402 440.5 Q413 461 429.5 477 Q446 493 467.5 502.5 Q489 512 516 512 Q556 512 580 495 Q604 478 617.5 450.5 Q631 423 635.5 388.5 Q640 354 640 320 L640 0 L573 0 L573 320 Q573 343 570.5 366.5 Q568 390 560 409.5 Q552 429 536.5 441.5 Q521 454 495 454 Q471 454 451.5 440.5 Q432 427 419 403.5 Q406 380 399 349.5 Q392 319 392 286 L392 0 L326 0 L326 320 Q326 343 323.5 367 Q321 391 313.5 410.5 Q306 430 290.5 442 Q275 454 250 454 Q225 454 206 440.5 Q187 427 173.5 403.5 Q160 380 153 349.5 Q146 319 146 286 L146 0 L81 0 L81 371 Q81 387 80.5 405.5 Q80 424 79.5 441.5 Q79 459 78.5 473.5 Q78 488 77 496 L141 496 Q143 477 144 450 Q145 423 145 399 L147 399 L147 399 Z " />
<glyph glyph-name="n" unicode="n" horiz-adv-x="470" d="M331 0 L331 320 Q331 343 328.5 366.5 Q326 390 317.5 409.5 Q309 429 293.5 441.5 Q278 454 253 454 Q228 454 208.5 440.5 Q189 427 175.5 403.5 Q162 380 154.5 349.5 Q147 319 147 286 L147 0 L81 0 L81 371 Q81 387 80.5 405.5 Q80 424 79.5 441.5 Q79 459 78.5 473.5 Q78 488 77 496 L141 496 Q143 477 144 450 Q145 423 145 399 L147 399 Q161 449 193 480.5 Q225 512 273 512 Q313 512 337.5 495 Q362 478 375 450.5 Q388 423 392.5 388.5 Q397 354 397 320 L397 0 L331 0 Z " />
<glyph glyph-name="o" unicode="o" horiz-adv-x="440" d="M393 247 Q393 188 381 140 Q369 92 347 57 Q325 22 292.5 3 Q260 -16 220 -16 Q180 -16 148 3 Q116 22 93.5 57 Q71 92 59 140 Q47 188 47 247 Q47 306 58.5 355 Q70 404 92 439 Q114 474 146.5 493 Q179 512 220 512 Q260 512 292.5 493 Q325 474 347 439 Q369 404 381 355 Q393 306 393 247 Z M325 248 Q325 292 318.5 330 Q312 368 299 395.5 Q286 423 266.5 439 Q247 455 220 455 Q193 455 173 439 Q153 423 140.5 395.5 Q128 368 121.5 330 Q115 292 115 248 Q115 204 121.5 167 Q128 130 140.5 102 Q153 74 173 58.5 Q193 43 220 43 Q247 43 267 58.5 Q287 74 299.5 102 Q312 130 318.5 167 Q325 204 325 248 Z " />
<glyph glyph-name="p" unicode="p" horiz-adv-x="466" d="M419 247 Q419 189 409 141 Q399 93 379 58 Q359 23 330 3.5 Q301 -16 262 -16 Q217 -16 186.5 12 Q156 40 144 85 L143 85 L143 -240 L77 -240 L77 496 L141 496 L141 407 L143 407 Q155 453 183 482.5 Q211 512 262 512 Q299 512 328.5 492 Q358 472 378 437 Q398 402 408.5 353.5 Q419 305 419 247 Z M351 249 Q351 292 345 329.5 Q339 367 326 395 Q313 423 293.5 439 Q274 455 247 455 Q220 455 200.5 439 Q181 423 167.5 395 Q154 367 147.5 329.5 Q141 292 141 249 Q141 205 147.5 167 Q154 129 167.5 101.5 Q181 74 201 58 Q221 42 247 42 Q274 42 293.5 58 Q313 74 326 101.5 Q339 129 345 167 Q351 205 351 249 Z " />
<glyph glyph-name="q" unicode="q" horiz-adv-x="466" d="M323 -240 L323 85 L321 85 Q310 40 279.5 12 Q249 -16 204 -16 Q166 -16 136.5 3.5 Q107 23 87 58 Q67 93 57 141 Q47 189 47 247 Q47 305 57.5 353.5 Q68 402 87.5 437 Q107 472 136 492 Q165 512 203 512 Q254 512 282.5 483 Q311 454 323 408 L325 408 L325 496 L389 496 L389 -240 L323 -240 Z M325 249 Q325 292 318.5 330 Q312 368 298.5 395.5 Q285 423 265.5 439 Q246 455 219 455 Q192 455 172.5 439 Q153 423 140 395.5 Q127 368 121 330 Q115 292 115 249 Q115 205 121 167.5 Q127 130 140 102 Q153 74 172.5 58 Q192 42 219 42 Q245 42 265 58 Q285 74 298.5 102 Q312 130 318.5 167.5 Q325 205 325 249 Z " />
<glyph glyph-name="r" unicode="r" horiz-adv-x="274" d="M147 388 Q161 453 190 482 Q219 511 256 511 Q264 511 268 510 L266 442 Q262 443 258.5 443.5 Q255 444 250 444 Q225 444 205.5 427 Q186 410 173 383 Q160 356 153.5 321.5 Q147 287 147 253 L147 0 L81 0 L81 371 Q81 387 80.5 405.5 Q80 424 79.5 441.5 Q79 459 78.5 473.5 Q78 488 77 496 L141 496 Q143 477 144 448.5 Q145 420 145 388 L147 388 L147 388 Z " />
<glyph glyph-name="s" unicode="s" horiz-adv-x="340" d="M266 410 Q253 432 232.5 445.5 Q212 459 183 459 Q151 459 130.5 435.5 Q110 412 110 374 Q110 334 130 316 Q150 298 190 283 Q210 275 230 263.5 Q250 252 265.5 235 Q281 218 291 194.5 Q301 171 301 138 Q301 65 261.5 24.5 Q222 -16 159 -16 Q117 -16 82 3.5 Q47 23 24 56 L64 99 Q81 73 104.5 56.5 Q128 40 160 40 Q195 40 216.5 65.5 Q238 91 238 133 Q238 157 230 173.5 Q222 190 209 201 Q196 212 179.5 220 Q163 228 145 235 Q126 242 108.5 252 Q91 262 77 278 Q63 294 54.5 316.5 Q46 339 46 371 Q46 402 56.5 428 Q67 454 86 472.5 Q105 491 129.5 501.5 Q154 512 183 512 Q225 512 255.5 495.5 Q286 479 305 453 L266 410 Z " />
<glyph glyph-name="t" unicode="t" horiz-adv-x="250" d="M238 0 Q227 -5 211 -9 Q195 -13 178 -13 Q126 -13 104.5 23 Q83 59 83 119 L83 442 L18 442 L18 496 L82 496 L82 633 L147 633 L147 496 L235 496 L235 442 L147 442 L147 131 Q147 86 160 65.5 Q173 45 199 45 Q208 45 218 47.5 Q228 50 235 53 L238 0 L238 0 Z " />
<glyph glyph-name="u" unicode="u" horiz-adv-x="470" d="M139 496 L139 176 Q139 153 141.5 129.5 Q144 106 152.5 86.5 Q161 67 176 54.5 Q191 42 217 42 Q242 42 261.5 55.5 Q281 69 294.5 92.5 Q308 116 315.5 146.5 Q323 177 323 210 L323 496 L389 496 L389 125 Q389 109 389.5 90.5 Q390 72 390.5 54.5 Q391 37 391.5 22 Q392 7 393 0 L329 0 Q327 19 326 46 Q325 73 325 97 L323 97 Q309 47 277 15.5 Q245 -16 197 -16 Q157 -16 132.5 1 Q108 18 95 45.5 Q82 73 77.5 107 Q73 141 73 176 L73 496 L139 496 Z " />
<glyph glyph-name="v" unicode="v" horiz-adv-x="375" d="M228 0 L150 0 L17 496 L87 496 L190 70 L192 70 L290 496 L358 496 L228 0 Z " />
<glyph glyph-name="w" unicode="w" horiz-adv-x="575" d="M448 0 L370 0 L286 403 L285 403 L200 0 L125 0 L24 496 L91 496 L167 76 L168 76 L255 496 L319 496 L407 76 L408 76 L484 496 L551 496 L448 0 Z " />
<glyph glyph-name="x" unicode="x" horiz-adv-x="378" d="M287 0 L188 208 L90 0 L17 0 L149 261 L28 496 L102 496 L189 309 L275 496 L347 496 L228 262 L362 0 L287 0 Z " />
<glyph glyph-name="y" unicode="y" horiz-adv-x="375" d="M202 -105 Q194 -137 183.5 -162 Q173 -187 158 -204 Q143 -221 123.5 -230.5 Q104 -240 77 -240 Q63 -240 49 -237.5 Q35 -235 26 -232 L35 -173 Q42 -175 52 -177 Q62 -179 72 -179 Q101 -179 115.5 -159 Q130 -139 139 -104 L161 -18 L17 496 L87 496 L194 77 L196 77 L291 496 L358 496 L202 -105 Z " />
<glyph glyph-name="z" unicode="z" horiz-adv-x="333" d="M26 0 L26 58 L233 439 L42 439 L42 496 L302 496 L302 440 L96 57 L303 57 L303 0 L26 0 Z " />
<glyph glyph-name="braceleft" unicode="&#x7b;" horiz-adv-x="250" d="M155 -156 Q103 -156 79 -120 Q55 -84 55 -15 L55 160 Q55 220 39.5 239.5 Q24 259 0 259 L0 317 Q24 317 39.5 336.5 Q55 356 55 416 L55 591 Q55 660 79 696 Q103 732 155 732 L206 732 L206 678 L171 678 Q139 678 128 653.5 Q117 629 117 588 L117 407 Q117 376 111.5 354.5 Q106 333 97 319.5 Q88 306 76.5 298.5 Q65 291 54 289 L54 287 Q65 285 76.5 277.5 Q88 270 97 256.5 Q106 243 111.5 221.5 Q117 200 117 169 L117 -12 Q117 -53 128 -77.5 Q139 -102 171 -102 L206 -102 L206 -156 L155 -156 Z " />
<glyph glyph-name="bar" unicode="&#x7c;" horiz-adv-x="222" d="M141 750 L141 -250 L81 -250 L81 750 L141 750 Z " />
<glyph glyph-name="braceright" unicode="&#x7d;" horiz-adv-x="250" d="M44 -102 L79 -102 Q111 -102 122 -77.5 Q133 -53 133 -12 L133 169 Q133 200 138.5 221.5 Q144 243 153 256.5 Q162 270 173.5 277.5 Q185 285 196 287 L196 289 Q185 291 173.5 298.5 Q162 306 153 319.5 Q144 333 138.5 354.5 Q133 376 133 407 L133 588 Q133 629 122 653.5 Q111 678 79 678 L44 678 L44 732 L95 732 Q147 732 171 696 Q195 660 195 591 L195 416 Q195 356 210.5 336.5 Q226 317 250 317 L250 259 Q226 259 210.5 239.5 Q195 220 195 160 L195 -15 Q195 -84 171 -120 Q147 -156 95 -156 L44 -156 L44 -102 Z " />
<glyph glyph-name="asciitilde" unicode="&#x7e;" horiz-adv-x="666" d="M577 328 Q567 312 553.5 295.5 Q540 279 523 265.5 Q506 252 485.5 243.5 Q465 235 441 235 Q427 235 414.5 236.5 Q402 238 389 242 Q376 246 362 253 Q348 260 330 271 Q299 291 276 301 Q253 311 227 311 Q210 311 195 304 Q180 297 168 286.5 Q156 276 147 263 Q138 250 131 238 L89 278 Q100 294 113.5 310.5 Q127 327 143.5 340.5 Q160 354 180.5 362.5 Q201 371 225 371 Q253 371 278.5 363.5 Q304 356 335 336 Q364 317 389 306 Q414 295 438 295 Q455 295 470 302 Q485 309 497 320 Q509 331 518.5 344 Q528 357 535 368 L577 328 Z " />
<glyph glyph-name="uni00A0" unicode="&#xa0;" horiz-adv-x="185" d="" />
<glyph glyph-name="exclamdown" unicode="&#xa1;" horiz-adv-x="294" d="M180 294 L180 -203 L113 -203 L113 294 L180 294 Z M100 462 Q100 483 113.5 497.5 Q127 512 147 512 Q167 512 180 497.5 Q193 483 193 462 Q193 441 180 426.5 Q167 412 147 412 Q127 412 113.5 426.5 Q100 441 100 462 Z " />
<glyph glyph-name="cent" unicode="&#xa2;" horiz-adv-x="470" d="M389 49 Q372 23 343 7 Q314 -9 277 -10 L277 -72 L238 -72 L238 -10 Q197 -7 166 13 Q135 33 114.5 67 Q94 101 83.5 147 Q73 193 73 247 Q73 301 83.5 347 Q94 393 114.5 427.5 Q135 462 166 482.5 Q197 503 238 506 L238 573 L277 573 L277 506 Q315 505 343 492 Q371 479 388 461 L357 410 Q345 424 325 434.5 Q305 445 277 447 L277 47 Q306 48 326 61.5 Q346 75 360 95 L389 49 Z M239 447 Q211 444 191 427 Q171 410 158.5 382.5 Q146 355 140 320 Q134 285 134 247 Q134 209 140 174.5 Q146 140 158.5 113 Q171 86 191 69 Q211 52 239 49 L239 447 Z " />
<glyph glyph-name="sterling" unicode="&#xa3;" horiz-adv-x="470" d="M390 634 Q378 647 358.5 656 Q339 665 312 665 Q279 665 257 650.5 Q235 636 222 613 Q209 590 204 560 Q199 530 199 499 L199 394 L334 394 L334 342 L199 342 L199 61 L402 61 L402 0 L36 0 L36 61 L131 61 L131 342 L44 342 L44 394 L131 394 L131 507 Q131 549 141 589 Q151 629 173 659.5 Q195 690 228.5 708.5 Q262 727 310 727 Q351 727 380.5 713.5 Q410 700 427 684 L390 634 Z " />
<glyph glyph-name="currency" unicode="&#xa4;" horiz-adv-x="470" d="M385 431 Q402 402 412 366 Q422 330 422 285 Q422 240 411.5 201.5 Q401 163 382 134 L450 48 L419 8 L350 95 Q327 73 298 60.5 Q269 48 236 48 Q172 48 121 97 L51 8 L19 48 L89 137 Q51 193 51 285 Q51 370 86 429 L19 514 L51 553 L118 469 Q142 492 171.5 505.5 Q201 519 236 519 Q304 519 352 469 L419 553 L450 514 L385 431 Z M236 457 Q206 457 182.5 443.5 Q159 430 143 406.5 Q127 383 119 351.5 Q111 320 111 285 Q111 249 119 217.5 Q127 186 143 162 Q159 138 182.5 124.5 Q206 111 236 111 Q266 111 289.5 124.5 Q313 138 328.5 162 Q344 186 352.5 217.5 Q361 249 361 285 Q361 320 352.5 351.5 Q344 383 328.5 406.5 Q313 430 289.5 443.5 Q266 457 236 457 Z " />
<glyph glyph-name="yen" unicode="&#xa5;" horiz-adv-x="470" d="M295 384 L411 384 L411 336 L267 336 L267 225 L411 225 L411 177 L267 177 L267 0 L200 0 L200 177 L57 177 L57 225 L200 225 L200 336 L57 336 L57 385 L176 385 L26 708 L97 708 L236 385 L374 708 L443 708 L295 384 Z " />
<glyph glyph-name="brokenbar" unicode="&#xa6;" horiz-adv-x="222" d="M141 675 L141 325 L81 325 L81 675 L141 675 Z M141 175 L141 -175 L81 -175 L81 175 L141 175 Z " />
<glyph glyph-name="section" unicode="&#xa7;" horiz-adv-x="480" d="M356 282 Q356 305 348 321.5 Q340 338 326 350.5 Q312 363 293.5 373 Q275 383 254 393 L214 412 Q198 409 181.5 401.5 Q165 394 152 381 Q139 368 130.5 349.5 Q122 331 122 307 Q122 282 129.5 265 Q137 248 150.5 235.5 Q164 223 181 214 Q198 205 218 197 L263 179 Q280 181 296.5 188.5 Q313 196 326.5 208.5 Q340 221 348 239.5 Q356 258 356 282 Z M185 148 Q154 161 130.5 175 Q107 189 91.5 207 Q76 225 68 248.5 Q60 272 60 304 Q60 333 70 356 Q80 379 95 396 Q110 413 129 424 Q148 435 166 441 Q128 462 105.5 490 Q83 518 83 570 Q83 606 96.5 635 Q110 664 133.5 685 Q157 706 189 717 Q221 728 258 728 Q361 728 408 658 L366 618 Q350 644 321 658 Q292 672 257 672 Q237 672 217.5 666 Q198 660 182.5 647 Q167 634 157.5 614.5 Q148 595 148 568 Q148 545 156.5 529 Q165 513 179 501 Q193 489 212.5 478.5 Q232 468 254 458 L284 444 Q346 415 381 379.5 Q416 344 416 286 Q416 256 407 233 Q398 210 383 193 Q368 176 348.5 165.5 Q329 155 309 150 Q347 130 370.5 99 Q394 68 394 23 Q394 -19 379 -49.5 Q364 -80 339 -100 Q314 -120 282.5 -129.5 Q251 -139 218 -139 Q167 -139 122 -119.5 Q77 -100 48 -65 L88 -19 Q112 -49 146 -65.5 Q180 -82 218 -82 Q263 -82 296 -57 Q329 -32 329 19 Q329 64 298.5 88.5 Q268 113 220 133 L185 148 Z " />
<glyph glyph-name="dieresis" unicode="&#xa8;" horiz-adv-x="225" d="M226 648 Q226 628 214 615.5 Q202 603 184 603 Q167 603 154.5 615.5 Q142 628 142 648 Q142 667 154.5 680 Q167 693 184 693 Q202 693 214 680 Q226 667 226 648 Z M83 648 Q83 628 70.5 615.5 Q58 603 41 603 Q22 603 10.5 615.5 Q-1 628 -1 648 Q-1 667 10.5 680 Q22 693 41 693 Q58 693 70.5 680 Q83 667 83 648 Z " />
<glyph glyph-name="copyright" unicode="&#xa9;" horiz-adv-x="640" d="M435 190 Q418 163 392 146.5 Q366 130 331 130 Q295 130 267 146.5 Q239 163 219 193 Q199 223 188.5 264.5 Q178 306 178 357 Q178 408 188.5 450 Q199 492 218.5 521.5 Q238 551 266 567.5 Q294 584 330 584 Q365 584 391.5 569.5 Q418 555 434 529 L394 484 Q374 523 328 523 Q307 523 291.5 510.5 Q276 498 265.5 475.5 Q255 453 250 422.5 Q245 392 245 357 Q245 322 250 292.5 Q255 263 265.5 240.5 Q276 218 291.5 205.5 Q307 193 328 193 Q351 193 367 204 Q383 215 394 235 L435 190 Z M320 -20 Q257 -20 204.5 6 Q152 32 114.5 81 Q77 130 56.5 199.5 Q36 269 36 355 Q36 441 56.5 510.5 Q77 580 114.5 628.5 Q152 677 204.5 703.5 Q257 730 320 730 Q383 730 435 703.5 Q487 677 524.5 628.5 Q562 580 583 510.5 Q604 441 604 355 Q604 269 583 199.5 Q562 130 524.5 81 Q487 32 435 6 Q383 -20 320 -20 Z M320 686 Q266 686 223 661 Q180 636 150 592 Q120 548 104 487.5 Q88 427 88 355 Q88 283 104 222.5 Q120 162 150 118 Q180 74 223 49 Q266 24 320 24 Q374 24 417 49 Q460 74 490 118 Q520 162 536 222.5 Q552 283 552 355 Q552 427 536 487.5 Q520 548 490 592 Q460 636 417 661 Q374 686 320 686 Z " />
<glyph glyph-name="ordfeminine" unicode="&#xaa;" horiz-adv-x="300" d="M201 411 Q199 422 198 436 Q197 450 197 460 L196 460 Q189 433 172 417.5 Q155 402 125 402 Q113 402 100 407 Q87 412 76.5 422.5 Q66 433 59 450 Q52 467 52 491 Q52 523 63.5 543.5 Q75 564 93 576 Q111 588 132 592.5 Q153 597 173 597 L193 597 L193 610 Q193 645 179.5 661 Q166 677 143 677 Q126 677 112 669 Q98 661 88 647 L62 678 Q77 698 101 709.5 Q125 721 148 721 Q200 721 219.5 688 Q239 655 239 595 L239 473 Q239 462 239.5 444.5 Q240 427 242 411 L201 411 Z M194 558 L172 558 Q158 558 145.5 555.5 Q133 553 122.5 546 Q112 539 106 527.5 Q100 516 100 497 Q100 470 111.5 457 Q123 444 139 444 Q154 444 164.5 453.5 Q175 463 181.5 477 Q188 491 191 508.5 Q194 526 194 541 L194 558 Z " />
<glyph glyph-name="guillemotleft" unicode="&#xab;" horiz-adv-x="348" d="M135 462 L180 437 L92 249 L180 61 L135 36 L34 249 L135 462 Z M269 462 L314 437 L226 249 L314 61 L269 36 L168 249 L269 462 Z " />
<glyph glyph-name="logicalnot" unicode="&#xac;" horiz-adv-x="666" d="M588 130 L528 130 L528 348 L78 348 L78 408 L588 408 L588 130 Z " />
<glyph glyph-name="uni00AD" unicode="&#xad;" horiz-adv-x="226" d="M38 235 L38 291 L188 291 L188 235 L38 235 Z " />
<glyph glyph-name="registered" unicode="&#xae;" horiz-adv-x="480" d="M283 372 L245 478 L213 478 L213 372 L173 372 L173 627 L247 627 Q277 627 298.5 609.5 Q320 592 320 552 Q320 525 309 509 Q298 493 283 486 L327 372 L283 372 Z M278 550 Q278 571 267.5 580.5 Q257 590 241 590 L213 590 L213 507 L241 507 Q257 507 267.5 517.5 Q278 528 278 550 Z M240 274 Q202 274 171 289.5 Q140 305 117.5 334.5 Q95 364 82.5 405.5 Q70 447 70 499 Q70 551 82.5 592.5 Q95 634 117.5 663 Q140 692 171 708 Q202 724 240 724 Q278 724 309 708 Q340 692 362.5 663 Q385 634 397.5 592.5 Q410 551 410 499 Q410 447 397.5 405.5 Q385 364 362.5 334.5 Q340 305 309 289.5 Q278 274 240 274 Z M240 698 Q208 698 182 683 Q156 668 138 641.5 Q120 615 110.5 578.5 Q101 542 101 499 Q101 456 110.5 419.5 Q120 383 138 356.5 Q156 330 182 315 Q208 300 240 300 Q272 300 298 315 Q324 330 342 356.5 Q360 383 369.5 419.5 Q379 456 379 499 Q379 542 369.5 578.5 Q360 615 342 641.5 Q324 668 298 683 Q272 698 240 698 Z " />
<glyph glyph-name="overscore" unicode="&#xaf;" horiz-adv-x="225" d="M-12 614 L-12 666 L237 666 L237 614 L-12 614 Z " />
<glyph glyph-name="degree" unicode="&#xb0;" horiz-adv-x="320" d="M278 566 Q278 536 270 507 Q262 478 247 456 Q232 434 210 420.5 Q188 407 160 407 Q131 407 109 420.5 Q87 434 72 456 Q57 478 49 507 Q41 536 41 566 Q41 597 49 625 Q57 653 72 675 Q87 697 109 710 Q131 723 160 723 Q188 723 210 710 Q232 697 247 675 Q262 653 270 625 Q278 597 278 566 Z M235 566 Q235 590 229.5 611.5 Q224 633 214 648.5 Q204 664 190 673 Q176 682 160 682 Q127 682 106 648.5 Q85 615 85 566 Q85 515 106 481.5 Q127 448 160 448 Q192 448 213.5 481.5 Q235 515 235 566 Z " />
<glyph glyph-name="plusminus" unicode="&#xb1;" horiz-adv-x="666" d="M78 407 L303 407 L303 563 L363 563 L363 407 L588 407 L588 347 L363 347 L363 196 L303 196 L303 347 L78 347 L78 407 Z M78 108 L588 108 L588 48 L78 48 L78 108 Z " />
<glyph glyph-name="twosuperior" unicode="&#xb2;" horiz-adv-x="314" d="M280 600 Q280 559 259.5 525.5 Q239 492 210 454 L112 328 L273 328 L273 275 L43 275 L43 330 L170 495 Q192 523 204 547.5 Q216 572 216 597 Q216 626 202.5 647 Q189 668 160 668 Q136 668 119.5 651.5 Q103 635 99 603 L38 609 Q47 664 80 692 Q113 720 164 720 Q221 720 250.5 685.5 Q280 651 280 600 Z " />
<glyph glyph-name="threesuperior" unicode="&#xb3;" horiz-adv-x="314" d="M291 399 Q291 372 282 348.5 Q273 325 256.5 307 Q240 289 216 279 Q192 269 163 269 Q115 269 82 292.5 Q49 316 36 361 L91 375 Q99 352 116 336.5 Q133 321 161 321 Q179 321 192 328.5 Q205 336 213.5 347.5 Q222 359 226 373 Q230 387 230 401 Q230 440 207.5 459.5 Q185 479 149 479 L133 479 L133 527 L150 527 Q182 527 201 546.5 Q220 566 220 601 Q220 625 206 647.5 Q192 670 161 670 Q141 670 127 658.5 Q113 647 105 628 L50 644 Q65 685 97 703.5 Q129 722 164 722 Q215 722 247 691 Q279 660 279 609 Q279 572 261.5 542.5 Q244 513 212 505 L212 504 Q247 496 269 468.5 Q291 441 291 399 Z " />
<glyph glyph-name="acute" unicode="&#xb4;" horiz-adv-x="225" d="M119 569 L63 569 L153 713 L225 713 L119 569 Z " />
<glyph glyph-name="mu" unicode="&#xb5;" horiz-adv-x="556" d="M72 468 L138 468 L138 209 Q138 123 165.5 85.5 Q193 48 265 48 Q295 48 321 60 Q347 72 366 95 Q385 118 396 151.5 Q407 185 407 228 L407 468 L473 468 L473 103 Q473 77 474.5 51.5 Q476 26 478 0 L407 0 L407 76 L405 76 Q394 58 377 42 Q360 26 339 14 Q318 2 294.5 -5 Q271 -12 248 -12 Q179 -12 138 17 L138 -228 L72 -228 L72 468 Z " />
<glyph glyph-name="paragraph" unicode="&#xb6;" horiz-adv-x="600" d="M513 -126 L447 -126 L447 654 L323 654 L323 -126 L257 -126 L257 316 Q211 316 172.5 330.5 Q134 345 106.5 370 Q79 395 63.5 429 Q48 463 48 502 Q48 600 109 654 Q170 708 276 708 L513 708 L513 -126 Z " />
<glyph glyph-name="middot" unicode="&#xb7;" horiz-adv-x="217" d="M155 260 Q155 238 141.5 224 Q128 210 108 210 Q88 210 75 224 Q62 238 62 260 Q62 280 75 295 Q88 310 108 310 Q128 310 141.5 295 Q155 280 155 260 Z " />
<glyph glyph-name="cedilla" unicode="&#xb8;" horiz-adv-x="225" d="M102 -75 Q114 -71 134 -71 Q161 -71 185 -88 Q209 -105 209 -141 Q209 -166 199 -183 Q189 -200 173.5 -210 Q158 -220 138.5 -224 Q119 -228 101 -228 Q82 -228 58.5 -224 Q35 -220 15 -210 L30 -174 Q45 -182 62 -185 Q79 -188 96 -188 Q103 -188 113 -186 Q123 -184 132 -178.5 Q141 -173 147.5 -164.5 Q154 -156 154 -144 Q154 -124 141 -114.5 Q128 -105 105 -105 Q84 -105 65 -113 L49 -98 L106 0 L145 0 L102 -75 Z " />
<glyph glyph-name="onesuperior" unicode="&#xb9;" horiz-adv-x="314" d="M157 274 L157 642 L72 585 L43 630 L161 708 L217 708 L217 274 L157 274 Z " />
<glyph glyph-name="ordmasculine" unicode="&#xba;" horiz-adv-x="300" d="M261 561 Q261 489 231.5 445 Q202 401 151 401 Q100 401 71.5 445 Q43 489 43 561 Q43 633 71.5 677.5 Q100 722 151 722 Q202 722 231.5 677.5 Q261 633 261 561 Z M208 562 Q208 611 194 644 Q180 677 151 677 Q122 677 108.5 644 Q95 611 95 562 Q95 512 108.5 479 Q122 446 151 446 Q181 446 194.5 479 Q208 512 208 562 Z " />
<glyph glyph-name="guillemotright" unicode="&#xbb;" horiz-adv-x="348" d="M213 36 L168 61 L256 249 L168 437 L213 462 L314 249 L213 36 Z M79 36 L34 61 L122 249 L34 437 L79 462 L180 249 L79 36 Z " />
<glyph glyph-name="onequarter" unicode="&#xbc;" horiz-adv-x="728" d="M625 98 L625 0 L569 0 L569 98 L406 98 L406 152 L545 434 L625 434 L625 149 L677 149 L677 98 L625 98 Z M570 377 L569 377 L462 149 L570 149 L570 377 Z M253 -23 L204 -8 L482 737 L530 722 L253 -23 Z M157 274 L157 642 L72 585 L43 630 L161 708 L217 708 L217 274 L157 274 Z " />
<glyph glyph-name="onehalf" unicode="&#xbd;" horiz-adv-x="728" d="M689 326 Q689 285 668.5 251.5 Q648 218 619 179 L519 49 L682 49 L682 0 L456 0 L456 51 L582 217 Q605 246 617 271.5 Q629 297 629 323 Q629 353 615 374.5 Q601 396 571 396 Q546 396 529.5 379 Q513 362 508 330 L452 336 Q461 390 493.5 417 Q526 444 575 444 Q631 444 660 410 Q689 376 689 326 Z M253 -23 L204 -8 L482 737 L530 722 L253 -23 Z M157 274 L157 642 L72 585 L43 630 L161 708 L217 708 L217 274 L157 274 Z " />
<glyph glyph-name="threequarters" unicode="&#xbe;" horiz-adv-x="728" d="M625 98 L625 0 L569 0 L569 98 L406 98 L406 152 L545 434 L625 434 L625 149 L677 149 L677 98 L625 98 Z M570 377 L569 377 L462 149 L570 149 L570 377 Z M291 399 Q291 372 282 348.5 Q273 325 256.5 307 Q240 289 216 279 Q192 269 163 269 Q115 269 82 292.5 Q49 316 36 361 L91 375 Q99 352 116 336.5 Q133 321 161 321 Q179 321 192 328.5 Q205 336 213.5 347.5 Q222 359 226 373 Q230 387 230 401 Q230 440 207.5 459.5 Q185 479 149 479 L133 479 L133 527 L150 527 Q182 527 201 546.5 Q220 566 220 601 Q220 625 206 647.5 Q192 670 161 670 Q141 670 127 658.5 Q113 647 105 628 L50 644 Q65 685 97 703.5 Q129 722 164 722 Q215 722 247 691 Q279 660 279 609 Q279 572 261.5 542.5 Q244 513 212 505 L212 504 Q247 496 269 468.5 Q291 441 291 399 Z M253 -23 L204 -8 L482 737 L530 722 L253 -23 Z " />
<glyph glyph-name="questiondown" unicode="&#xbf;" horiz-adv-x="368" d="M19 -48 Q19 -17 25.5 7.5 Q32 32 43.5 51.5 Q55 71 69.5 88 Q84 105 100 121 Q117 139 128 154.5 Q139 170 145 185 Q151 200 153.5 216.5 Q156 233 156 253 L156 292 L214 292 L214 243 Q214 203 200.5 168 Q187 133 155 97 L133 71 Q113 48 99 23 Q85 -2 85 -42 Q85 -98 108.5 -129 Q132 -160 176 -160 Q198 -160 215.5 -150.5 Q233 -141 246 -125 Q259 -109 267 -88.5 Q275 -68 278 -46 L336 -57 Q325 -129 283 -174 Q241 -219 169 -219 Q100 -219 59.5 -174.5 Q19 -130 19 -48 Z M133 462 Q133 483 146 497.5 Q159 512 179 512 Q199 512 212.5 497.5 Q226 483 226 462 Q226 441 212.5 426.5 Q199 412 179 412 Q160 412 146.5 426.5 Q133 441 133 462 Z " />
<glyph glyph-name="Agrave" unicode="&#xc0;" horiz-adv-x="464" d="M384 0 L341 177 L123 177 L78 0 L7 0 L187 708 L282 708 L457 0 L384 0 Z M235 645 L231 645 L133 233 L331 233 L235 645 Z M218 764 L112 908 L184 908 L274 764 L218 764 Z " />
<glyph glyph-name="Aacute" unicode="&#xc1;" horiz-adv-x="464" d="M384 0 L341 177 L123 177 L78 0 L7 0 L187 708 L282 708 L457 0 L384 0 Z M235 645 L231 645 L133 233 L331 233 L235 645 Z M257 764 L201 764 L291 908 L363 908 L257 764 Z " />
<glyph glyph-name="Acircumflex" unicode="&#xc2;" horiz-adv-x="464" d="M384 0 L341 177 L123 177 L78 0 L7 0 L187 708 L282 708 L457 0 L384 0 Z M235 645 L231 645 L133 233 L331 233 L235 645 Z M306 764 L234 869 L162 764 L97 764 L200 908 L270 908 L372 764 L306 764 Z " />
<glyph glyph-name="Atilde" unicode="&#xc3;" horiz-adv-x="464" d="M384 0 L341 177 L123 177 L78 0 L7 0 L187 708 L282 708 L457 0 L384 0 Z M235 645 L231 645 L133 233 L331 233 L235 645 Z M364 880 Q361 831 342.5 806.5 Q324 782 295 782 Q279 782 265.5 787 Q252 792 232 806 Q209 821 199.5 825.5 Q190 830 179 830 Q163 830 156 817 Q149 804 145 781 L108 781 Q111 826 129 854 Q147 882 177 882 Q195 882 207.5 876.5 Q220 871 240 858 Q263 843 273 838.5 Q283 834 294 834 Q310 834 316.5 844.5 Q323 855 327 880 L364 880 Z " />
<glyph glyph-name="Adieresis" unicode="&#xc4;" horiz-adv-x="464" d="M384 0 L341 177 L123 177 L78 0 L7 0 L187 708 L282 708 L457 0 L384 0 Z M235 645 L231 645 L133 233 L331 233 L235 645 Z M207 843 Q207 823 194.5 810.5 Q182 798 165 798 Q146 798 134.5 810.5 Q123 823 123 843 Q123 862 134.5 875 Q146 888 165 888 Q182 888 194.5 875 Q207 862 207 843 Z M350 843 Q350 823 338 810.5 Q326 798 308 798 Q291 798 278.5 810.5 Q266 823 266 843 Q266 862 278.5 875 Q291 888 308 888 Q326 888 338 875 Q350 862 350 843 Z " />
<glyph glyph-name="Aring" unicode="&#xc5;" horiz-adv-x="464" d="M384 0 L341 177 L123 177 L78 0 L7 0 L187 708 L282 708 L457 0 L384 0 Z M235 645 L231 645 L133 233 L331 233 L235 645 Z M329 851 Q329 808 302.5 779 Q276 750 235 750 Q195 750 169 779 Q143 808 143 851 Q143 895 169 924 Q195 953 235 953 Q276 953 302.5 924 Q329 895 329 851 Z M291 851 Q291 878 276.5 898 Q262 918 235 918 Q209 918 194.5 898 Q180 878 180 851 Q180 825 194.5 805 Q209 785 235 785 Q262 785 276.5 805 Q291 825 291 851 Z " />
<glyph glyph-name="AE" unicode="&#xc6;" horiz-adv-x="628" d="M306 0 L306 174 L129 174 L67 0 L-7 0 L253 708 L577 708 L577 646 L371 646 L371 397 L562 397 L562 338 L371 338 L371 63 L585 63 L585 0 L306 0 Z M306 647 L297 647 L148 231 L306 231 L306 647 Z " />
<glyph glyph-name="Ccedilla" unicode="&#xc7;" horiz-adv-x="479" d="M461 80 Q433 33 390 8 Q347 -17 293 -17 L260 -75 Q272 -71 292 -71 Q319 -71 343 -88 Q367 -105 367 -141 Q367 -166 357 -183 Q347 -200 331.5 -210 Q316 -220 296.5 -224 Q277 -228 259 -228 Q240 -228 216.5 -224 Q193 -220 173 -210 L188 -174 Q203 -182 220 -185 Q237 -188 254 -188 Q261 -188 271 -186 Q281 -184 290 -178.5 Q299 -173 305.5 -164.5 Q312 -156 312 -144 Q312 -124 299 -114.5 Q286 -105 263 -105 Q242 -105 223 -113 L207 -98 L256 -14 Q207 -5 168.5 26 Q130 57 104 106 Q78 155 64 218 Q50 281 50 354 Q50 434 66.5 502 Q83 570 114.5 619.5 Q146 669 191 697 Q236 725 293 725 Q343 725 386.5 704 Q430 683 459 638 L414 592 Q391 627 360.5 644 Q330 661 296 661 Q252 661 219.5 637 Q187 613 165.5 571 Q144 529 133.5 473 Q123 417 123 354 Q123 291 134 235.5 Q145 180 166.5 138 Q188 96 220.5 71.5 Q253 47 297 47 Q335 47 366 68.5 Q397 90 417 125 L461 80 L461 80 Z " />
<glyph glyph-name="Egrave" unicode="&#xc8;" horiz-adv-x="418" d="M81 0 L81 708 L366 708 L366 646 L149 646 L149 397 L352 397 L352 338 L149 338 L149 63 L376 63 L376 0 L81 0 Z M224 764 L118 908 L190 908 L280 764 L224 764 Z " />
<glyph glyph-name="Eacute" unicode="&#xc9;" horiz-adv-x="418" d="M81 0 L81 708 L366 708 L366 646 L149 646 L149 397 L352 397 L352 338 L149 338 L149 63 L376 63 L376 0 L81 0 Z M232 764 L176 764 L266 908 L338 908 L232 764 Z " />
<glyph glyph-name="Ecircumflex" unicode="&#xca;" horiz-adv-x="418" d="M81 0 L81 708 L366 708 L366 646 L149 646 L149 397 L352 397 L352 338 L149 338 L149 63 L376 63 L376 0 L81 0 Z M295 764 L223 869 L151 764 L86 764 L189 908 L259 908 L361 764 L295 764 Z " />
<glyph glyph-name="Edieresis" unicode="&#xcb;" horiz-adv-x="418" d="M81 0 L81 708 L366 708 L366 646 L149 646 L149 397 L352 397 L352 338 L149 338 L149 63 L376 63 L376 0 L81 0 Z M194 843 Q194 823 181.5 810.5 Q169 798 152 798 Q133 798 121.5 810.5 Q110 823 110 843 Q110 862 121.5 875 Q133 888 152 888 Q169 888 181.5 875 Q194 862 194 843 Z M337 843 Q337 823 325 810.5 Q313 798 295 798 Q278 798 265.5 810.5 Q253 823 253 843 Q253 862 265.5 875 Q278 888 295 888 Q313 888 325 875 Q337 862 337 843 Z " />
<glyph glyph-name="Igrave" unicode="&#xcc;" horiz-adv-x="232" d="M81 0 L81 708 L151 708 L151 0 L81 0 Z M94 764 L-12 908 L60 908 L150 764 L94 764 Z " />
<glyph glyph-name="Iacute" unicode="&#xcd;" horiz-adv-x="232" d="M81 0 L81 708 L151 708 L151 0 L81 0 Z M139 764 L83 764 L173 908 L245 908 L139 764 Z " />
<glyph glyph-name="Icircumflex" unicode="&#xce;" horiz-adv-x="232" d="M81 0 L81 708 L151 708 L151 0 L81 0 Z M188 764 L116 869 L44 764 L-21 764 L82 908 L152 908 L254 764 L188 764 Z " />
<glyph glyph-name="Idieresis" unicode="&#xcf;" horiz-adv-x="232" d="M81 0 L81 708 L151 708 L151 0 L81 0 Z M88 843 Q88 823 75.5 810.5 Q63 798 46 798 Q27 798 15.5 810.5 Q4 823 4 843 Q4 862 15.5 875 Q27 888 46 888 Q63 888 75.5 875 Q88 862 88 843 Z M231 843 Q231 823 219 810.5 Q207 798 189 798 Q172 798 159.5 810.5 Q147 823 147 843 Q147 862 159.5 875 Q172 888 189 888 Q207 888 219 875 Q231 862 231 843 Z " />
<glyph glyph-name="Eth" unicode="&#xd0;" horiz-adv-x="540" d="M488 354 Q488 267 469.5 200.5 Q451 134 417.5 89.5 Q384 45 336.5 22.5 Q289 0 231 0 L81 0 L81 341 L19 341 L19 390 L81 390 L81 708 L231 708 Q289 708 336.5 685.5 Q384 663 418 618 Q452 573 470 507 Q488 441 488 354 Z M422 354 Q422 429 407 484.5 Q392 540 366 576 Q340 612 305 630 Q270 648 229 648 L149 648 L149 390 L291 390 L291 341 L149 341 L149 60 L229 60 Q270 60 305 78 Q340 96 366 132.5 Q392 169 407 224 Q422 279 422 354 Z " />
<glyph glyph-name="Ntilde" unicode="&#xd1;" horiz-adv-x="561" d="M396 0 L149 589 L146 589 L146 0 L81 0 L81 708 L168 708 L413 119 L416 119 L416 708 L480 708 L480 0 L396 0 Z M409 880 Q406 831 387.5 806.5 Q369 782 340 782 Q324 782 310.5 787 Q297 792 277 806 Q254 821 244.5 825.5 Q235 830 224 830 Q208 830 201 817 Q194 804 190 781 L153 781 Q156 826 174 854 Q192 882 222 882 Q240 882 252.5 876.5 Q265 871 285 858 Q308 843 318 838.5 Q328 834 339 834 Q355 834 361.5 844.5 Q368 855 372 880 L409 880 Z " />
<glyph glyph-name="Ograve" unicode="&#xd2;" horiz-adv-x="570" d="M519 355 Q519 272 503 203.5 Q487 135 457 86 Q427 37 384 10 Q341 -17 286 -17 Q231 -17 187.5 10 Q144 37 113.5 86 Q83 135 67 203.5 Q51 272 51 355 Q51 437 66.5 505.5 Q82 574 112 622.5 Q142 671 185.5 698 Q229 725 286 725 Q341 725 384 698 Q427 671 457 622.5 Q487 574 503 505.5 Q519 437 519 355 Z M446 355 Q446 419 436 475 Q426 531 405.5 572 Q385 613 355 637 Q325 661 286 661 Q245 661 214.5 637 Q184 613 164 572 Q144 531 134 475 Q124 419 124 355 Q124 291 134 235 Q144 179 164 137 Q184 95 214.5 71 Q245 47 286 47 Q326 47 356 71 Q386 95 406 137 Q426 179 436 235 Q446 291 446 355 Z M290 764 L184 908 L256 908 L346 764 L290 764 Z " />
<glyph glyph-name="Oacute" unicode="&#xd3;" horiz-adv-x="570" d="M519 355 Q519 272 503 203.5 Q487 135 457 86 Q427 37 384 10 Q341 -17 286 -17 Q231 -17 187.5 10 Q144 37 113.5 86 Q83 135 67 203.5 Q51 272 51 355 Q51 437 66.5 505.5 Q82 574 112 622.5 Q142 671 185.5 698 Q229 725 286 725 Q341 725 384 698 Q427 671 457 622.5 Q487 574 503 505.5 Q519 437 519 355 Z M446 355 Q446 419 436 475 Q426 531 405.5 572 Q385 613 355 637 Q325 661 286 661 Q245 661 214.5 637 Q184 613 164 572 Q144 531 134 475 Q124 419 124 355 Q124 291 134 235 Q144 179 164 137 Q184 95 214.5 71 Q245 47 286 47 Q326 47 356 71 Q386 95 406 137 Q426 179 436 235 Q446 291 446 355 Z M284 764 L228 764 L318 908 L390 908 L284 764 Z " />
<glyph glyph-name="Ocircumflex" unicode="&#xd4;" horiz-adv-x="570" d="M519 355 Q519 272 503 203.5 Q487 135 457 86 Q427 37 384 10 Q341 -17 286 -17 Q231 -17 187.5 10 Q144 37 113.5 86 Q83 135 67 203.5 Q51 272 51 355 Q51 437 66.5 505.5 Q82 574 112 622.5 Q142 671 185.5 698 Q229 725 286 725 Q341 725 384 698 Q427 671 457 622.5 Q487 574 503 505.5 Q519 437 519 355 Z M446 355 Q446 419 436 475 Q426 531 405.5 572 Q385 613 355 637 Q325 661 286 661 Q245 661 214.5 637 Q184 613 164 572 Q144 531 134 475 Q124 419 124 355 Q124 291 134 235 Q144 179 164 137 Q184 95 214.5 71 Q245 47 286 47 Q326 47 356 71 Q386 95 406 137 Q426 179 436 235 Q446 291 446 355 Z M357 764 L285 869 L213 764 L148 764 L251 908 L321 908 L423 764 L357 764 Z " />
<glyph glyph-name="Otilde" unicode="&#xd5;" horiz-adv-x="570" d="M519 355 Q519 272 503 203.5 Q487 135 457 86 Q427 37 384 10 Q341 -17 286 -17 Q231 -17 187.5 10 Q144 37 113.5 86 Q83 135 67 203.5 Q51 272 51 355 Q51 437 66.5 505.5 Q82 574 112 622.5 Q142 671 185.5 698 Q229 725 286 725 Q341 725 384 698 Q427 671 457 622.5 Q487 574 503 505.5 Q519 437 519 355 Z M446 355 Q446 419 436 475 Q426 531 405.5 572 Q385 613 355 637 Q325 661 286 661 Q245 661 214.5 637 Q184 613 164 572 Q144 531 134 475 Q124 419 124 355 Q124 291 134 235 Q144 179 164 137 Q184 95 214.5 71 Q245 47 286 47 Q326 47 356 71 Q386 95 406 137 Q426 179 436 235 Q446 291 446 355 Z M413 880 Q410 831 391.5 806.5 Q373 782 344 782 Q328 782 314.5 787 Q301 792 281 806 Q258 821 248.5 825.5 Q239 830 228 830 Q212 830 205 817 Q198 804 194 781 L157 781 Q160 826 178 854 Q196 882 226 882 Q244 882 256.5 876.5 Q269 871 289 858 Q312 843 322 838.5 Q332 834 343 834 Q359 834 365.5 844.5 Q372 855 376 880 L413 880 Z " />
<glyph glyph-name="Odieresis" unicode="&#xd6;" horiz-adv-x="570" d="M519 355 Q519 272 503 203.5 Q487 135 457 86 Q427 37 384 10 Q341 -17 286 -17 Q231 -17 187.5 10 Q144 37 113.5 86 Q83 135 67 203.5 Q51 272 51 355 Q51 437 66.5 505.5 Q82 574 112 622.5 Q142 671 185.5 698 Q229 725 286 725 Q341 725 384 698 Q427 671 457 622.5 Q487 574 503 505.5 Q519 437 519 355 Z M446 355 Q446 419 436 475 Q426 531 405.5 572 Q385 613 355 637 Q325 661 286 661 Q245 661 214.5 637 Q184 613 164 572 Q144 531 134 475 Q124 419 124 355 Q124 291 134 235 Q144 179 164 137 Q184 95 214.5 71 Q245 47 286 47 Q326 47 356 71 Q386 95 406 137 Q426 179 436 235 Q446 291 446 355 Z M256 843 Q256 823 243.5 810.5 Q231 798 214 798 Q195 798 183.5 810.5 Q172 823 172 843 Q172 862 183.5 875 Q195 888 214 888 Q231 888 243.5 875 Q256 862 256 843 Z M399 843 Q399 823 387 810.5 Q375 798 357 798 Q340 798 327.5 810.5 Q315 823 315 843 Q315 862 327.5 875 Q340 888 357 888 Q375 888 387 875 Q399 862 399 843 Z " />
<glyph glyph-name="multiply" unicode="&#xd7;" horiz-adv-x="666" d="M333 346 L491 505 L534 463 L375 303 L534 144 L491 101 L333 260 L174 101 L132 144 L291 303 L132 463 L174 505 L333 346 Z " />
<glyph glyph-name="Oslash" unicode="&#xd8;" horiz-adv-x="569" d="M452 630 Q484 580 501.5 510.5 Q519 441 519 355 Q519 272 503 203.5 Q487 135 457 86 Q427 37 384 10 Q341 -17 286 -17 Q204 -17 147 42 L110 -33 L66 -12 L116 82 Q84 131 67.5 200.5 Q51 270 51 355 Q51 437 66.5 505.5 Q82 574 112 622.5 Q142 671 185.5 698 Q229 725 286 725 Q366 725 421 668 L455 740 L497 719 L452 630 Z M446 355 Q446 414 437.5 465.5 Q429 517 412 558 L182 106 Q202 78 227.5 62.5 Q253 47 286 47 Q326 47 356 71 Q386 95 406 137 Q426 179 436 235 Q446 291 446 355 Z M124 355 Q124 295 132.5 243 Q141 191 158 149 L386 604 Q367 631 342 646 Q317 661 286 661 Q245 661 214.5 637 Q184 613 164 572 Q144 531 134 475 Q124 419 124 355 Z " />
<glyph glyph-name="Ugrave" unicode="&#xd9;" horiz-adv-x="550" d="M477 248 Q477 193 466.5 144.5 Q456 96 432.5 60 Q409 24 370 3.5 Q331 -17 274 -17 Q217 -17 178.5 3.5 Q140 24 116.5 60 Q93 96 83 144.5 Q73 193 73 248 L73 708 L143 708 L143 257 Q143 218 148.5 180 Q154 142 168.5 112.5 Q183 83 208.5 65 Q234 47 275 47 Q315 47 341 65 Q367 83 381.5 112.5 Q396 142 401.5 179.5 Q407 217 407 257 L407 708 L477 708 L477 248 Z M270 764 L164 908 L236 908 L326 764 L270 764 Z " />
<glyph glyph-name="Uacute" unicode="&#xda;" horiz-adv-x="550" d="M477 248 Q477 193 466.5 144.5 Q456 96 432.5 60 Q409 24 370 3.5 Q331 -17 274 -17 Q217 -17 178.5 3.5 Q140 24 116.5 60 Q93 96 83 144.5 Q73 193 73 248 L73 708 L143 708 L143 257 Q143 218 148.5 180 Q154 142 168.5 112.5 Q183 83 208.5 65 Q234 47 275 47 Q315 47 341 65 Q367 83 381.5 112.5 Q396 142 401.5 179.5 Q407 217 407 257 L407 708 L477 708 L477 248 Z M281 764 L225 764 L315 908 L387 908 L281 764 Z " />
<glyph glyph-name="Ucircumflex" unicode="&#xdb;" horiz-adv-x="550" d="M477 248 Q477 193 466.5 144.5 Q456 96 432.5 60 Q409 24 370 3.5 Q331 -17 274 -17 Q217 -17 178.5 3.5 Q140 24 116.5 60 Q93 96 83 144.5 Q73 193 73 248 L73 708 L143 708 L143 257 Q143 218 148.5 180 Q154 142 168.5 112.5 Q183 83 208.5 65 Q234 47 275 47 Q315 47 341 65 Q367 83 381.5 112.5 Q396 142 401.5 179.5 Q407 217 407 257 L407 708 L477 708 L477 248 Z M347 764 L275 869 L203 764 L138 764 L241 908 L311 908 L413 764 L347 764 Z " />
<glyph glyph-name="Udieresis" unicode="&#xdc;" horiz-adv-x="550" d="M477 248 Q477 193 466.5 144.5 Q456 96 432.5 60 Q409 24 370 3.5 Q331 -17 274 -17 Q217 -17 178.5 3.5 Q140 24 116.5 60 Q93 96 83 144.5 Q73 193 73 248 L73 708 L143 708 L143 257 Q143 218 148.5 180 Q154 142 168.5 112.5 Q183 83 208.5 65 Q234 47 275 47 Q315 47 341 65 Q367 83 381.5 112.5 Q396 142 401.5 179.5 Q407 217 407 257 L407 708 L477 708 L477 248 Z M247 843 Q247 823 234.5 810.5 Q222 798 205 798 Q186 798 174.5 810.5 Q163 823 163 843 Q163 862 174.5 875 Q186 888 205 888 Q222 888 234.5 875 Q247 862 247 843 Z M390 843 Q390 823 378 810.5 Q366 798 348 798 Q331 798 318.5 810.5 Q306 823 306 843 Q306 862 318.5 875 Q331 888 348 888 Q366 888 378 875 Q390 862 390 843 Z " />
<glyph glyph-name="Yacute" unicode="&#xdd;" horiz-adv-x="422" d="M244 291 L244 0 L176 0 L176 291 L0 708 L76 708 L210 363 L347 708 L422 708 L244 291 Z M223 764 L167 764 L257 908 L329 908 L223 764 Z " />
<glyph glyph-name="Thorn" unicode="&#xde;" horiz-adv-x="486" d="M94 708 L163 708 L163 553 L232 553 Q329 553 383.5 506.5 Q438 460 438 364 Q438 268 382.5 221 Q327 174 230 174 L163 174 L163 0 L94 0 L94 708 Z M163 234 L221 234 Q296 234 332 267.5 Q368 301 368 364 Q368 492 221 492 L163 492 L163 234 Z " />
<glyph glyph-name="germandbls" unicode="&#xdf;" horiz-adv-x="452" d="M409 215 Q409 170 399.5 129.5 Q390 89 369 59 Q348 29 315 11 Q282 -7 235 -7 Q224 -7 210.5 -5.5 Q197 -4 187 -2 L187 54 Q198 52 207.5 51 Q217 50 224 50 Q257 50 280 63.5 Q303 77 317.5 100 Q332 123 338.5 153.5 Q345 184 345 218 Q345 297 311.5 344 Q278 391 212 391 L198 391 L198 448 L212 448 Q261 448 292.5 486 Q324 524 324 586 Q324 608 319 630.5 Q314 653 303.5 670.5 Q293 688 276 699 Q259 710 235 710 Q206 710 186.5 694.5 Q167 679 156 653.5 Q145 628 140.5 595 Q136 562 136 527 L136 0 L71 0 L71 527 Q71 578 79.5 622.5 Q88 667 107.5 699 Q127 731 158.5 749.5 Q190 768 236 768 Q274 768 302.5 754 Q331 740 349.5 716 Q368 692 377 659 Q386 626 386 589 Q386 554 377 526 Q368 498 352.5 477 Q337 456 316.5 442.5 Q296 429 274 424 L274 423 Q332 415 370.5 363 Q409 311 409 215 Z " />
<glyph glyph-name="agrave" unicode="&#xe0;" horiz-adv-x="404" d="M285 0 Q284 8 283.5 20 Q283 32 282.5 45.5 Q282 59 282 71.5 Q282 84 282 93 L280 93 Q255 -13 160 -13 Q139 -13 118 -5 Q97 3 80 21 Q63 39 52 66.5 Q41 94 41 133 Q41 187 60 220 Q79 253 108 272 Q137 291 171.5 297.5 Q206 304 237 304 L276 304 L276 330 Q276 395 252 425 Q228 455 187 455 Q159 455 135 440 Q111 425 94 402 L59 443 Q82 476 119 494 Q156 512 193 512 Q271 512 304 461 Q337 410 337 312 L337 106 Q337 96 337.5 81 Q338 66 338.5 50.5 Q339 35 340 21.5 Q341 8 342 0 L285 0 Z M277 252 L237 252 Q213 252 189 247.5 Q165 243 146.5 230.5 Q128 218 116 196 Q104 174 104 139 Q104 87 127 64 Q150 41 177 41 Q205 41 224.5 58 Q244 75 255.5 101 Q267 127 272 158 Q277 189 277 218 L277 252 Z M180 569 L74 713 L146 713 L236 569 L180 569 Z " />
<glyph glyph-name="aacute" unicode="&#xe1;" horiz-adv-x="404" d="M285 0 Q284 8 283.5 20 Q283 32 282.5 45.5 Q282 59 282 71.5 Q282 84 282 93 L280 93 Q255 -13 160 -13 Q139 -13 118 -5 Q97 3 80 21 Q63 39 52 66.5 Q41 94 41 133 Q41 187 60 220 Q79 253 108 272 Q137 291 171.5 297.5 Q206 304 237 304 L276 304 L276 330 Q276 395 252 425 Q228 455 187 455 Q159 455 135 440 Q111 425 94 402 L59 443 Q82 476 119 494 Q156 512 193 512 Q271 512 304 461 Q337 410 337 312 L337 106 Q337 96 337.5 81 Q338 66 338.5 50.5 Q339 35 340 21.5 Q341 8 342 0 L285 0 Z M277 252 L237 252 Q213 252 189 247.5 Q165 243 146.5 230.5 Q128 218 116 196 Q104 174 104 139 Q104 87 127 64 Q150 41 177 41 Q205 41 224.5 58 Q244 75 255.5 101 Q267 127 272 158 Q277 189 277 218 L277 252 Z M218 569 L162 569 L252 713 L324 713 L218 569 Z " />
<glyph glyph-name="acircumflex" unicode="&#xe2;" horiz-adv-x="404" d="M285 0 Q284 8 283.5 20 Q283 32 282.5 45.5 Q282 59 282 71.5 Q282 84 282 93 L280 93 Q255 -13 160 -13 Q139 -13 118 -5 Q97 3 80 21 Q63 39 52 66.5 Q41 94 41 133 Q41 187 60 220 Q79 253 108 272 Q137 291 171.5 297.5 Q206 304 237 304 L276 304 L276 330 Q276 395 252 425 Q228 455 187 455 Q159 455 135 440 Q111 425 94 402 L59 443 Q82 476 119 494 Q156 512 193 512 Q271 512 304 461 Q337 410 337 312 L337 106 Q337 96 337.5 81 Q338 66 338.5 50.5 Q339 35 340 21.5 Q341 8 342 0 L285 0 Z M277 252 L237 252 Q213 252 189 247.5 Q165 243 146.5 230.5 Q128 218 116 196 Q104 174 104 139 Q104 87 127 64 Q150 41 177 41 Q205 41 224.5 58 Q244 75 255.5 101 Q267 127 272 158 Q277 189 277 218 L277 252 Z M270 569 L198 674 L126 569 L61 569 L164 713 L234 713 L336 569 L270 569 Z " />
<glyph glyph-name="atilde" unicode="&#xe3;" horiz-adv-x="404" d="M285 0 Q284 8 283.5 20 Q283 32 282.5 45.5 Q282 59 282 71.5 Q282 84 282 93 L280 93 Q255 -13 160 -13 Q139 -13 118 -5 Q97 3 80 21 Q63 39 52 66.5 Q41 94 41 133 Q41 187 60 220 Q79 253 108 272 Q137 291 171.5 297.5 Q206 304 237 304 L276 304 L276 330 Q276 395 252 425 Q228 455 187 455 Q159 455 135 440 Q111 425 94 402 L59 443 Q82 476 119 494 Q156 512 193 512 Q271 512 304 461 Q337 410 337 312 L337 106 Q337 96 337.5 81 Q338 66 338.5 50.5 Q339 35 340 21.5 Q341 8 342 0 L285 0 Z M277 252 L237 252 Q213 252 189 247.5 Q165 243 146.5 230.5 Q128 218 116 196 Q104 174 104 139 Q104 87 127 64 Q150 41 177 41 Q205 41 224.5 58 Q244 75 255.5 101 Q267 127 272 158 Q277 189 277 218 L277 252 Z M329 685 Q326 636 307.5 611.5 Q289 587 260 587 Q244 587 230.5 592 Q217 597 197 611 Q174 626 164.5 630.5 Q155 635 144 635 Q128 635 121 622 Q114 609 110 586 L73 586 Q76 631 94 659 Q112 687 142 687 Q160 687 172.5 681.5 Q185 676 205 663 Q228 648 238 643.5 Q248 639 259 639 Q275 639 281.5 649.5 Q288 660 292 685 L329 685 Z " />
<glyph glyph-name="adieresis" unicode="&#xe4;" horiz-adv-x="404" d="M285 0 Q284 8 283.5 20 Q283 32 282.5 45.5 Q282 59 282 71.5 Q282 84 282 93 L280 93 Q255 -13 160 -13 Q139 -13 118 -5 Q97 3 80 21 Q63 39 52 66.5 Q41 94 41 133 Q41 187 60 220 Q79 253 108 272 Q137 291 171.5 297.5 Q206 304 237 304 L276 304 L276 330 Q276 395 252 425 Q228 455 187 455 Q159 455 135 440 Q111 425 94 402 L59 443 Q82 476 119 494 Q156 512 193 512 Q271 512 304 461 Q337 410 337 312 L337 106 Q337 96 337.5 81 Q338 66 338.5 50.5 Q339 35 340 21.5 Q341 8 342 0 L285 0 Z M277 252 L237 252 Q213 252 189 247.5 Q165 243 146.5 230.5 Q128 218 116 196 Q104 174 104 139 Q104 87 127 64 Q150 41 177 41 Q205 41 224.5 58 Q244 75 255.5 101 Q267 127 272 158 Q277 189 277 218 L277 252 Z M315 648 Q315 628 303 615.5 Q291 603 273 603 Q256 603 243.5 615.5 Q231 628 231 648 Q231 667 243.5 680 Q256 693 273 693 Q291 693 303 680 Q315 667 315 648 Z M172 648 Q172 628 159.5 615.5 Q147 603 130 603 Q111 603 99.5 615.5 Q88 628 88 648 Q88 667 99.5 680 Q111 693 130 693 Q147 693 159.5 680 Q172 667 172 648 Z " />
<glyph glyph-name="aring" unicode="&#xe5;" horiz-adv-x="404" d="M285 0 Q284 8 283.5 20 Q283 32 282.5 45.5 Q282 59 282 71.5 Q282 84 282 93 L280 93 Q255 -13 160 -13 Q139 -13 118 -5 Q97 3 80 21 Q63 39 52 66.5 Q41 94 41 133 Q41 187 60 220 Q79 253 108 272 Q137 291 171.5 297.5 Q206 304 237 304 L276 304 L276 330 Q276 395 252 425 Q228 455 187 455 Q159 455 135 440 Q111 425 94 402 L59 443 Q82 476 119 494 Q156 512 193 512 Q271 512 304 461 Q337 410 337 312 L337 106 Q337 96 337.5 81 Q338 66 338.5 50.5 Q339 35 340 21.5 Q341 8 342 0 L285 0 Z M277 252 L237 252 Q213 252 189 247.5 Q165 243 146.5 230.5 Q128 218 116 196 Q104 174 104 139 Q104 87 127 64 Q150 41 177 41 Q205 41 224.5 58 Q244 75 255.5 101 Q267 127 272 158 Q277 189 277 218 L277 252 Z M294 656 Q294 613 267.5 584 Q241 555 200 555 Q160 555 134 584 Q108 613 108 656 Q108 700 134 729 Q160 758 200 758 Q241 758 267.5 729 Q294 700 294 656 Z M256 656 Q256 683 241.5 703 Q227 723 200 723 Q174 723 159.5 703 Q145 683 145 656 Q145 630 159.5 610 Q174 590 200 590 Q227 590 241.5 610 Q256 630 256 656 Z " />
<glyph glyph-name="ae" unicode="&#xe6;" horiz-adv-x="649" d="M340 234 Q340 193 347 158.5 Q354 124 367.5 98.5 Q381 73 401.5 58.5 Q422 44 450 44 Q486 44 508 66 Q530 88 542 119 L592 90 Q574 45 538.5 14.5 Q503 -16 448 -16 Q391 -16 355 17 Q319 50 307 112 Q297 52 260.5 18 Q224 -16 163 -16 Q141 -16 119.5 -8 Q98 0 80.5 17.5 Q63 35 52 62.5 Q41 90 41 129 Q41 179 60 210.5 Q79 242 108 259.5 Q137 277 171.5 283 Q206 289 237 289 L276 289 L276 317 Q276 383 252.5 419 Q229 455 187 455 Q159 455 135 440 Q111 425 94 402 L59 443 Q82 476 119 494 Q156 512 193 512 Q247 512 277 482.5 Q307 453 315 399 Q330 452 363 482 Q396 512 447 512 Q491 512 521.5 493 Q552 474 571 441.5 Q590 409 598.5 365 Q607 321 607 271 L607 234 L340 234 Z M277 236 L237 236 Q213 236 189 231.5 Q165 227 146.5 216 Q128 205 116 185 Q104 165 104 135 Q104 109 110.5 91 Q117 73 127 62 Q137 51 150 46 Q163 41 177 41 Q205 41 224.5 56 Q244 71 255.5 95 Q267 119 272 148.5 Q277 178 277 207 L277 236 Z M540 289 Q540 364 517 409.5 Q494 455 445 455 Q416 455 396.5 437.5 Q377 420 364.5 394.5 Q352 369 346.5 340 Q341 311 341 289 L540 289 Z " />
<glyph glyph-name="ccedilla" unicode="&#xe7;" horiz-adv-x="336" d="M328 35 Q291 -13 225 -16 L191 -75 Q203 -71 223 -71 Q250 -71 274 -88 Q298 -105 298 -141 Q298 -166 288 -183 Q278 -200 262.5 -210 Q247 -220 227.5 -224 Q208 -228 190 -228 Q171 -228 147.5 -224 Q124 -220 104 -210 L119 -174 Q134 -182 151 -185 Q168 -188 185 -188 Q192 -188 202 -186 Q212 -184 221 -178.5 Q230 -173 236.5 -164.5 Q243 -156 243 -144 Q243 -124 230 -114.5 Q217 -105 194 -105 Q173 -105 154 -113 L138 -98 L187 -13 Q117 1 82 71.5 Q47 142 47 248 Q47 307 58 355.5 Q69 404 91 439 Q113 474 145 493 Q177 512 219 512 Q257 512 284 498 Q311 484 327 465 L292 417 Q280 434 262 444 Q244 454 220 454 Q193 454 173.5 438.5 Q154 423 141 395.5 Q128 368 121.5 330.5 Q115 293 115 248 Q115 204 121.5 167 Q128 130 141 103 Q154 76 174.5 61 Q195 46 223 46 Q248 46 266.5 56.5 Q285 67 298 86 L328 35 L328 35 Z " />
<glyph glyph-name="egrave" unicode="&#xe8;" horiz-adv-x="423" d="M114 234 Q114 193 121 158.5 Q128 124 141.5 98.5 Q155 73 175.5 58.5 Q196 44 224 44 Q260 44 282 66 Q304 88 316 119 L366 90 Q348 45 312.5 14.5 Q277 -16 222 -16 Q139 -16 93 54 Q47 124 47 247 Q47 305 59 354 Q71 403 93.5 438 Q116 473 148.5 492.5 Q181 512 221 512 Q265 512 295.5 493 Q326 474 345 441 Q364 408 372.5 364 Q381 320 381 270 L381 234 L114 234 Z M314 289 Q314 364 291 409.5 Q268 455 219 455 Q190 455 170.5 437.5 Q151 420 138.5 394.5 Q126 369 120.5 340 Q115 311 115 289 L314 289 Z M215 569 L109 713 L181 713 L271 569 L215 569 Z " />
<glyph glyph-name="eacute" unicode="&#xe9;" horiz-adv-x="423" d="M114 234 Q114 193 121 158.5 Q128 124 141.5 98.5 Q155 73 175.5 58.5 Q196 44 224 44 Q260 44 282 66 Q304 88 316 119 L366 90 Q348 45 312.5 14.5 Q277 -16 222 -16 Q139 -16 93 54 Q47 124 47 247 Q47 305 59 354 Q71 403 93.5 438 Q116 473 148.5 492.5 Q181 512 221 512 Q265 512 295.5 493 Q326 474 345 441 Q364 408 372.5 364 Q381 320 381 270 L381 234 L114 234 Z M314 289 Q314 364 291 409.5 Q268 455 219 455 Q190 455 170.5 437.5 Q151 420 138.5 394.5 Q126 369 120.5 340 Q115 311 115 289 L314 289 Z M231 569 L175 569 L265 713 L337 713 L231 569 Z " />
<glyph glyph-name="ecircumflex" unicode="&#xea;" horiz-adv-x="423" d="M114 234 Q114 193 121 158.5 Q128 124 141.5 98.5 Q155 73 175.5 58.5 Q196 44 224 44 Q260 44 282 66 Q304 88 316 119 L366 90 Q348 45 312.5 14.5 Q277 -16 222 -16 Q139 -16 93 54 Q47 124 47 247 Q47 305 59 354 Q71 403 93.5 438 Q116 473 148.5 492.5 Q181 512 221 512 Q265 512 295.5 493 Q326 474 345 441 Q364 408 372.5 364 Q381 320 381 270 L381 234 L114 234 Z M314 289 Q314 364 291 409.5 Q268 455 219 455 Q190 455 170.5 437.5 Q151 420 138.5 394.5 Q126 369 120.5 340 Q115 311 115 289 L314 289 Z M298 569 L226 674 L154 569 L89 569 L192 713 L262 713 L364 569 L298 569 Z " />
<glyph glyph-name="edieresis" unicode="&#xeb;" horiz-adv-x="423" d="M114 234 Q114 193 121 158.5 Q128 124 141.5 98.5 Q155 73 175.5 58.5 Q196 44 224 44 Q260 44 282 66 Q304 88 316 119 L366 90 Q348 45 312.5 14.5 Q277 -16 222 -16 Q139 -16 93 54 Q47 124 47 247 Q47 305 59 354 Q71 403 93.5 438 Q116 473 148.5 492.5 Q181 512 221 512 Q265 512 295.5 493 Q326 474 345 441 Q364 408 372.5 364 Q381 320 381 270 L381 234 L114 234 Z M314 289 Q314 364 291 409.5 Q268 455 219 455 Q190 455 170.5 437.5 Q151 420 138.5 394.5 Q126 369 120.5 340 Q115 311 115 289 L314 289 Z M338 648 Q338 628 326 615.5 Q314 603 296 603 Q279 603 266.5 615.5 Q254 628 254 648 Q254 667 266.5 680 Q279 693 296 693 Q314 693 326 680 Q338 667 338 648 Z M195 648 Q195 628 182.5 615.5 Q170 603 153 603 Q134 603 122.5 615.5 Q111 628 111 648 Q111 667 122.5 680 Q134 693 153 693 Q170 693 182.5 680 Q195 667 195 648 Z " />
<glyph glyph-name="igrave" unicode="&#xec;" horiz-adv-x="220" d="M77 0 L77 496 L143 496 L143 0 L77 0 Z M87 569 L-19 713 L53 713 L143 569 L87 569 Z " />
<glyph glyph-name="iacute" unicode="&#xed;" horiz-adv-x="220" d="M77 0 L77 496 L143 496 L143 0 L77 0 Z M132 569 L76 569 L166 713 L238 713 L132 569 Z " />
<glyph glyph-name="icircumflex" unicode="&#xee;" horiz-adv-x="220" d="M77 0 L77 496 L143 496 L143 0 L77 0 Z M182 569 L110 674 L38 569 L-27 569 L76 713 L146 713 L248 569 L182 569 Z " />
<glyph glyph-name="idieresis" unicode="&#xef;" horiz-adv-x="220" d="M77 0 L77 496 L143 496 L143 0 L77 0 Z M224 648 Q224 628 212 615.5 Q200 603 182 603 Q165 603 152.5 615.5 Q140 628 140 648 Q140 667 152.5 680 Q165 693 182 693 Q200 693 212 680 Q224 667 224 648 Z M81 648 Q81 628 68.5 615.5 Q56 603 39 603 Q20 603 8.5 615.5 Q-3 628 -3 648 Q-3 667 8.5 680 Q20 693 39 693 Q56 693 68.5 680 Q81 667 81 648 Z " />
<glyph glyph-name="eth" unicode="&#xf0;" horiz-adv-x="440" d="M391 247 Q391 188 378.5 139.5 Q366 91 343.5 56 Q321 21 289.5 2 Q258 -17 219 -17 Q180 -17 148 2 Q116 21 93.5 56 Q71 91 58.5 140 Q46 189 46 248 Q46 305 57.5 352.5 Q69 400 91 434.5 Q113 469 144 488 Q175 507 214 507 Q234 507 252 499.5 Q270 492 282 479 L284 481 Q268 521 242 565 Q216 609 189 641 L93 584 L65 615 L162 672 Q143 694 122.5 712.5 Q102 731 83 745 L135 774 Q156 757 176.5 737 Q197 717 214 696 L302 748 L333 718 L239 664 Q262 636 288.5 592 Q315 548 338 493 Q361 438 376 375.5 Q391 313 391 247 Z M326 248 Q326 292 319.5 330.5 Q313 369 299.5 397 Q286 425 266 441 Q246 457 220 457 Q193 457 173.5 441 Q154 425 140.5 397 Q127 369 120.5 330.5 Q114 292 114 248 Q114 204 120.5 166 Q127 128 140.5 100 Q154 72 173.5 56 Q193 40 220 40 Q247 40 266.5 56 Q286 72 299.5 100 Q313 128 319.5 166 Q326 204 326 248 Z " />
<glyph glyph-name="ntilde" unicode="&#xf1;" horiz-adv-x="470" d="M331 0 L331 320 Q331 343 328.5 366.5 Q326 390 317.5 409.5 Q309 429 293.5 441.5 Q278 454 253 454 Q228 454 208.5 440.5 Q189 427 175.5 403.5 Q162 380 154.5 349.5 Q147 319 147 286 L147 0 L81 0 L81 371 Q81 387 80.5 405.5 Q80 424 79.5 441.5 Q79 459 78.5 473.5 Q78 488 77 496 L141 496 Q143 477 144 450 Q145 423 145 399 L147 399 Q161 449 193 480.5 Q225 512 273 512 Q313 512 337.5 495 Q362 478 375 450.5 Q388 423 392.5 388.5 Q397 354 397 320 L397 0 L331 0 Z M363 685 Q360 636 341.5 611.5 Q323 587 294 587 Q278 587 264.5 592 Q251 597 231 611 Q208 626 198.5 630.5 Q189 635 178 635 Q162 635 155 622 Q148 609 144 586 L107 586 Q110 631 128 659 Q146 687 176 687 Q194 687 206.5 681.5 Q219 676 239 663 Q262 648 272 643.5 Q282 639 293 639 Q309 639 315.5 649.5 Q322 660 326 685 L363 685 Z " />
<glyph glyph-name="ograve" unicode="&#xf2;" horiz-adv-x="440" d="M393 247 Q393 188 381 140 Q369 92 347 57 Q325 22 292.5 3 Q260 -16 220 -16 Q180 -16 148 3 Q116 22 93.5 57 Q71 92 59 140 Q47 188 47 247 Q47 306 58.5 355 Q70 404 92 439 Q114 474 146.5 493 Q179 512 220 512 Q260 512 292.5 493 Q325 474 347 439 Q369 404 381 355 Q393 306 393 247 Z M325 248 Q325 292 318.5 330 Q312 368 299 395.5 Q286 423 266.5 439 Q247 455 220 455 Q193 455 173 439 Q153 423 140.5 395.5 Q128 368 121.5 330 Q115 292 115 248 Q115 204 121.5 167 Q128 130 140.5 102 Q153 74 173 58.5 Q193 43 220 43 Q247 43 267 58.5 Q287 74 299.5 102 Q312 130 318.5 167 Q325 204 325 248 Z M207 569 L101 713 L173 713 L263 569 L207 569 Z " />
<glyph glyph-name="oacute" unicode="&#xf3;" horiz-adv-x="440" d="M393 247 Q393 188 381 140 Q369 92 347 57 Q325 22 292.5 3 Q260 -16 220 -16 Q180 -16 148 3 Q116 22 93.5 57 Q71 92 59 140 Q47 188 47 247 Q47 306 58.5 355 Q70 404 92 439 Q114 474 146.5 493 Q179 512 220 512 Q260 512 292.5 493 Q325 474 347 439 Q369 404 381 355 Q393 306 393 247 Z M325 248 Q325 292 318.5 330 Q312 368 299 395.5 Q286 423 266.5 439 Q247 455 220 455 Q193 455 173 439 Q153 423 140.5 395.5 Q128 368 121.5 330 Q115 292 115 248 Q115 204 121.5 167 Q128 130 140.5 102 Q153 74 173 58.5 Q193 43 220 43 Q247 43 267 58.5 Q287 74 299.5 102 Q312 130 318.5 167 Q325 204 325 248 Z M239 569 L183 569 L273 713 L345 713 L239 569 Z " />
<glyph glyph-name="ocircumflex" unicode="&#xf4;" horiz-adv-x="440" d="M393 247 Q393 188 381 140 Q369 92 347 57 Q325 22 292.5 3 Q260 -16 220 -16 Q180 -16 148 3 Q116 22 93.5 57 Q71 92 59 140 Q47 188 47 247 Q47 306 58.5 355 Q70 404 92 439 Q114 474 146.5 493 Q179 512 220 512 Q260 512 292.5 493 Q325 474 347 439 Q369 404 381 355 Q393 306 393 247 Z M325 248 Q325 292 318.5 330 Q312 368 299 395.5 Q286 423 266.5 439 Q247 455 220 455 Q193 455 173 439 Q153 423 140.5 395.5 Q128 368 121.5 330 Q115 292 115 248 Q115 204 121.5 167 Q128 130 140.5 102 Q153 74 173 58.5 Q193 43 220 43 Q247 43 267 58.5 Q287 74 299.5 102 Q312 130 318.5 167 Q325 204 325 248 Z M292 569 L220 674 L148 569 L83 569 L186 713 L256 713 L358 569 L292 569 Z " />
<glyph glyph-name="otilde" unicode="&#xf5;" horiz-adv-x="440" d="M393 247 Q393 188 381 140 Q369 92 347 57 Q325 22 292.5 3 Q260 -16 220 -16 Q180 -16 148 3 Q116 22 93.5 57 Q71 92 59 140 Q47 188 47 247 Q47 306 58.5 355 Q70 404 92 439 Q114 474 146.5 493 Q179 512 220 512 Q260 512 292.5 493 Q325 474 347 439 Q369 404 381 355 Q393 306 393 247 Z M325 248 Q325 292 318.5 330 Q312 368 299 395.5 Q286 423 266.5 439 Q247 455 220 455 Q193 455 173 439 Q153 423 140.5 395.5 Q128 368 121.5 330 Q115 292 115 248 Q115 204 121.5 167 Q128 130 140.5 102 Q153 74 173 58.5 Q193 43 220 43 Q247 43 267 58.5 Q287 74 299.5 102 Q312 130 318.5 167 Q325 204 325 248 Z M348 685 Q345 636 326.5 611.5 Q308 587 279 587 Q263 587 249.5 592 Q236 597 216 611 Q193 626 183.5 630.5 Q174 635 163 635 Q147 635 140 622 Q133 609 129 586 L92 586 Q95 631 113 659 Q131 687 161 687 Q179 687 191.5 681.5 Q204 676 224 663 Q247 648 257 643.5 Q267 639 278 639 Q294 639 300.5 649.5 Q307 660 311 685 L348 685 Z " />
<glyph glyph-name="odieresis" unicode="&#xf6;" horiz-adv-x="440" d="M393 247 Q393 188 381 140 Q369 92 347 57 Q325 22 292.5 3 Q260 -16 220 -16 Q180 -16 148 3 Q116 22 93.5 57 Q71 92 59 140 Q47 188 47 247 Q47 306 58.5 355 Q70 404 92 439 Q114 474 146.5 493 Q179 512 220 512 Q260 512 292.5 493 Q325 474 347 439 Q369 404 381 355 Q393 306 393 247 Z M325 248 Q325 292 318.5 330 Q312 368 299 395.5 Q286 423 266.5 439 Q247 455 220 455 Q193 455 173 439 Q153 423 140.5 395.5 Q128 368 121.5 330 Q115 292 115 248 Q115 204 121.5 167 Q128 130 140.5 102 Q153 74 173 58.5 Q193 43 220 43 Q247 43 267 58.5 Q287 74 299.5 102 Q312 130 318.5 167 Q325 204 325 248 Z M334 648 Q334 628 322 615.5 Q310 603 292 603 Q275 603 262.5 615.5 Q250 628 250 648 Q250 667 262.5 680 Q275 693 292 693 Q310 693 322 680 Q334 667 334 648 Z M191 648 Q191 628 178.5 615.5 Q166 603 149 603 Q130 603 118.5 615.5 Q107 628 107 648 Q107 667 118.5 680 Q130 693 149 693 Q166 693 178.5 680 Q191 667 191 648 Z " />
<glyph glyph-name="divide" unicode="&#xf7;" horiz-adv-x="666" d="M588 273 L78 273 L78 333 L588 333 L588 273 Z M387 465 Q387 444 372 427.5 Q357 411 333 411 Q309 411 294 427.5 Q279 444 279 465 Q279 486 294 502.5 Q309 519 333 519 Q357 519 372 502.5 Q387 486 387 465 Z M387 141 Q387 120 372 103.5 Q357 87 333 87 Q309 87 294 103.5 Q279 120 279 141 Q279 162 294 178.5 Q309 195 333 195 Q357 195 372 178.5 Q387 162 387 141 Z " />
<glyph glyph-name="oslash" unicode="&#xf8;" horiz-adv-x="440" d="M345 443 Q368 408 380.5 357.5 Q393 307 393 247 Q393 188 381 139.5 Q369 91 347 56.5 Q325 22 292.5 2.5 Q260 -17 220 -17 Q166 -17 125 19 L98 -37 L58 -19 L95 53 Q72 88 59.5 137.5 Q47 187 47 247 Q47 306 58.5 355 Q70 404 92 439 Q114 474 146.5 493 Q179 512 220 512 Q249 512 272 503 Q295 494 315 476 L339 530 L378 512 L345 443 Z M113 248 Q113 169 133 114 L284 423 Q259 457 220 457 Q193 457 172.5 441 Q152 425 139 397 Q126 369 119.5 330.5 Q113 292 113 248 Z M327 248 Q327 324 308 379 L156 72 Q182 40 220 40 Q247 40 267.5 56 Q288 72 301 100 Q314 128 320.5 166 Q327 204 327 248 Z " />
<glyph glyph-name="ugrave" unicode="&#xf9;" horiz-adv-x="470" d="M139 496 L139 176 Q139 153 141.5 129.5 Q144 106 152.5 86.5 Q161 67 176 54.5 Q191 42 217 42 Q242 42 261.5 55.5 Q281 69 294.5 92.5 Q308 116 315.5 146.5 Q323 177 323 210 L323 496 L389 496 L389 125 Q389 109 389.5 90.5 Q390 72 390.5 54.5 Q391 37 391.5 22 Q392 7 393 0 L329 0 Q327 19 326 46 Q325 73 325 97 L323 97 Q309 47 277 15.5 Q245 -16 197 -16 Q157 -16 132.5 1 Q108 18 95 45.5 Q82 73 77.5 107 Q73 141 73 176 L73 496 L139 496 Z M228 569 L122 713 L194 713 L284 569 L228 569 Z " />
<glyph glyph-name="uacute" unicode="&#xfa;" horiz-adv-x="470" d="M139 496 L139 176 Q139 153 141.5 129.5 Q144 106 152.5 86.5 Q161 67 176 54.5 Q191 42 217 42 Q242 42 261.5 55.5 Q281 69 294.5 92.5 Q308 116 315.5 146.5 Q323 177 323 210 L323 496 L389 496 L389 125 Q389 109 389.5 90.5 Q390 72 390.5 54.5 Q391 37 391.5 22 Q392 7 393 0 L329 0 Q327 19 326 46 Q325 73 325 97 L323 97 Q309 47 277 15.5 Q245 -16 197 -16 Q157 -16 132.5 1 Q108 18 95 45.5 Q82 73 77.5 107 Q73 141 73 176 L73 496 L139 496 Z M237 569 L181 569 L271 713 L343 713 L237 569 Z " />
<glyph glyph-name="ucircumflex" unicode="&#xfb;" horiz-adv-x="470" d="M139 496 L139 176 Q139 153 141.5 129.5 Q144 106 152.5 86.5 Q161 67 176 54.5 Q191 42 217 42 Q242 42 261.5 55.5 Q281 69 294.5 92.5 Q308 116 315.5 146.5 Q323 177 323 210 L323 496 L389 496 L389 125 Q389 109 389.5 90.5 Q390 72 390.5 54.5 Q391 37 391.5 22 Q392 7 393 0 L329 0 Q327 19 326 46 Q325 73 325 97 L323 97 Q309 47 277 15.5 Q245 -16 197 -16 Q157 -16 132.5 1 Q108 18 95 45.5 Q82 73 77.5 107 Q73 141 73 176 L73 496 L139 496 Z M305 569 L233 674 L161 569 L96 569 L199 713 L269 713 L371 569 L305 569 Z " />
<glyph glyph-name="udieresis" unicode="&#xfc;" horiz-adv-x="470" d="M139 496 L139 176 Q139 153 141.5 129.5 Q144 106 152.5 86.5 Q161 67 176 54.5 Q191 42 217 42 Q242 42 261.5 55.5 Q281 69 294.5 92.5 Q308 116 315.5 146.5 Q323 177 323 210 L323 496 L389 496 L389 125 Q389 109 389.5 90.5 Q390 72 390.5 54.5 Q391 37 391.5 22 Q392 7 393 0 L329 0 Q327 19 326 46 Q325 73 325 97 L323 97 Q309 47 277 15.5 Q245 -16 197 -16 Q157 -16 132.5 1 Q108 18 95 45.5 Q82 73 77.5 107 Q73 141 73 176 L73 496 L139 496 Z M347 648 Q347 628 335 615.5 Q323 603 305 603 Q288 603 275.5 615.5 Q263 628 263 648 Q263 667 275.5 680 Q288 693 305 693 Q323 693 335 680 Q347 667 347 648 Z M204 648 Q204 628 191.5 615.5 Q179 603 162 603 Q143 603 131.5 615.5 Q120 628 120 648 Q120 667 131.5 680 Q143 693 162 693 Q179 693 191.5 680 Q204 667 204 648 Z " />
<glyph glyph-name="yacute" unicode="&#xfd;" horiz-adv-x="375" d="M202 -105 Q194 -137 183.5 -162 Q173 -187 158 -204 Q143 -221 123.5 -230.5 Q104 -240 77 -240 Q63 -240 49 -237.5 Q35 -235 26 -232 L35 -173 Q42 -175 52 -177 Q62 -179 72 -179 Q101 -179 115.5 -159 Q130 -139 139 -104 L161 -18 L17 496 L87 496 L194 77 L196 77 L291 496 L358 496 L202 -105 Z M205 569 L149 569 L239 713 L311 713 L205 569 Z " />
<glyph glyph-name="thorn" unicode="&#xfe;" horiz-adv-x="466" d="M419 247 Q419 189 409 140.5 Q399 92 379 57 Q359 22 330 2.5 Q301 -17 262 -17 Q217 -17 186.5 11.5 Q156 40 144 85 L143 85 L143 -240 L77 -240 L77 756 L141 756 L141 407 L143 407 Q155 453 183 482.5 Q211 512 262 512 Q299 512 328.5 492 Q358 472 378 437 Q398 402 408.5 353.5 Q419 305 419 247 Z M351 249 Q351 292 345 329.5 Q339 367 326 395 Q313 423 293.5 439 Q274 455 247 455 Q220 455 200.5 439 Q181 423 167.5 395 Q154 367 147.5 329.5 Q141 292 141 249 Q141 205 147.5 167 Q154 129 167.5 101.5 Q181 74 201 58 Q221 42 247 42 Q274 42 293.5 58 Q313 74 326 101.5 Q339 129 345 167 Q351 205 351 249 Z " />
<glyph glyph-name="ydieresis" unicode="&#xff;" horiz-adv-x="375" d="M202 -105 Q194 -137 183.5 -162 Q173 -187 158 -204 Q143 -221 123.5 -230.5 Q104 -240 77 -240 Q63 -240 49 -237.5 Q35 -235 26 -232 L35 -173 Q42 -175 52 -177 Q62 -179 72 -179 Q101 -179 115.5 -159 Q130 -139 139 -104 L161 -18 L17 496 L87 496 L194 77 L196 77 L291 496 L358 496 L202 -105 Z M309 648 Q309 628 297 615.5 Q285 603 267 603 Q250 603 237.5 615.5 Q225 628 225 648 Q225 667 237.5 680 Q250 693 267 693 Q285 693 297 680 Q309 667 309 648 Z M166 648 Q166 628 153.5 615.5 Q141 603 124 603 Q105 603 93.5 615.5 Q82 628 82 648 Q82 667 93.5 680 Q105 693 124 693 Q141 693 153.5 680 Q166 667 166 648 Z " />
<glyph glyph-name="Amacron" unicode="&#x100;" horiz-adv-x="464" d="M384 0 L341 177 L123 177 L78 0 L7 0 L187 708 L282 708 L457 0 L384 0 Z M235 645 L231 645 L133 233 L331 233 L235 645 Z M111 809 L111 861 L360 861 L360 809 L111 809 Z " />
<glyph glyph-name="amacron" unicode="&#x101;" horiz-adv-x="404" d="M285 0 Q284 8 283.5 20 Q283 32 282.5 45.5 Q282 59 282 71.5 Q282 84 282 93 L280 93 Q255 -13 160 -13 Q139 -13 118 -5 Q97 3 80 21 Q63 39 52 66.5 Q41 94 41 133 Q41 187 60 220 Q79 253 108 272 Q137 291 171.5 297.5 Q206 304 237 304 L276 304 L276 330 Q276 395 252 425 Q228 455 187 455 Q159 455 135 440 Q111 425 94 402 L59 443 Q82 476 119 494 Q156 512 193 512 Q271 512 304 461 Q337 410 337 312 L337 106 Q337 96 337.5 81 Q338 66 338.5 50.5 Q339 35 340 21.5 Q341 8 342 0 L285 0 Z M277 252 L237 252 Q213 252 189 247.5 Q165 243 146.5 230.5 Q128 218 116 196 Q104 174 104 139 Q104 87 127 64 Q150 41 177 41 Q205 41 224.5 58 Q244 75 255.5 101 Q267 127 272 158 Q277 189 277 218 L277 252 Z M75 614 L75 666 L324 666 L324 614 L75 614 Z " />
<glyph glyph-name="Abreve" unicode="&#x102;" horiz-adv-x="464" d="M384 0 L341 177 L123 177 L78 0 L7 0 L187 708 L282 708 L457 0 L384 0 Z M235 645 L231 645 L133 233 L331 233 L235 645 Z M367 900 Q359 831 322.5 799.5 Q286 768 235 768 Q186 768 149.5 799.5 Q113 831 106 900 L156 900 Q162 859 184.5 840 Q207 821 235 821 Q266 821 287.5 839 Q309 857 317 900 L367 900 Z " />
<glyph glyph-name="abreve" unicode="&#x103;" horiz-adv-x="404" d="M285 0 Q284 8 283.5 20 Q283 32 282.5 45.5 Q282 59 282 71.5 Q282 84 282 93 L280 93 Q255 -13 160 -13 Q139 -13 118 -5 Q97 3 80 21 Q63 39 52 66.5 Q41 94 41 133 Q41 187 60 220 Q79 253 108 272 Q137 291 171.5 297.5 Q206 304 237 304 L276 304 L276 330 Q276 395 252 425 Q228 455 187 455 Q159 455 135 440 Q111 425 94 402 L59 443 Q82 476 119 494 Q156 512 193 512 Q271 512 304 461 Q337 410 337 312 L337 106 Q337 96 337.5 81 Q338 66 338.5 50.5 Q339 35 340 21.5 Q341 8 342 0 L285 0 Z M277 252 L237 252 Q213 252 189 247.5 Q165 243 146.5 230.5 Q128 218 116 196 Q104 174 104 139 Q104 87 127 64 Q150 41 177 41 Q205 41 224.5 58 Q244 75 255.5 101 Q267 127 272 158 Q277 189 277 218 L277 252 Z M330 705 Q322 636 285.5 604.5 Q249 573 198 573 Q149 573 112.5 604.5 Q76 636 69 705 L119 705 Q125 664 147.5 645 Q170 626 198 626 Q229 626 250.5 644 Q272 662 280 705 L330 705 Z " />
<glyph glyph-name="Aogonek" unicode="&#x104;" horiz-adv-x="464" d="M468 -183 Q452 -200 432 -209.5 Q412 -219 389 -219 Q352 -219 327.5 -197.5 Q303 -176 303 -138 Q303 -117 310.5 -97.5 Q318 -78 330 -60.5 Q342 -43 356.5 -27.5 Q371 -12 385 0 L384 0 L341 177 L123 177 L78 0 L7 0 L187 708 L282 708 L457 0 L429 0 Q395 -37 376.5 -64.5 Q358 -92 358 -121 Q358 -142 371.5 -155.5 Q385 -169 404 -169 Q432 -169 451 -147 L468 -183 Z M235 645 L231 645 L133 233 L331 233 L235 645 Z " />
<glyph glyph-name="aogonek" unicode="&#x105;" horiz-adv-x="404" d="M331 0 Q297 -37 278.5 -64.5 Q260 -92 260 -121 Q260 -142 273.5 -155.5 Q287 -169 306 -169 Q334 -169 353 -147 L370 -183 Q354 -200 334 -209.5 Q314 -219 291 -219 Q254 -219 229.5 -197.5 Q205 -176 205 -138 Q205 -117 212.5 -97.5 Q220 -78 232 -60.5 Q244 -43 258.5 -27.5 Q273 -12 287 0 L285 0 Q284 8 283.5 20 Q283 32 282.5 45.5 Q282 59 282 71.5 Q282 84 282 93 L280 93 Q255 -13 160 -13 Q139 -13 118 -5 Q97 3 80 20 Q63 37 52 64.5 Q41 92 41 131 Q41 185 60 218.5 Q79 252 108 271 Q137 290 171.5 297 Q206 304 237 304 L276 304 L276 331 Q276 396 252 425.5 Q228 455 187 455 Q159 455 135 440 Q111 425 94 402 L59 443 Q82 476 119 494 Q156 512 193 512 Q271 512 304 461 Q337 410 337 312 L337 106 Q337 96 337.5 81 Q338 66 338.5 50.5 Q339 35 340 21.5 Q341 8 342 0 L331 0 Z M277 252 L237 252 Q213 252 189 247.5 Q165 243 146.5 230.5 Q128 218 116 196 Q104 174 104 139 Q104 87 127 64 Q150 41 177 41 Q205 41 224.5 58 Q244 75 255.5 101 Q267 127 272 158 Q277 189 277 218 L277 252 Z " />
<glyph glyph-name="Cacute" unicode="&#x106;" horiz-adv-x="479" d="M461 80 Q433 33 390 8 Q347 -17 293 -17 Q235 -17 190 11.5 Q145 40 114 89.5 Q83 139 66.5 207 Q50 275 50 354 Q50 434 66.5 502 Q83 570 114.5 619.5 Q146 669 191 697 Q236 725 293 725 Q343 725 386.5 704 Q430 683 459 638 L414 592 Q391 627 360.5 644 Q330 661 296 661 Q252 661 219.5 637 Q187 613 165.5 571 Q144 529 133.5 473 Q123 417 123 354 Q123 291 134 235.5 Q145 180 166.5 138 Q188 96 220.5 71.5 Q253 47 297 47 Q335 47 366 68.5 Q397 90 417 125 L461 80 Z M291 764 L235 764 L325 908 L397 908 L291 764 Z " />
<glyph glyph-name="cacute" unicode="&#x107;" horiz-adv-x="336" d="M328 35 Q288 -16 218 -16 Q176 -16 144 3.5 Q112 23 90.5 57.5 Q69 92 58 140.5 Q47 189 47 248 Q47 307 58 355.5 Q69 404 91 439 Q113 474 145 493 Q177 512 219 512 Q257 512 284 498 Q311 484 327 465 L292 417 Q280 434 262 444 Q244 454 220 454 Q193 454 173.5 438.5 Q154 423 141 395.5 Q128 368 121.5 330.5 Q115 293 115 248 Q115 204 121.5 167 Q128 130 141 103 Q154 76 174.5 61 Q195 46 223 46 Q248 46 266.5 56.5 Q285 67 298 86 L328 35 Z M218 569 L162 569 L252 713 L324 713 L218 569 Z " />
<glyph glyph-name="Ccircumflex" unicode="&#x108;" horiz-adv-x="479" d="M461 80 Q433 33 390 8 Q347 -17 293 -17 Q235 -17 190 11.5 Q145 40 114 89.5 Q83 139 66.5 207 Q50 275 50 354 Q50 434 66.5 502 Q83 570 114.5 619.5 Q146 669 191 697 Q236 725 293 725 Q343 725 386.5 704 Q430 683 459 638 L414 592 Q391 627 360.5 644 Q330 661 296 661 Q252 661 219.5 637 Q187 613 165.5 571 Q144 529 133.5 473 Q123 417 123 354 Q123 291 134 235.5 Q145 180 166.5 138 Q188 96 220.5 71.5 Q253 47 297 47 Q335 47 366 68.5 Q397 90 417 125 L461 80 Z M366 764 L294 869 L222 764 L157 764 L260 908 L330 908 L432 764 L366 764 Z " />
<glyph glyph-name="ccircumflex" unicode="&#x109;" horiz-adv-x="336" d="M328 35 Q288 -16 218 -16 Q176 -16 144 3.5 Q112 23 90.5 57.5 Q69 92 58 140.5 Q47 189 47 248 Q47 307 58 355.5 Q69 404 91 439 Q113 474 145 493 Q177 512 219 512 Q257 512 284 498 Q311 484 327 465 L292 417 Q280 434 262 444 Q244 454 220 454 Q193 454 173.5 438.5 Q154 423 141 395.5 Q128 368 121.5 330.5 Q115 293 115 248 Q115 204 121.5 167 Q128 130 141 103 Q154 76 174.5 61 Q195 46 223 46 Q248 46 266.5 56.5 Q285 67 298 86 L328 35 Z M291 569 L219 674 L147 569 L82 569 L185 713 L255 713 L357 569 L291 569 Z " />
<glyph glyph-name="Cdotaccent" unicode="&#x10a;" horiz-adv-x="479" d="M461 80 Q433 33 390 8 Q347 -17 293 -17 Q235 -17 190 11.5 Q145 40 114 89.5 Q83 139 66.5 207 Q50 275 50 354 Q50 434 66.5 502 Q83 570 114.5 619.5 Q146 669 191 697 Q236 725 293 725 Q343 725 386.5 704 Q430 683 459 638 L414 592 Q391 627 360.5 644 Q330 661 296 661 Q252 661 219.5 637 Q187 613 165.5 571 Q144 529 133.5 473 Q123 417 123 354 Q123 291 134 235.5 Q145 180 166.5 138 Q188 96 220.5 71.5 Q253 47 297 47 Q335 47 366 68.5 Q397 90 417 125 L461 80 Z M338 843 Q338 822 325 808.5 Q312 795 294 795 Q275 795 262.5 808.5 Q250 822 250 843 Q250 863 262.5 877 Q275 891 294 891 Q313 891 325.5 877 Q338 863 338 843 Z " />
<glyph glyph-name="cdotaccent" unicode="&#x10b;" horiz-adv-x="336" d="M328 35 Q288 -16 218 -16 Q176 -16 144 3.5 Q112 23 90.5 57.5 Q69 92 58 140.5 Q47 189 47 248 Q47 307 58 355.5 Q69 404 91 439 Q113 474 145 493 Q177 512 219 512 Q257 512 284 498 Q311 484 327 465 L292 417 Q280 434 262 444 Q244 454 220 454 Q193 454 173.5 438.5 Q154 423 141 395.5 Q128 368 121.5 330.5 Q115 293 115 248 Q115 204 121.5 167 Q128 130 141 103 Q154 76 174.5 61 Q195 46 223 46 Q248 46 266.5 56.5 Q285 67 298 86 L328 35 Z M263 648 Q263 627 250 613.5 Q237 600 219 600 Q200 600 187.5 613.5 Q175 627 175 648 Q175 668 187.5 682 Q200 696 219 696 Q238 696 250.5 682 Q263 668 263 648 Z " />
<glyph glyph-name="Ccaron" unicode="&#x10c;" horiz-adv-x="479" d="M461 80 Q433 33 390 8 Q347 -17 293 -17 Q235 -17 190 11.5 Q145 40 114 89.5 Q83 139 66.5 207 Q50 275 50 354 Q50 434 66.5 502 Q83 570 114.5 619.5 Q146 669 191 697 Q236 725 293 725 Q343 725 386.5 704 Q430 683 459 638 L414 592 Q391 627 360.5 644 Q330 661 296 661 Q252 661 219.5 637 Q187 613 165.5 571 Q144 529 133.5 473 Q123 417 123 354 Q123 291 134 235.5 Q145 180 166.5 138 Q188 96 220.5 71.5 Q253 47 297 47 Q335 47 366 68.5 Q397 90 417 125 L461 80 Z M330 763 L260 763 L157 907 L222 907 L294 802 L366 907 L432 907 L330 763 Z " />
<glyph glyph-name="ccaron" unicode="&#x10d;" horiz-adv-x="336" d="M328 35 Q288 -16 218 -16 Q176 -16 144 3.5 Q112 23 90.5 57.5 Q69 92 58 140.5 Q47 189 47 248 Q47 307 58 355.5 Q69 404 91 439 Q113 474 145 493 Q177 512 219 512 Q257 512 284 498 Q311 484 327 465 L292 417 Q280 434 262 444 Q244 454 220 454 Q193 454 173.5 438.5 Q154 423 141 395.5 Q128 368 121.5 330.5 Q115 293 115 248 Q115 204 121.5 167 Q128 130 141 103 Q154 76 174.5 61 Q195 46 223 46 Q248 46 266.5 56.5 Q285 67 298 86 L328 35 Z M253 568 L183 568 L80 712 L145 712 L217 607 L289 712 L355 712 L253 568 Z " />
<glyph glyph-name="Dcaron" unicode="&#x10e;" horiz-adv-x="541" d="M490 353 Q490 266 472 200 Q454 134 420 89.5 Q386 45 338.5 22.5 Q291 0 233 0 L81 0 L81 708 L234 708 Q292 708 339.5 685.5 Q387 663 420.5 618 Q454 573 472 506.5 Q490 440 490 353 Z M421 353 Q421 428 406.5 483.5 Q392 539 366.5 575 Q341 611 306.5 629 Q272 647 232 647 L150 647 L150 61 L232 61 Q272 61 306.5 79 Q341 97 366.5 133 Q392 169 406.5 224 Q421 279 421 353 Z M271 763 L201 763 L98 907 L163 907 L235 802 L307 907 L373 907 L271 763 Z " />
<glyph glyph-name="dcaron" unicode="&#x10f;" horiz-adv-x="466" d="M325 0 L325 89 L323 89 Q311 44 283 14 Q255 -16 204 -16 Q166 -16 137 4 Q108 24 88 59.5 Q68 95 57.5 143.5 Q47 192 47 250 Q47 308 57 356 Q67 404 86.5 438.5 Q106 473 135.5 492.5 Q165 512 203 512 Q248 512 279 484.5 Q310 457 321 412 L323 412 L323 756 L389 756 L389 0 L325 0 Z M325 248 Q325 292 318.5 330 Q312 368 298.5 395.5 Q285 423 265 439 Q245 455 219 455 Q192 455 172.5 439 Q153 423 140 395.5 Q127 368 121 330 Q115 292 115 248 Q115 205 121 167.5 Q127 130 140 102 Q153 74 172.5 58 Q192 42 219 42 Q246 42 265.5 58 Q285 74 298.5 102 Q312 130 318.5 167.5 Q325 205 325 248 Z M475 534 L425 534 L466 708 L524 708 L475 534 Z " />
<glyph glyph-name="Dcroat" unicode="&#x110;" horiz-adv-x="540" d="M488 354 Q488 267 469.5 200.5 Q451 134 417.5 89.5 Q384 45 336.5 22.5 Q289 0 231 0 L81 0 L81 341 L19 341 L19 390 L81 390 L81 708 L231 708 Q289 708 336.5 685.5 Q384 663 418 618 Q452 573 470 507 Q488 441 488 354 Z M422 354 Q422 429 407 484.5 Q392 540 366 576 Q340 612 305 630 Q270 648 229 648 L149 648 L149 390 L291 390 L291 341 L149 341 L149 60 L229 60 Q270 60 305 78 Q340 96 366 132.5 Q392 169 407 224 Q422 279 422 354 Z " />
<glyph glyph-name="dslash" unicode="&#x111;" horiz-adv-x="466" d="M325 0 L325 89 L323 89 Q311 44 283 13.5 Q255 -17 204 -17 Q166 -17 137 3 Q108 23 88 58.5 Q68 94 57.5 143 Q47 192 47 250 Q47 308 57 356 Q67 404 86.5 438.5 Q106 473 135.5 492.5 Q165 512 203 512 Q248 512 279 484.5 Q310 457 321 412 L323 412 L323 575 L177 575 L177 618 L323 618 L323 756 L389 756 L389 618 L435 618 L435 575 L389 575 L389 0 L325 0 Z M325 248 Q325 292 318.5 330 Q312 368 298.5 395.5 Q285 423 265 439 Q245 455 219 455 Q192 455 172.5 439 Q153 423 140 395.5 Q127 368 121 330 Q115 292 115 248 Q115 205 121 167.5 Q127 130 140 102 Q153 74 172.5 58 Q192 42 219 42 Q246 42 265.5 58 Q285 74 298.5 102 Q312 130 318.5 167.5 Q325 205 325 248 Z " />
<glyph glyph-name="Emacron" unicode="&#x112;" horiz-adv-x="418" d="M81 0 L81 708 L366 708 L366 646 L149 646 L149 397 L352 397 L352 338 L149 338 L149 63 L376 63 L376 0 L81 0 Z M101 809 L101 861 L350 861 L350 809 L101 809 Z " />
<glyph glyph-name="emacron" unicode="&#x113;" horiz-adv-x="423" d="M114 234 Q114 193 121 158.5 Q128 124 141.5 98.5 Q155 73 175.5 58.5 Q196 44 224 44 Q260 44 282 66 Q304 88 316 119 L366 90 Q348 45 312.5 14.5 Q277 -16 222 -16 Q139 -16 93 54 Q47 124 47 247 Q47 305 59 354 Q71 403 93.5 438 Q116 473 148.5 492.5 Q181 512 221 512 Q265 512 295.5 493 Q326 474 345 441 Q364 408 372.5 364 Q381 320 381 270 L381 234 L114 234 Z M314 289 Q314 364 291 409.5 Q268 455 219 455 Q190 455 170.5 437.5 Q151 420 138.5 394.5 Q126 369 120.5 340 Q115 311 115 289 L314 289 Z M102 614 L102 666 L351 666 L351 614 L102 614 Z " />
<glyph glyph-name="Ebreve" unicode="&#x114;" horiz-adv-x="418" d="M81 0 L81 708 L366 708 L366 646 L149 646 L149 397 L352 397 L352 338 L149 338 L149 63 L376 63 L376 0 L81 0 Z M354 900 Q346 831 309.5 799.5 Q273 768 222 768 Q173 768 136.5 799.5 Q100 831 93 900 L143 900 Q149 859 171.5 840 Q194 821 222 821 Q253 821 274.5 839 Q296 857 304 900 L354 900 Z " />
<glyph glyph-name="ebreve" unicode="&#x115;" horiz-adv-x="423" d="M114 234 Q114 193 121 158.5 Q128 124 141.5 98.5 Q155 73 175.5 58.5 Q196 44 224 44 Q260 44 282 66 Q304 88 316 119 L366 90 Q348 45 312.5 14.5 Q277 -16 222 -16 Q139 -16 93 54 Q47 124 47 247 Q47 305 59 354 Q71 403 93.5 438 Q116 473 148.5 492.5 Q181 512 221 512 Q265 512 295.5 493 Q326 474 345 441 Q364 408 372.5 364 Q381 320 381 270 L381 234 L114 234 Z M314 289 Q314 364 291 409.5 Q268 455 219 455 Q190 455 170.5 437.5 Q151 420 138.5 394.5 Q126 369 120.5 340 Q115 311 115 289 L314 289 Z M356 705 Q348 636 311.5 604.5 Q275 573 224 573 Q175 573 138.5 604.5 Q102 636 95 705 L145 705 Q151 664 173.5 645 Q196 626 224 626 Q255 626 276.5 644 Q298 662 306 705 L356 705 Z " />
<glyph glyph-name="Edotaccent" unicode="&#x116;" horiz-adv-x="418" d="M81 0 L81 708 L366 708 L366 646 L149 646 L149 397 L352 397 L352 338 L149 338 L149 63 L376 63 L376 0 L81 0 Z M271 843 Q271 822 258 808.5 Q245 795 227 795 Q208 795 195.5 808.5 Q183 822 183 843 Q183 863 195.5 877 Q208 891 227 891 Q246 891 258.5 877 Q271 863 271 843 Z " />
<glyph glyph-name="edotaccent" unicode="&#x117;" horiz-adv-x="423" d="M114 234 Q114 193 121 158.5 Q128 124 141.5 98.5 Q155 73 175.5 58.5 Q196 44 224 44 Q260 44 282 66 Q304 88 316 119 L366 90 Q348 45 312.5 14.5 Q277 -16 222 -16 Q139 -16 93 54 Q47 124 47 247 Q47 305 59 354 Q71 403 93.5 438 Q116 473 148.5 492.5 Q181 512 221 512 Q265 512 295.5 493 Q326 474 345 441 Q364 408 372.5 364 Q381 320 381 270 L381 234 L114 234 Z M314 289 Q314 364 291 409.5 Q268 455 219 455 Q190 455 170.5 437.5 Q151 420 138.5 394.5 Q126 369 120.5 340 Q115 311 115 289 L314 289 Z M265 648 Q265 627 252 613.5 Q239 600 221 600 Q202 600 189.5 613.5 Q177 627 177 648 Q177 668 189.5 682 Q202 696 221 696 Q240 696 252.5 682 Q265 668 265 648 Z " />
<glyph glyph-name="Eogonek" unicode="&#x118;" horiz-adv-x="418" d="M394 -183 Q378 -200 358 -209.5 Q338 -219 315 -219 Q278 -219 253.5 -197.5 Q229 -176 229 -138 Q229 -117 236.5 -97.5 Q244 -78 256 -60.5 Q268 -43 282.5 -27.5 Q297 -12 311 0 L81 0 L81 708 L366 708 L366 646 L149 646 L149 397 L352 397 L352 338 L149 338 L149 63 L376 63 L376 0 L355 0 Q321 -37 302.5 -64.5 Q284 -92 284 -121 Q284 -142 297.5 -155.5 Q311 -169 330 -169 Q358 -169 377 -147 L394 -183 Z " />
<glyph glyph-name="eogonek" unicode="&#x119;" horiz-adv-x="423" d="M322 -183 Q306 -200 286 -209.5 Q266 -219 243 -219 Q206 -219 181.5 -197.5 Q157 -176 157 -138 Q157 -103 176.5 -72 Q196 -41 220 -17 Q138 -16 92.5 54.5 Q47 125 47 247 Q47 305 59 354 Q71 403 93.5 438 Q116 473 148.5 492.5 Q181 512 221 512 Q265 512 295.5 493 Q326 474 345 441 Q364 408 372.5 364 Q381 320 381 270 L381 234 L114 234 Q114 193 121 158 Q128 123 141.5 97.5 Q155 72 175.5 57.5 Q196 43 224 43 Q260 43 282 65 Q304 87 316 118 L366 89 Q352 56 330 30.5 Q308 5 276 -7 Q245 -41 228.5 -67 Q212 -93 212 -121 Q212 -142 225.5 -155.5 Q239 -169 258 -169 Q286 -169 305 -147 L322 -183 Z M314 289 Q314 364 291 409.5 Q268 455 219 455 Q190 455 170.5 437.5 Q151 420 138.5 394.5 Q126 369 120.5 340 Q115 311 115 289 L314 289 Z " />
<glyph glyph-name="Ecaron" unicode="&#x11a;" horiz-adv-x="418" d="M81 0 L81 708 L366 708 L366 646 L149 646 L149 397 L352 397 L352 338 L149 338 L149 63 L376 63 L376 0 L81 0 Z M257 763 L187 763 L84 907 L149 907 L221 802 L293 907 L359 907 L257 763 Z " />
<glyph glyph-name="ecaron" unicode="&#x11b;" horiz-adv-x="423" d="M114 234 Q114 193 121 158.5 Q128 124 141.5 98.5 Q155 73 175.5 58.5 Q196 44 224 44 Q260 44 282 66 Q304 88 316 119 L366 90 Q348 45 312.5 14.5 Q277 -16 222 -16 Q139 -16 93 54 Q47 124 47 247 Q47 305 59 354 Q71 403 93.5 438 Q116 473 148.5 492.5 Q181 512 221 512 Q265 512 295.5 493 Q326 474 345 441 Q364 408 372.5 364 Q381 320 381 270 L381 234 L114 234 Z M314 289 Q314 364 291 409.5 Q268 455 219 455 Q190 455 170.5 437.5 Q151 420 138.5 394.5 Q126 369 120.5 340 Q115 311 115 289 L314 289 Z M257 568 L187 568 L84 712 L149 712 L221 607 L293 712 L359 712 L257 568 Z " />
<glyph glyph-name="Gcircumflex" unicode="&#x11c;" horiz-adv-x="535" d="M469 44 Q440 18 398.5 2.5 Q357 -13 301 -13 Q242 -13 195 13 Q148 39 116 87 Q84 135 67 203 Q50 271 50 355 Q50 434 66.5 502 Q83 570 114 619.5 Q145 669 190 697 Q235 725 292 725 Q344 725 387 704 Q430 683 459 638 L414 592 Q391 627 360.5 644.5 Q330 662 295 662 Q251 662 219 637.5 Q187 613 165.5 571 Q144 529 133.5 473.5 Q123 418 123 355 Q123 289 134 233 Q145 177 167.5 136.5 Q190 96 223.5 73 Q257 50 301 50 Q333 50 358.5 58 Q384 66 401 81 L401 321 L300 321 L300 382 L469 382 L469 44 Z M366 764 L294 869 L222 764 L157 764 L260 908 L330 908 L432 764 L366 764 Z " />
<glyph glyph-name="gcircumflex" unicode="&#x11d;" horiz-adv-x="466" d="M389 7 Q389 -46 380.5 -91 Q372 -136 352 -169 Q332 -202 298 -221 Q264 -240 213 -240 Q164 -240 121.5 -217.5 Q79 -195 53 -157 L96 -111 Q116 -142 146.5 -161 Q177 -180 215 -180 Q248 -180 269.5 -166 Q291 -152 303 -127 Q315 -102 320 -68 Q325 -34 325 7 L325 89 L323 89 Q311 44 283 14 Q255 -16 204 -16 Q166 -16 137 4 Q108 24 88 59.5 Q68 95 57.5 143.5 Q47 192 47 250 Q47 308 57 356 Q67 404 86.5 438.5 Q106 473 135.5 492.5 Q165 512 203 512 Q248 512 279.5 484.5 Q311 457 322 412 L325 412 L325 496 L389 496 L389 7 Z M325 248 Q325 291 318.5 329 Q312 367 298.5 395 Q285 423 265 439 Q245 455 219 455 Q192 455 172.5 439 Q153 423 140 395.5 Q127 368 121 330 Q115 292 115 248 Q115 205 121 167.5 Q127 130 140 102 Q153 74 172.5 58 Q192 42 219 42 Q246 42 265.5 58 Q285 74 298.5 101.5 Q312 129 318.5 166.5 Q325 204 325 248 Z M306 569 L234 674 L162 569 L97 569 L200 713 L270 713 L372 569 L306 569 Z " />
<glyph glyph-name="Gbreve" unicode="&#x11e;" horiz-adv-x="535" d="M469 44 Q440 18 398.5 2.5 Q357 -13 301 -13 Q242 -13 195 13 Q148 39 116 87 Q84 135 67 203 Q50 271 50 355 Q50 434 66.5 502 Q83 570 114 619.5 Q145 669 190 697 Q235 725 292 725 Q344 725 387 704 Q430 683 459 638 L414 592 Q391 627 360.5 644.5 Q330 662 295 662 Q251 662 219 637.5 Q187 613 165.5 571 Q144 529 133.5 473.5 Q123 418 123 355 Q123 289 134 233 Q145 177 167.5 136.5 Q190 96 223.5 73 Q257 50 301 50 Q333 50 358.5 58 Q384 66 401 81 L401 321 L300 321 L300 382 L469 382 L469 44 Z M423 900 Q415 831 378.5 799.5 Q342 768 291 768 Q242 768 205.5 799.5 Q169 831 162 900 L212 900 Q218 859 240.5 840 Q263 821 291 821 Q322 821 343.5 839 Q365 857 373 900 L423 900 Z " />
<glyph glyph-name="gbreve" unicode="&#x11f;" horiz-adv-x="466" d="M389 7 Q389 -46 380.5 -91 Q372 -136 352 -169 Q332 -202 298 -221 Q264 -240 213 -240 Q164 -240 121.5 -217.5 Q79 -195 53 -157 L96 -111 Q116 -142 146.5 -161 Q177 -180 215 -180 Q248 -180 269.5 -166 Q291 -152 303 -127 Q315 -102 320 -68 Q325 -34 325 7 L325 89 L323 89 Q311 44 283 14 Q255 -16 204 -16 Q166 -16 137 4 Q108 24 88 59.5 Q68 95 57.5 143.5 Q47 192 47 250 Q47 308 57 356 Q67 404 86.5 438.5 Q106 473 135.5 492.5 Q165 512 203 512 Q248 512 279.5 484.5 Q311 457 322 412 L325 412 L325 496 L389 496 L389 7 Z M325 248 Q325 291 318.5 329 Q312 367 298.5 395 Q285 423 265 439 Q245 455 219 455 Q192 455 172.5 439 Q153 423 140 395.5 Q127 368 121 330 Q115 292 115 248 Q115 205 121 167.5 Q127 130 140 102 Q153 74 172.5 58 Q192 42 219 42 Q246 42 265.5 58 Q285 74 298.5 101.5 Q312 129 318.5 166.5 Q325 204 325 248 Z M366 705 Q358 636 321.5 604.5 Q285 573 234 573 Q185 573 148.5 604.5 Q112 636 105 705 L155 705 Q161 664 183.5 645 Q206 626 234 626 Q265 626 286.5 644 Q308 662 316 705 L366 705 Z " />
<glyph glyph-name="Gdotaccent" unicode="&#x120;" horiz-adv-x="535" d="M469 44 Q440 18 398.5 2.5 Q357 -13 301 -13 Q242 -13 195 13 Q148 39 116 87 Q84 135 67 203 Q50 271 50 355 Q50 434 66.5 502 Q83 570 114 619.5 Q145 669 190 697 Q235 725 292 725 Q344 725 387 704 Q430 683 459 638 L414 592 Q391 627 360.5 644.5 Q330 662 295 662 Q251 662 219 637.5 Q187 613 165.5 571 Q144 529 133.5 473.5 Q123 418 123 355 Q123 289 134 233 Q145 177 167.5 136.5 Q190 96 223.5 73 Q257 50 301 50 Q333 50 358.5 58 Q384 66 401 81 L401 321 L300 321 L300 382 L469 382 L469 44 Z M338 843 Q338 822 325 808.5 Q312 795 294 795 Q275 795 262.5 808.5 Q250 822 250 843 Q250 863 262.5 877 Q275 891 294 891 Q313 891 325.5 877 Q338 863 338 843 Z " />
<glyph glyph-name="gdotaccent" unicode="&#x121;" horiz-adv-x="466" d="M389 7 Q389 -46 380.5 -91 Q372 -136 352 -169 Q332 -202 298 -221 Q264 -240 213 -240 Q164 -240 121.5 -217.5 Q79 -195 53 -157 L96 -111 Q116 -142 146.5 -161 Q177 -180 215 -180 Q248 -180 269.5 -166 Q291 -152 303 -127 Q315 -102 320 -68 Q325 -34 325 7 L325 89 L323 89 Q311 44 283 14 Q255 -16 204 -16 Q166 -16 137 4 Q108 24 88 59.5 Q68 95 57.5 143.5 Q47 192 47 250 Q47 308 57 356 Q67 404 86.5 438.5 Q106 473 135.5 492.5 Q165 512 203 512 Q248 512 279.5 484.5 Q311 457 322 412 L325 412 L325 496 L389 496 L389 7 Z M325 248 Q325 291 318.5 329 Q312 367 298.5 395 Q285 423 265 439 Q245 455 219 455 Q192 455 172.5 439 Q153 423 140 395.5 Q127 368 121 330 Q115 292 115 248 Q115 205 121 167.5 Q127 130 140 102 Q153 74 172.5 58 Q192 42 219 42 Q246 42 265.5 58 Q285 74 298.5 101.5 Q312 129 318.5 166.5 Q325 204 325 248 Z M276 648 Q276 627 263 613.5 Q250 600 232 600 Q213 600 200.5 613.5 Q188 627 188 648 Q188 668 200.5 682 Q213 696 232 696 Q251 696 263.5 682 Q276 668 276 648 Z " />
<glyph glyph-name="Gcommaaccent" unicode="&#x122;" horiz-adv-x="535" d="M469 44 Q440 18 398.5 2.5 Q357 -13 301 -13 Q242 -13 195 13 Q148 39 116 87 Q84 135 67 203 Q50 271 50 355 Q50 434 66.5 502 Q83 570 114 619.5 Q145 669 190 697 Q235 725 292 725 Q344 725 387 704 Q430 683 459 638 L414 592 Q391 627 360.5 644.5 Q330 662 295 662 Q251 662 219 637.5 Q187 613 165.5 571 Q144 529 133.5 473.5 Q123 418 123 355 Q123 289 134 233 Q145 177 167.5 136.5 Q190 96 223.5 73 Q257 50 301 50 Q333 50 358.5 58 Q384 66 401 81 L401 321 L300 321 L300 382 L469 382 L469 44 Z M280 -219 L230 -219 L271 -45 L329 -45 L280 -219 Z " />
<glyph glyph-name="gcommaaccent" unicode="&#x123;" horiz-adv-x="466" d="M389 7 Q389 -46 380.5 -91 Q372 -136 352 -169 Q332 -202 298 -221 Q264 -240 213 -240 Q164 -240 121.5 -217.5 Q79 -195 53 -157 L96 -111 Q116 -142 146.5 -161 Q177 -180 215 -180 Q248 -180 269.5 -166 Q291 -152 303 -127 Q315 -102 320 -68 Q325 -34 325 7 L325 89 L323 89 Q311 44 283 14 Q255 -16 204 -16 Q166 -16 137 4 Q108 24 88 59.5 Q68 95 57.5 143.5 Q47 192 47 250 Q47 308 57 356 Q67 404 86.5 438.5 Q106 473 135.5 492.5 Q165 512 203 512 Q248 512 279.5 484.5 Q311 457 322 412 L325 412 L325 496 L389 496 L389 7 Z M325 248 Q325 291 318.5 329 Q312 367 298.5 395 Q285 423 265 439 Q245 455 219 455 Q192 455 172.5 439 Q153 423 140 395.5 Q127 368 121 330 Q115 292 115 248 Q115 205 121 167.5 Q127 130 140 102 Q153 74 172.5 58 Q192 42 219 42 Q246 42 265.5 58 Q285 74 298.5 101.5 Q312 129 318.5 166.5 Q325 204 325 248 Z M243 743 L293 743 L252 569 L194 569 L243 743 Z " />
<glyph glyph-name="Hcircumflex" unicode="&#x124;" horiz-adv-x="573" d="M422 0 L422 336 L151 336 L151 0 L81 0 L81 708 L151 708 L151 398 L422 398 L422 708 L492 708 L492 0 L422 0 Z M360 764 L288 869 L216 764 L151 764 L254 908 L324 908 L426 764 L360 764 Z " />
<glyph glyph-name="hcircumflex" unicode="&#x125;" horiz-adv-x="467" d="M327 0 L327 320 Q327 343 324.5 366.5 Q322 390 314 409.5 Q306 429 290.5 441.5 Q275 454 250 454 Q225 454 205.5 440.5 Q186 427 172 403.5 Q158 380 150.5 349.5 Q143 319 143 286 L143 0 L77 0 L77 756 L143 756 L143 402 L145 402 Q158 450 190 481 Q222 512 270 512 Q310 512 334.5 495 Q359 478 372 450.5 Q385 423 389.5 388.5 Q394 354 394 320 L394 0 L327 0 Z M302 796 L230 901 L158 796 L93 796 L196 940 L266 940 L368 796 L302 796 Z " />
<glyph glyph-name="Hbar" unicode="&#x126;" horiz-adv-x="573" d="M422 0 L422 336 L151 336 L151 0 L81 0 L81 708 L151 708 L151 553 L422 553 L422 708 L492 708 L492 0 L422 0 Z M422 398 L422 510 L151 510 L151 398 L422 398 Z " />
<glyph glyph-name="hbar" unicode="&#x127;" horiz-adv-x="467" d="M143 575 L143 402 L145 402 Q158 450 190 481 Q222 512 270 512 Q310 512 334.5 495 Q359 478 372 450.5 Q385 423 389.5 388.5 Q394 354 394 320 L394 0 L327 0 L327 320 Q327 343 324.5 366.5 Q322 390 314 409.5 Q306 429 290.5 441.5 Q275 454 250 454 Q225 454 205.5 440.5 Q186 427 172 403.5 Q158 380 150.5 349.5 Q143 319 143 286 L143 0 L77 0 L77 575 L22 575 L22 618 L77 618 L77 756 L143 756 L143 618 L280 618 L280 575 L143 575 Z " />
<glyph glyph-name="Itilde" unicode="&#x128;" horiz-adv-x="232" d="M81 0 L81 708 L151 708 L151 0 L81 0 Z M246 880 Q243 831 224.5 806.5 Q206 782 177 782 Q161 782 147.5 787 Q134 792 114 806 Q91 821 81.5 825.5 Q72 830 61 830 Q45 830 38 817 Q31 804 27 781 L-10 781 Q-7 826 11 854 Q29 882 59 882 Q77 882 89.5 876.5 Q102 871 122 858 Q145 843 155 838.5 Q165 834 176 834 Q192 834 198.5 844.5 Q205 855 209 880 L246 880 Z " />
<glyph glyph-name="itilde" unicode="&#x129;" horiz-adv-x="220" d="M77 0 L77 496 L143 496 L143 0 L77 0 Z M238 685 Q235 636 216.5 611.5 Q198 587 169 587 Q153 587 139.5 592 Q126 597 106 611 Q83 626 73.5 630.5 Q64 635 53 635 Q37 635 30 622 Q23 609 19 586 L-18 586 Q-15 631 3 659 Q21 687 51 687 Q69 687 81.5 681.5 Q94 676 114 663 Q137 648 147 643.5 Q157 639 168 639 Q184 639 190.5 649.5 Q197 660 201 685 L238 685 Z " />
<glyph glyph-name="Imacron" unicode="&#x12a;" horiz-adv-x="232" d="M81 0 L81 708 L151 708 L151 0 L81 0 Z M-8 809 L-8 861 L241 861 L241 809 L-8 809 Z " />
<glyph glyph-name="imacron" unicode="&#x12b;" horiz-adv-x="220" d="M77 0 L77 496 L143 496 L143 0 L77 0 Z M-13 614 L-13 666 L236 666 L236 614 L-13 614 Z " />
<glyph glyph-name="Iogonek" unicode="&#x12e;" horiz-adv-x="232" d="M186 -183 Q170 -200 150 -209.5 Q130 -219 107 -219 Q70 -219 45.5 -197.5 Q21 -176 21 -138 Q21 -117 28.5 -97.5 Q36 -78 48 -60.5 Q60 -43 74.5 -27.5 Q89 -12 103 0 L81 0 L81 708 L151 708 L151 0 L147 0 Q113 -37 94.5 -64.5 Q76 -92 76 -121 Q76 -142 89.5 -155.5 Q103 -169 122 -169 Q150 -169 169 -147 L186 -183 Z " />
<glyph glyph-name="iogonek" unicode="&#x12f;" horiz-adv-x="220" d="M175 -183 Q159 -200 139 -209.5 Q119 -219 96 -219 Q59 -219 34.5 -197.5 Q10 -176 10 -138 Q10 -117 17.5 -97.5 Q25 -78 37 -60.5 Q49 -43 63.5 -27.5 Q78 -12 92 0 L77 0 L77 496 L143 496 L143 0 L136 0 Q102 -37 83.5 -64.5 Q65 -92 65 -121 Q65 -142 78.5 -155.5 Q92 -169 111 -169 Q139 -169 158 -147 L175 -183 Z M154 648 Q154 627 141 613.5 Q128 600 110 600 Q91 600 78.5 613.5 Q66 627 66 648 Q66 668 78.5 682 Q91 696 110 696 Q129 696 141.5 682 Q154 668 154 648 Z " />
<glyph glyph-name="Idot" unicode="&#x130;" horiz-adv-x="232" d="M81 0 L81 708 L151 708 L151 0 L81 0 Z M160 843 Q160 822 147 808.5 Q134 795 116 795 Q97 795 84.5 808.5 Q72 822 72 843 Q72 863 84.5 877 Q97 891 116 891 Q135 891 147.5 877 Q160 863 160 843 Z " />
<glyph glyph-name="dotlessi" unicode="&#x131;" horiz-adv-x="220" d="M77 0 L77 496 L143 496 L143 0 L77 0 Z " />
<glyph glyph-name="IJ" unicode="&#x132;" horiz-adv-x="602" d="M81 0 L81 708 L151 708 L151 0 L81 0 Z M526 194 Q526 94 488.5 38.5 Q451 -17 368 -17 Q307 -17 270 16 Q233 49 219 104 L281 129 Q288 96 309.5 71.5 Q331 47 367 47 Q419 47 437.5 89 Q456 131 456 204 L456 708 L526 708 L526 194 Z " />
<glyph glyph-name="ij" unicode="&#x133;" horiz-adv-x="440" d="M154 648 Q154 627 141 613.5 Q128 600 110 600 Q91 600 78.5 613.5 Q66 627 66 648 Q66 668 78.5 682 Q91 696 110 696 Q129 696 141.5 682 Q154 668 154 648 Z M77 0 L77 496 L143 496 L143 0 L77 0 Z M374 648 Q374 627 361.5 613.5 Q349 600 330 600 Q312 600 299.5 613.5 Q287 627 287 648 Q287 668 299.5 682 Q312 696 330 696 Q349 696 361.5 682 Q374 668 374 648 Z M364 -73 Q364 -149 335 -194.5 Q306 -240 237 -240 Q229 -240 218.5 -238.5 Q208 -237 198 -234 L204 -174 Q219 -179 233 -179 Q253 -179 265.5 -170 Q278 -161 285.5 -146 Q293 -131 295.5 -111 Q298 -91 298 -69 L298 496 L364 496 L364 -73 Z " />
<glyph glyph-name="Jcircumflex" unicode="&#x134;" horiz-adv-x="379" d="M303 194 Q303 94 265.5 38.5 Q228 -17 145 -17 Q84 -17 47 16 Q10 49 -4 104 L58 129 Q65 96 86.5 71.5 Q108 47 144 47 Q196 47 214.5 89 Q233 131 233 204 L233 708 L303 708 L303 194 Z M339 764 L267 869 L195 764 L130 764 L233 908 L303 908 L405 764 L339 764 Z " />
<glyph glyph-name="jcircumflex" unicode="&#x135;" horiz-adv-x="221" d="M145 -73 Q145 -149 116 -194.5 Q87 -240 18 -240 Q10 -240 -0.5 -238.5 Q-11 -237 -21 -234 L-15 -174 Q0 -179 14 -179 Q34 -179 46.5 -170 Q59 -161 66.5 -146 Q74 -131 76.5 -111 Q79 -91 79 -69 L79 496 L145 496 L145 -73 Z M184 569 L112 674 L40 569 L-25 569 L78 713 L148 713 L250 569 L184 569 Z " />
<glyph glyph-name="Kcommaaccent" unicode="&#x136;" horiz-adv-x="482" d="M387 0 L151 363 L150 363 L150 0 L81 0 L81 708 L150 708 L150 390 L151 390 L373 708 L454 708 L216 381 L471 0 L387 0 Z M242 -219 L192 -219 L233 -45 L291 -45 L242 -219 Z " />
<glyph glyph-name="kcommaaccent" unicode="&#x137;" horiz-adv-x="400" d="M315 0 L145 250 L143 250 L143 0 L77 0 L77 756 L143 756 L143 277 L145 277 L305 496 L384 496 L206 266 L395 0 L315 0 Z M204 -219 L154 -219 L195 -45 L253 -45 L204 -219 Z " />
<glyph glyph-name="Lacute" unicode="&#x139;" horiz-adv-x="357" d="M81 0 L81 708 L151 708 L151 65 L353 65 L353 0 L81 0 Z M142 764 L86 764 L176 908 L248 908 L142 764 Z " />
<glyph glyph-name="lacute" unicode="&#x13a;" horiz-adv-x="220" d="M77 0 L77 756 L143 756 L143 0 L77 0 Z M133 797 L77 797 L167 941 L239 941 L133 797 Z " />
<glyph glyph-name="Lcommaaccent" unicode="&#x13b;" horiz-adv-x="357" d="M81 0 L81 708 L151 708 L151 65 L353 65 L353 0 L81 0 Z M198 -219 L148 -219 L189 -45 L247 -45 L198 -219 Z " />
<glyph glyph-name="lcommaaccent" unicode="&#x13c;" horiz-adv-x="220" d="M77 0 L77 756 L143 756 L143 0 L77 0 Z M95 -219 L45 -219 L86 -45 L144 -45 L95 -219 Z " />
<glyph glyph-name="Lcaron" unicode="&#x13d;" horiz-adv-x="357" d="M81 0 L81 708 L151 708 L151 65 L353 65 L353 0 L81 0 Z M236 534 L186 534 L227 708 L285 708 L236 534 Z " />
<glyph glyph-name="lcaron" unicode="&#x13e;" horiz-adv-x="220" d="M77 0 L77 756 L143 756 L143 0 L77 0 Z M239 534 L189 534 L230 708 L288 708 L239 534 Z " />
<glyph glyph-name="Ldot" unicode="&#x13f;" horiz-adv-x="357" d="M81 0 L81 708 L151 708 L151 65 L353 65 L353 0 L81 0 Z M334 328 Q334 307 321 293.5 Q308 280 290 280 Q271 280 258.5 293.5 Q246 307 246 328 Q246 348 258.5 362 Q271 376 290 376 Q309 376 321.5 362 Q334 348 334 328 Z " />
<glyph glyph-name="ldot" unicode="&#x140;" horiz-adv-x="285" d="M77 0 L77 756 L143 756 L143 0 L77 0 Z M296 328 Q296 307 283 293.5 Q270 280 252 280 Q233 280 220.5 293.5 Q208 307 208 328 Q208 348 220.5 362 Q233 376 252 376 Q271 376 283.5 362 Q296 348 296 328 Z " />
<glyph glyph-name="Lslash" unicode="&#x141;" horiz-adv-x="355" d="M81 0 L81 236 L38 191 L38 257 L81 302 L81 708 L150 708 L150 354 L281 487 L281 421 L150 288 L150 63 L351 63 L351 0 L81 0 Z " />
<glyph glyph-name="lslash" unicode="&#x142;" horiz-adv-x="223" d="M145 382 L145 0 L78 0 L78 331 L35 285 L35 348 L78 393 L78 756 L145 756 L145 444 L196 499 L196 437 L145 382 Z " />
<glyph glyph-name="Nacute" unicode="&#x143;" horiz-adv-x="561" d="M396 0 L149 589 L146 589 L146 0 L81 0 L81 708 L168 708 L413 119 L416 119 L416 708 L480 708 L480 0 L396 0 Z M280 764 L224 764 L314 908 L386 908 L280 764 Z " />
<glyph glyph-name="nacute" unicode="&#x144;" horiz-adv-x="470" d="M331 0 L331 320 Q331 343 328.5 366.5 Q326 390 317.5 409.5 Q309 429 293.5 441.5 Q278 454 253 454 Q228 454 208.5 440.5 Q189 427 175.5 403.5 Q162 380 154.5 349.5 Q147 319 147 286 L147 0 L81 0 L81 371 Q81 387 80.5 405.5 Q80 424 79.5 441.5 Q79 459 78.5 473.5 Q78 488 77 496 L141 496 Q143 477 144 450 Q145 423 145 399 L147 399 Q161 449 193 480.5 Q225 512 273 512 Q313 512 337.5 495 Q362 478 375 450.5 Q388 423 392.5 388.5 Q397 354 397 320 L397 0 L331 0 Z M242 569 L186 569 L276 713 L348 713 L242 569 Z " />
<glyph glyph-name="Ncommaaccent" unicode="&#x145;" horiz-adv-x="561" d="M396 0 L149 589 L146 589 L146 0 L81 0 L81 708 L168 708 L413 119 L416 119 L416 708 L480 708 L480 0 L396 0 Z M260 -219 L210 -219 L251 -45 L309 -45 L260 -219 Z " />
<glyph glyph-name="ncommaaccent" unicode="&#x146;" horiz-adv-x="470" d="M331 0 L331 320 Q331 343 328.5 366.5 Q326 390 317.5 409.5 Q309 429 293.5 441.5 Q278 454 253 454 Q228 454 208.5 440.5 Q189 427 175.5 403.5 Q162 380 154.5 349.5 Q147 319 147 286 L147 0 L81 0 L81 371 Q81 387 80.5 405.5 Q80 424 79.5 441.5 Q79 459 78.5 473.5 Q78 488 77 496 L141 496 Q143 477 144 450 Q145 423 145 399 L147 399 Q161 449 193 480.5 Q225 512 273 512 Q313 512 337.5 495 Q362 478 375 450.5 Q388 423 392.5 388.5 Q397 354 397 320 L397 0 L331 0 Z M218 -219 L168 -219 L209 -45 L267 -45 L218 -219 Z " />
<glyph glyph-name="Ncaron" unicode="&#x147;" horiz-adv-x="561" d="M396 0 L149 589 L146 589 L146 0 L81 0 L81 708 L168 708 L413 119 L416 119 L416 708 L480 708 L480 0 L396 0 Z M317 763 L247 763 L144 907 L209 907 L281 802 L353 907 L419 907 L317 763 Z " />
<glyph glyph-name="ncaron" unicode="&#x148;" horiz-adv-x="470" d="M331 0 L331 320 Q331 343 328.5 366.5 Q326 390 317.5 409.5 Q309 429 293.5 441.5 Q278 454 253 454 Q228 454 208.5 440.5 Q189 427 175.5 403.5 Q162 380 154.5 349.5 Q147 319 147 286 L147 0 L81 0 L81 371 Q81 387 80.5 405.5 Q80 424 79.5 441.5 Q79 459 78.5 473.5 Q78 488 77 496 L141 496 Q143 477 144 450 Q145 423 145 399 L147 399 Q161 449 193 480.5 Q225 512 273 512 Q313 512 337.5 495 Q362 478 375 450.5 Q388 423 392.5 388.5 Q397 354 397 320 L397 0 L331 0 Z M275 568 L205 568 L102 712 L167 712 L239 607 L311 712 L377 712 L275 568 Z " />
<glyph glyph-name="napostrophe" unicode="&#x149;" horiz-adv-x="478" d="M339 0 L339 320 Q339 343 336.5 366.5 Q334 390 325.5 409.5 Q317 429 301.5 441.5 Q286 454 261 454 Q236 454 216.5 440.5 Q197 427 183.5 403.5 Q170 380 162.5 349.5 Q155 319 155 286 L155 0 L89 0 L89 371 Q89 387 88.5 405.5 Q88 424 87.5 441.5 Q87 459 86.5 473.5 Q86 488 85 496 L149 496 Q151 477 152 450 Q153 423 153 399 L155 399 Q169 449 201 480.5 Q233 512 281 512 Q321 512 345.5 495 Q370 478 383 450.5 Q396 423 400.5 388.5 Q405 354 405 320 L405 0 L339 0 Z M60 534 L10 534 L51 708 L109 708 L60 534 Z " />
<glyph glyph-name="Omacron" unicode="&#x14c;" horiz-adv-x="570" d="M519 355 Q519 272 503 203.5 Q487 135 457 86 Q427 37 384 10 Q341 -17 286 -17 Q231 -17 187.5 10 Q144 37 113.5 86 Q83 135 67 203.5 Q51 272 51 355 Q51 437 66.5 505.5 Q82 574 112 622.5 Q142 671 185.5 698 Q229 725 286 725 Q341 725 384 698 Q427 671 457 622.5 Q487 574 503 505.5 Q519 437 519 355 Z M446 355 Q446 419 436 475 Q426 531 405.5 572 Q385 613 355 637 Q325 661 286 661 Q245 661 214.5 637 Q184 613 164 572 Q144 531 134 475 Q124 419 124 355 Q124 291 134 235 Q144 179 164 137 Q184 95 214.5 71 Q245 47 286 47 Q326 47 356 71 Q386 95 406 137 Q426 179 436 235 Q446 291 446 355 Z M161 809 L161 861 L410 861 L410 809 L161 809 Z " />
<glyph glyph-name="omacron" unicode="&#x14d;" horiz-adv-x="440" d="M393 247 Q393 188 381 140 Q369 92 347 57 Q325 22 292.5 3 Q260 -16 220 -16 Q180 -16 148 3 Q116 22 93.5 57 Q71 92 59 140 Q47 188 47 247 Q47 306 58.5 355 Q70 404 92 439 Q114 474 146.5 493 Q179 512 220 512 Q260 512 292.5 493 Q325 474 347 439 Q369 404 381 355 Q393 306 393 247 Z M325 248 Q325 292 318.5 330 Q312 368 299 395.5 Q286 423 266.5 439 Q247 455 220 455 Q193 455 173 439 Q153 423 140.5 395.5 Q128 368 121.5 330 Q115 292 115 248 Q115 204 121.5 167 Q128 130 140.5 102 Q153 74 173 58.5 Q193 43 220 43 Q247 43 267 58.5 Q287 74 299.5 102 Q312 130 318.5 167 Q325 204 325 248 Z M96 614 L96 666 L345 666 L345 614 L96 614 Z " />
<glyph glyph-name="Obreve" unicode="&#x14e;" horiz-adv-x="570" d="M519 355 Q519 272 503 203.5 Q487 135 457 86 Q427 37 384 10 Q341 -17 286 -17 Q231 -17 187.5 10 Q144 37 113.5 86 Q83 135 67 203.5 Q51 272 51 355 Q51 437 66.5 505.5 Q82 574 112 622.5 Q142 671 185.5 698 Q229 725 286 725 Q341 725 384 698 Q427 671 457 622.5 Q487 574 503 505.5 Q519 437 519 355 Z M446 355 Q446 419 436 475 Q426 531 405.5 572 Q385 613 355 637 Q325 661 286 661 Q245 661 214.5 637 Q184 613 164 572 Q144 531 134 475 Q124 419 124 355 Q124 291 134 235 Q144 179 164 137 Q184 95 214.5 71 Q245 47 286 47 Q326 47 356 71 Q386 95 406 137 Q426 179 436 235 Q446 291 446 355 Z M416 900 Q408 831 371.5 799.5 Q335 768 284 768 Q235 768 198.5 799.5 Q162 831 155 900 L205 900 Q211 859 233.5 840 Q256 821 284 821 Q315 821 336.5 839 Q358 857 366 900 L416 900 Z " />
<glyph glyph-name="obreve" unicode="&#x14f;" horiz-adv-x="440" d="M393 247 Q393 188 381 140 Q369 92 347 57 Q325 22 292.5 3 Q260 -16 220 -16 Q180 -16 148 3 Q116 22 93.5 57 Q71 92 59 140 Q47 188 47 247 Q47 306 58.5 355 Q70 404 92 439 Q114 474 146.5 493 Q179 512 220 512 Q260 512 292.5 493 Q325 474 347 439 Q369 404 381 355 Q393 306 393 247 Z M325 248 Q325 292 318.5 330 Q312 368 299 395.5 Q286 423 266.5 439 Q247 455 220 455 Q193 455 173 439 Q153 423 140.5 395.5 Q128 368 121.5 330 Q115 292 115 248 Q115 204 121.5 167 Q128 130 140.5 102 Q153 74 173 58.5 Q193 43 220 43 Q247 43 267 58.5 Q287 74 299.5 102 Q312 130 318.5 167 Q325 204 325 248 Z M351 705 Q343 636 306.5 604.5 Q270 573 219 573 Q170 573 133.5 604.5 Q97 636 90 705 L140 705 Q146 664 168.5 645 Q191 626 219 626 Q250 626 271.5 644 Q293 662 301 705 L351 705 Z " />
<glyph glyph-name="Ohungarumlaut" unicode="&#x150;" horiz-adv-x="570" d="M519 355 Q519 272 503 203.5 Q487 135 457 86 Q427 37 384 10 Q341 -17 286 -17 Q231 -17 187.5 10 Q144 37 113.5 86 Q83 135 67 203.5 Q51 272 51 355 Q51 437 66.5 505.5 Q82 574 112 622.5 Q142 671 185.5 698 Q229 725 286 725 Q341 725 384 698 Q427 671 457 622.5 Q487 574 503 505.5 Q519 437 519 355 Z M446 355 Q446 419 436 475 Q426 531 405.5 572 Q385 613 355 637 Q325 661 286 661 Q245 661 214.5 637 Q184 613 164 572 Q144 531 134 475 Q124 419 124 355 Q124 291 134 235 Q144 179 164 137 Q184 95 214.5 71 Q245 47 286 47 Q326 47 356 71 Q386 95 406 137 Q426 179 436 235 Q446 291 446 355 Z M242 764 L186 764 L276 908 L348 908 L242 764 Z M376 764 L320 764 L410 908 L482 908 L376 764 Z " />
<glyph glyph-name="ohungarumlaut" unicode="&#x151;" horiz-adv-x="440" d="M393 247 Q393 188 381 140 Q369 92 347 57 Q325 22 292.5 3 Q260 -16 220 -16 Q180 -16 148 3 Q116 22 93.5 57 Q71 92 59 140 Q47 188 47 247 Q47 306 58.5 355 Q70 404 92 439 Q114 474 146.5 493 Q179 512 220 512 Q260 512 292.5 493 Q325 474 347 439 Q369 404 381 355 Q393 306 393 247 Z M325 248 Q325 292 318.5 330 Q312 368 299 395.5 Q286 423 266.5 439 Q247 455 220 455 Q193 455 173 439 Q153 423 140.5 395.5 Q128 368 121.5 330 Q115 292 115 248 Q115 204 121.5 167 Q128 130 140.5 102 Q153 74 173 58.5 Q193 43 220 43 Q247 43 267 58.5 Q287 74 299.5 102 Q312 130 318.5 167 Q325 204 325 248 Z M175 569 L119 569 L209 713 L281 713 L175 569 Z M309 569 L253 569 L343 713 L415 713 L309 569 Z " />
<glyph glyph-name="OE" unicode="&#x152;" horiz-adv-x="672" d="M309 0 Q250 0 202.5 22.5 Q155 45 121 90 Q87 135 69 201.5 Q51 268 51 355 Q51 442 69.5 508 Q88 574 121.5 618.5 Q155 663 202.5 685.5 Q250 708 309 708 L621 708 L621 646 L416 646 L416 397 L607 397 L607 338 L416 338 L416 63 L630 63 L630 0 L309 0 Z M349 647 L311 647 Q271 647 236.5 629 Q202 611 176.5 575 Q151 539 136.5 484 Q122 429 122 355 Q122 280 136.5 224.5 Q151 169 176.5 133 Q202 97 236.5 79 Q271 61 311 61 L349 61 L349 647 Z " />
<glyph glyph-name="oe" unicode="&#x153;" horiz-adv-x="696" d="M387 234 Q387 193 394 158.5 Q401 124 414.5 98.5 Q428 73 448.5 58.5 Q469 44 497 44 Q533 44 554.5 66 Q576 88 589 119 L639 90 Q621 45 585.5 14.5 Q550 -16 495 -16 Q443 -16 408.5 13 Q374 42 357 92 Q340 41 305.5 12.5 Q271 -16 220 -16 Q180 -16 148 3 Q116 22 93.5 57 Q71 92 59 140 Q47 188 47 247 Q47 306 58.5 355 Q70 404 92 439 Q114 474 146.5 493 Q179 512 220 512 Q270 512 306 483 Q342 454 359 402 Q375 452 409 482 Q443 512 493 512 Q537 512 567.5 493 Q598 474 617 441.5 Q636 409 644.5 365 Q653 321 653 271 L653 234 L387 234 Z M324 248 Q324 292 317.5 330 Q311 368 298.5 395.5 Q286 423 266.5 439 Q247 455 220 455 Q193 455 173 439 Q153 423 140.5 395.5 Q128 368 121.5 330 Q115 292 115 248 Q115 204 121.5 167 Q128 130 140.5 102 Q153 74 173 58.5 Q193 43 220 43 Q247 43 266.5 58.5 Q286 74 299 102 Q312 130 318 167 Q324 204 324 248 Z M587 289 Q587 364 564 409.5 Q541 455 492 455 Q463 455 443.5 437.5 Q424 420 411.5 394.5 Q399 369 393.5 340 Q388 311 388 289 L587 289 Z " />
<glyph glyph-name="Racute" unicode="&#x154;" horiz-adv-x="476" d="M369 0 L241 328 L150 328 L150 0 L81 0 L81 708 L251 708 Q286 708 318.5 698.5 Q351 689 376.5 667 Q402 645 417.5 609 Q433 573 433 521 Q433 476 421.5 443.5 Q410 411 391.5 389 Q373 367 350.5 355 Q328 343 306 340 L444 0 L369 0 Z M365 518 Q365 556 354.5 581.5 Q344 607 326.5 622 Q309 637 286.5 643 Q264 649 240 649 L150 649 L150 383 L243 383 Q300 383 332.5 418.5 Q365 454 365 518 Z M234 764 L178 764 L268 908 L340 908 L234 764 Z " />
<glyph glyph-name="racute" unicode="&#x155;" horiz-adv-x="274" d="M147 388 Q161 453 190 482 Q219 511 256 511 Q264 511 268 510 L266 442 Q262 443 258.5 443.5 Q255 444 250 444 Q225 444 205.5 427 Q186 410 173 383 Q160 356 153.5 321.5 Q147 287 147 253 L147 0 L81 0 L81 371 Q81 387 80.5 405.5 Q80 424 79.5 441.5 Q79 459 78.5 473.5 Q78 488 77 496 L141 496 Q143 477 144 448.5 Q145 420 145 388 L147 388 Z M146 569 L90 569 L180 713 L252 713 L146 569 Z " />
<glyph glyph-name="Rcommaaccent" unicode="&#x156;" horiz-adv-x="476" d="M369 0 L241 328 L150 328 L150 0 L81 0 L81 708 L251 708 Q286 708 318.5 698.5 Q351 689 376.5 667 Q402 645 417.5 609 Q433 573 433 521 Q433 476 421.5 443.5 Q410 411 391.5 389 Q373 367 350.5 355 Q328 343 306 340 L444 0 L369 0 Z M365 518 Q365 556 354.5 581.5 Q344 607 326.5 622 Q309 637 286.5 643 Q264 649 240 649 L150 649 L150 383 L243 383 Q300 383 332.5 418.5 Q365 454 365 518 Z M229 -219 L179 -219 L220 -45 L278 -45 L229 -219 Z " />
<glyph glyph-name="rcommaaccent" unicode="&#x157;" horiz-adv-x="274" d="M147 388 Q161 453 190 482 Q219 511 256 511 Q264 511 268 510 L266 442 Q262 443 258.5 443.5 Q255 444 250 444 Q225 444 205.5 427 Q186 410 173 383 Q160 356 153.5 321.5 Q147 287 147 253 L147 0 L81 0 L81 371 Q81 387 80.5 405.5 Q80 424 79.5 441.5 Q79 459 78.5 473.5 Q78 488 77 496 L141 496 Q143 477 144 448.5 Q145 420 145 388 L147 388 Z M99 -219 L49 -219 L90 -45 L148 -45 L99 -219 Z " />
<glyph glyph-name="Rcaron" unicode="&#x158;" horiz-adv-x="476" d="M369 0 L241 328 L150 328 L150 0 L81 0 L81 708 L251 708 Q286 708 318.5 698.5 Q351 689 376.5 667 Q402 645 417.5 609 Q433 573 433 521 Q433 476 421.5 443.5 Q410 411 391.5 389 Q373 367 350.5 355 Q328 343 306 340 L444 0 L369 0 Z M365 518 Q365 556 354.5 581.5 Q344 607 326.5 622 Q309 637 286.5 643 Q264 649 240 649 L150 649 L150 383 L243 383 Q300 383 332.5 418.5 Q365 454 365 518 Z M266 763 L196 763 L93 907 L158 907 L230 802 L302 907 L368 907 L266 763 Z " />
<glyph glyph-name="rcaron" unicode="&#x159;" horiz-adv-x="274" d="M147 388 Q161 453 190 482 Q219 511 256 511 Q264 511 268 510 L266 442 Q262 443 258.5 443.5 Q255 444 250 444 Q225 444 205.5 427 Q186 410 173 383 Q160 356 153.5 321.5 Q147 287 147 253 L147 0 L81 0 L81 371 Q81 387 80.5 405.5 Q80 424 79.5 441.5 Q79 459 78.5 473.5 Q78 488 77 496 L141 496 Q143 477 144 448.5 Q145 420 145 388 L147 388 Z M207 568 L137 568 L34 712 L99 712 L171 607 L243 712 L309 712 L207 568 Z " />
<glyph glyph-name="Sacute" unicode="&#x15a;" horiz-adv-x="434" d="M388 181 Q388 134 374 97.5 Q360 61 335.5 35.5 Q311 10 278 -3.5 Q245 -17 208 -17 Q154 -17 108.5 6 Q63 29 35 67 L78 116 Q101 83 136 65 Q171 47 207 47 Q255 47 287.5 81 Q320 115 320 178 Q320 208 310 231 Q300 254 283 272 Q266 290 244.5 304 Q223 318 199 330 Q170 344 144 361.5 Q118 379 98.5 402 Q79 425 67 456.5 Q55 488 55 530 Q55 579 70 615.5 Q85 652 110.5 676.5 Q136 701 168 713 Q200 725 235 725 Q283 725 321.5 708.5 Q360 692 386 657 L343 608 Q323 637 296 649.5 Q269 662 237 662 Q216 662 195.5 654.5 Q175 647 159 631 Q143 615 133 590 Q123 565 123 531 Q123 501 132 479 Q141 457 156.5 440 Q172 423 192.5 410 Q213 397 235 386 Q263 372 290.5 354 Q318 336 340 312 Q362 288 375 256 Q388 224 388 181 Z M225 764 L169 764 L259 908 L331 908 L225 764 Z " />
<glyph glyph-name="sacute" unicode="&#x15b;" horiz-adv-x="340" d="M266 410 Q253 432 232.5 445.5 Q212 459 183 459 Q151 459 130.5 435.5 Q110 412 110 374 Q110 334 130 316 Q150 298 190 283 Q210 275 230 263.5 Q250 252 265.5 235 Q281 218 291 194.5 Q301 171 301 138 Q301 65 261.5 24.5 Q222 -16 159 -16 Q117 -16 82 3.5 Q47 23 24 56 L64 99 Q81 73 104.5 56.5 Q128 40 160 40 Q195 40 216.5 65.5 Q238 91 238 133 Q238 157 230 173.5 Q222 190 209 201 Q196 212 179.5 220 Q163 228 145 235 Q126 242 108.5 252 Q91 262 77 278 Q63 294 54.5 316.5 Q46 339 46 371 Q46 402 56.5 428 Q67 454 86 472.5 Q105 491 129.5 501.5 Q154 512 183 512 Q225 512 255.5 495.5 Q286 479 305 453 L266 410 Z M180 569 L124 569 L214 713 L286 713 L180 569 Z " />
<glyph glyph-name="Scircumflex" unicode="&#x15c;" horiz-adv-x="434" d="M388 181 Q388 134 374 97.5 Q360 61 335.5 35.5 Q311 10 278 -3.5 Q245 -17 208 -17 Q154 -17 108.5 6 Q63 29 35 67 L78 116 Q101 83 136 65 Q171 47 207 47 Q255 47 287.5 81 Q320 115 320 178 Q320 208 310 231 Q300 254 283 272 Q266 290 244.5 304 Q223 318 199 330 Q170 344 144 361.5 Q118 379 98.5 402 Q79 425 67 456.5 Q55 488 55 530 Q55 579 70 615.5 Q85 652 110.5 676.5 Q136 701 168 713 Q200 725 235 725 Q283 725 321.5 708.5 Q360 692 386 657 L343 608 Q323 637 296 649.5 Q269 662 237 662 Q216 662 195.5 654.5 Q175 647 159 631 Q143 615 133 590 Q123 565 123 531 Q123 501 132 479 Q141 457 156.5 440 Q172 423 192.5 410 Q213 397 235 386 Q263 372 290.5 354 Q318 336 340 312 Q362 288 375 256 Q388 224 388 181 Z M309 764 L237 869 L165 764 L100 764 L203 908 L273 908 L375 764 L309 764 Z " />
<glyph glyph-name="scircumflex" unicode="&#x15d;" horiz-adv-x="340" d="M266 410 Q253 432 232.5 445.5 Q212 459 183 459 Q151 459 130.5 435.5 Q110 412 110 374 Q110 334 130 316 Q150 298 190 283 Q210 275 230 263.5 Q250 252 265.5 235 Q281 218 291 194.5 Q301 171 301 138 Q301 65 261.5 24.5 Q222 -16 159 -16 Q117 -16 82 3.5 Q47 23 24 56 L64 99 Q81 73 104.5 56.5 Q128 40 160 40 Q195 40 216.5 65.5 Q238 91 238 133 Q238 157 230 173.5 Q222 190 209 201 Q196 212 179.5 220 Q163 228 145 235 Q126 242 108.5 252 Q91 262 77 278 Q63 294 54.5 316.5 Q46 339 46 371 Q46 402 56.5 428 Q67 454 86 472.5 Q105 491 129.5 501.5 Q154 512 183 512 Q225 512 255.5 495.5 Q286 479 305 453 L266 410 Z M258 569 L186 674 L114 569 L49 569 L152 713 L222 713 L324 569 L258 569 Z " />
<glyph glyph-name="Scedilla" unicode="&#x15e;" horiz-adv-x="434" d="M388 181 Q388 139 376.5 104.5 Q365 70 344.5 45.5 Q324 21 296.5 5.5 Q269 -10 237 -15 L203 -75 Q215 -71 235 -71 Q262 -71 286 -88 Q310 -105 310 -141 Q310 -166 300 -183 Q290 -200 274.5 -210 Q259 -220 239.5 -224 Q220 -228 202 -228 Q183 -228 159.5 -224 Q136 -220 116 -210 L131 -174 Q146 -182 163 -185 Q180 -188 197 -188 Q204 -188 214 -186 Q224 -184 233 -178.5 Q242 -173 248.5 -164.5 Q255 -156 255 -144 Q255 -124 242 -114.5 Q229 -105 206 -105 Q185 -105 166 -113 L150 -98 L197 -17 Q146 -15 103.5 7.5 Q61 30 35 67 L78 116 Q101 83 136 65 Q171 47 207 47 Q255 47 287.5 81 Q320 115 320 178 Q320 208 310 231 Q300 254 283 272 Q266 290 244.5 304 Q223 318 199 330 Q170 344 144 361.5 Q118 379 98.5 402 Q79 425 67 456.5 Q55 488 55 530 Q55 579 70 615.5 Q85 652 110.5 676.5 Q136 701 168 713 Q200 725 235 725 Q283 725 321.5 708.5 Q360 692 386 657 L343 608 Q323 637 296 649.5 Q269 662 237 662 Q216 662 195.5 654.5 Q175 647 159 631 Q143 615 133 590 Q123 565 123 531 Q123 501 132 479 Q141 457 156.5 440 Q172 423 192.5 410 Q213 397 235 386 Q263 372 290.5 354 Q318 336 340 312 Q362 288 375 256 Q388 224 388 181 Z " />
<glyph glyph-name="scedilla" unicode="&#x15f;" horiz-adv-x="340" d="M266 410 Q253 432 232.5 445.5 Q212 459 183 459 Q151 459 130.5 435.5 Q110 412 110 374 Q110 334 130 316 Q150 298 190 283 Q210 275 230 263.5 Q250 252 265.5 235 Q281 218 291 194.5 Q301 171 301 138 Q301 76 272 37.5 Q243 -1 195 -12 L159 -75 Q171 -71 191 -71 Q218 -71 242 -88 Q266 -105 266 -141 Q266 -166 256 -183 Q246 -200 230.5 -210 Q215 -220 195.5 -224 Q176 -228 158 -228 Q139 -228 115.5 -224 Q92 -220 72 -210 L87 -174 Q102 -182 119 -185 Q136 -188 153 -188 Q160 -188 170 -186 Q180 -184 189 -178.5 Q198 -173 204.5 -164.5 Q211 -156 211 -144 Q211 -124 198 -114.5 Q185 -105 162 -105 Q141 -105 122 -113 L106 -98 L153 -16 Q113 -14 79.5 5 Q46 24 24 56 L64 99 Q81 73 104.5 56.5 Q128 40 160 40 Q195 40 216.5 65.5 Q238 91 238 133 Q238 157 230 173.5 Q222 190 209 201 Q196 212 179.5 220 Q163 228 145 235 Q126 242 108.5 252 Q91 262 77 278 Q63 294 54.5 316.5 Q46 339 46 371 Q46 402 56.5 428 Q67 454 86 472.5 Q105 491 129.5 501.5 Q154 512 183 512 Q225 512 255.5 495.5 Q286 479 305 453 L266 410 Z " />
<glyph glyph-name="Scaron" unicode="&#x160;" horiz-adv-x="434" d="M388 181 Q388 134 374 97.5 Q360 61 335.5 35.5 Q311 10 278 -3.5 Q245 -17 208 -17 Q154 -17 108.5 6 Q63 29 35 67 L78 116 Q101 83 136 65 Q171 47 207 47 Q255 47 287.5 81 Q320 115 320 178 Q320 208 310 231 Q300 254 283 272 Q266 290 244.5 304 Q223 318 199 330 Q170 344 144 361.5 Q118 379 98.5 402 Q79 425 67 456.5 Q55 488 55 530 Q55 579 70 615.5 Q85 652 110.5 676.5 Q136 701 168 713 Q200 725 235 725 Q283 725 321.5 708.5 Q360 692 386 657 L343 608 Q323 637 296 649.5 Q269 662 237 662 Q216 662 195.5 654.5 Q175 647 159 631 Q143 615 133 590 Q123 565 123 531 Q123 501 132 479 Q141 457 156.5 440 Q172 423 192.5 410 Q213 397 235 386 Q263 372 290.5 354 Q318 336 340 312 Q362 288 375 256 Q388 224 388 181 Z M273 763 L203 763 L100 907 L165 907 L237 802 L309 907 L375 907 L273 763 Z " />
<glyph glyph-name="scaron" unicode="&#x161;" horiz-adv-x="340" d="M266 410 Q253 432 232.5 445.5 Q212 459 183 459 Q151 459 130.5 435.5 Q110 412 110 374 Q110 334 130 316 Q150 298 190 283 Q210 275 230 263.5 Q250 252 265.5 235 Q281 218 291 194.5 Q301 171 301 138 Q301 65 261.5 24.5 Q222 -16 159 -16 Q117 -16 82 3.5 Q47 23 24 56 L64 99 Q81 73 104.5 56.5 Q128 40 160 40 Q195 40 216.5 65.5 Q238 91 238 133 Q238 157 230 173.5 Q222 190 209 201 Q196 212 179.5 220 Q163 228 145 235 Q126 242 108.5 252 Q91 262 77 278 Q63 294 54.5 316.5 Q46 339 46 371 Q46 402 56.5 428 Q67 454 86 472.5 Q105 491 129.5 501.5 Q154 512 183 512 Q225 512 255.5 495.5 Q286 479 305 453 L266 410 Z M219 568 L149 568 L46 712 L111 712 L183 607 L255 712 L321 712 L219 568 Z " />
<glyph glyph-name="Tcommaaccent" unicode="&#x162;" horiz-adv-x="342" d="M205 648 L205 0 L136 0 L136 648 L0 648 L0 708 L342 708 L342 648 L205 648 Z M154 -219 L104 -219 L145 -45 L203 -45 L154 -219 Z " />
<glyph glyph-name="tcommaaccent" unicode="&#x163;" horiz-adv-x="250" d="M238 0 Q227 -5 211 -9 Q195 -13 178 -13 Q126 -13 104.5 23 Q83 59 83 119 L83 442 L18 442 L18 496 L82 496 L82 633 L147 633 L147 496 L235 496 L235 442 L147 442 L147 131 Q147 86 160 65.5 Q173 45 199 45 Q208 45 218 47.5 Q228 50 235 53 L238 0 Z M143 -219 L93 -219 L134 -45 L192 -45 L143 -219 Z " />
<glyph glyph-name="Tcaron" unicode="&#x164;" horiz-adv-x="342" d="M205 648 L205 0 L136 0 L136 648 L0 648 L0 708 L342 708 L342 648 L205 648 Z M207 763 L137 763 L34 907 L99 907 L171 802 L243 907 L309 907 L207 763 Z " />
<glyph glyph-name="tcaron" unicode="&#x165;" horiz-adv-x="250" d="M238 0 Q227 -5 211 -9 Q195 -13 178 -13 Q126 -13 104.5 23 Q83 59 83 119 L83 442 L18 442 L18 496 L82 496 L82 633 L147 633 L147 496 L235 496 L235 442 L147 442 L147 131 Q147 86 160 65.5 Q173 45 199 45 Q208 45 218 47.5 Q228 50 235 53 L238 0 Z M236 557 L186 557 L227 731 L285 731 L236 557 Z " />
<glyph glyph-name="Tbar" unicode="&#x166;" horiz-adv-x="337" d="M203 496 L203 0 L134 0 L134 496 L37 496 L37 539 L134 539 L134 648 L-2 648 L-2 708 L340 708 L340 648 L203 648 L203 539 L295 539 L295 496 L203 496 Z " />
<glyph glyph-name="tbar" unicode="&#x167;" horiz-adv-x="250" d="M147 270 L147 131 Q147 86 160 65.5 Q173 45 199 45 Q208 45 218 47.5 Q228 50 235 53 L238 0 Q227 -5 211 -9 Q195 -13 178 -13 Q126 -13 104.5 23 Q83 59 83 119 L83 270 L31 270 L31 313 L83 313 L83 442 L18 442 L18 496 L82 496 L82 633 L147 633 L147 496 L235 496 L235 442 L147 442 L147 313 L220 313 L220 270 L147 270 Z " />
<glyph glyph-name="Utilde" unicode="&#x168;" horiz-adv-x="550" d="M477 248 Q477 193 466.5 144.5 Q456 96 432.5 60 Q409 24 370 3.5 Q331 -17 274 -17 Q217 -17 178.5 3.5 Q140 24 116.5 60 Q93 96 83 144.5 Q73 193 73 248 L73 708 L143 708 L143 257 Q143 218 148.5 180 Q154 142 168.5 112.5 Q183 83 208.5 65 Q234 47 275 47 Q315 47 341 65 Q367 83 381.5 112.5 Q396 142 401.5 179.5 Q407 217 407 257 L407 708 L477 708 L477 248 Z M401 880 Q398 831 379.5 806.5 Q361 782 332 782 Q316 782 302.5 787 Q289 792 269 806 Q246 821 236.5 825.5 Q227 830 216 830 Q200 830 193 817 Q186 804 182 781 L145 781 Q148 826 166 854 Q184 882 214 882 Q232 882 244.5 876.5 Q257 871 277 858 Q300 843 310 838.5 Q320 834 331 834 Q347 834 353.5 844.5 Q360 855 364 880 L401 880 Z " />
<glyph glyph-name="utilde" unicode="&#x169;" horiz-adv-x="470" d="M139 496 L139 176 Q139 153 141.5 129.5 Q144 106 152.5 86.5 Q161 67 176 54.5 Q191 42 217 42 Q242 42 261.5 55.5 Q281 69 294.5 92.5 Q308 116 315.5 146.5 Q323 177 323 210 L323 496 L389 496 L389 125 Q389 109 389.5 90.5 Q390 72 390.5 54.5 Q391 37 391.5 22 Q392 7 393 0 L329 0 Q327 19 326 46 Q325 73 325 97 L323 97 Q309 47 277 15.5 Q245 -16 197 -16 Q157 -16 132.5 1 Q108 18 95 45.5 Q82 73 77.5 107 Q73 141 73 176 L73 496 L139 496 Z M359 685 Q356 636 337.5 611.5 Q319 587 290 587 Q274 587 260.5 592 Q247 597 227 611 Q204 626 194.5 630.5 Q185 635 174 635 Q158 635 151 622 Q144 609 140 586 L103 586 Q106 631 124 659 Q142 687 172 687 Q190 687 202.5 681.5 Q215 676 235 663 Q258 648 268 643.5 Q278 639 289 639 Q305 639 311.5 649.5 Q318 660 322 685 L359 685 Z " />
<glyph glyph-name="Umacron" unicode="&#x16a;" horiz-adv-x="550" d="M477 248 Q477 193 466.5 144.5 Q456 96 432.5 60 Q409 24 370 3.5 Q331 -17 274 -17 Q217 -17 178.5 3.5 Q140 24 116.5 60 Q93 96 83 144.5 Q73 193 73 248 L73 708 L143 708 L143 257 Q143 218 148.5 180 Q154 142 168.5 112.5 Q183 83 208.5 65 Q234 47 275 47 Q315 47 341 65 Q367 83 381.5 112.5 Q396 142 401.5 179.5 Q407 217 407 257 L407 708 L477 708 L477 248 Z M150 809 L150 861 L399 861 L399 809 L150 809 Z " />
<glyph glyph-name="umacron" unicode="&#x16b;" horiz-adv-x="470" d="M139 496 L139 176 Q139 153 141.5 129.5 Q144 106 152.5 86.5 Q161 67 176 54.5 Q191 42 217 42 Q242 42 261.5 55.5 Q281 69 294.5 92.5 Q308 116 315.5 146.5 Q323 177 323 210 L323 496 L389 496 L389 125 Q389 109 389.5 90.5 Q390 72 390.5 54.5 Q391 37 391.5 22 Q392 7 393 0 L329 0 Q327 19 326 46 Q325 73 325 97 L323 97 Q309 47 277 15.5 Q245 -16 197 -16 Q157 -16 132.5 1 Q108 18 95 45.5 Q82 73 77.5 107 Q73 141 73 176 L73 496 L139 496 Z M107 614 L107 666 L356 666 L356 614 L107 614 Z " />
<glyph glyph-name="Ubreve" unicode="&#x16c;" horiz-adv-x="550" d="M477 248 Q477 193 466.5 144.5 Q456 96 432.5 60 Q409 24 370 3.5 Q331 -17 274 -17 Q217 -17 178.5 3.5 Q140 24 116.5 60 Q93 96 83 144.5 Q73 193 73 248 L73 708 L143 708 L143 257 Q143 218 148.5 180 Q154 142 168.5 112.5 Q183 83 208.5 65 Q234 47 275 47 Q315 47 341 65 Q367 83 381.5 112.5 Q396 142 401.5 179.5 Q407 217 407 257 L407 708 L477 708 L477 248 Z M406 900 Q398 831 361.5 799.5 Q325 768 274 768 Q225 768 188.5 799.5 Q152 831 145 900 L195 900 Q201 859 223.5 840 Q246 821 274 821 Q305 821 326.5 839 Q348 857 356 900 L406 900 Z " />
<glyph glyph-name="ubreve" unicode="&#x16d;" horiz-adv-x="470" d="M139 496 L139 176 Q139 153 141.5 129.5 Q144 106 152.5 86.5 Q161 67 176 54.5 Q191 42 217 42 Q242 42 261.5 55.5 Q281 69 294.5 92.5 Q308 116 315.5 146.5 Q323 177 323 210 L323 496 L389 496 L389 125 Q389 109 389.5 90.5 Q390 72 390.5 54.5 Q391 37 391.5 22 Q392 7 393 0 L329 0 Q327 19 326 46 Q325 73 325 97 L323 97 Q309 47 277 15.5 Q245 -16 197 -16 Q157 -16 132.5 1 Q108 18 95 45.5 Q82 73 77.5 107 Q73 141 73 176 L73 496 L139 496 Z M362 705 Q354 636 317.5 604.5 Q281 573 230 573 Q181 573 144.5 604.5 Q108 636 101 705 L151 705 Q157 664 179.5 645 Q202 626 230 626 Q261 626 282.5 644 Q304 662 312 705 L362 705 Z " />
<glyph glyph-name="Uring" unicode="&#x16e;" horiz-adv-x="550" d="M477 248 Q477 193 466.5 144.5 Q456 96 432.5 60 Q409 24 370 3.5 Q331 -17 274 -17 Q217 -17 178.5 3.5 Q140 24 116.5 60 Q93 96 83 144.5 Q73 193 73 248 L73 708 L143 708 L143 257 Q143 218 148.5 180 Q154 142 168.5 112.5 Q183 83 208.5 65 Q234 47 275 47 Q315 47 341 65 Q367 83 381.5 112.5 Q396 142 401.5 179.5 Q407 217 407 257 L407 708 L477 708 L477 248 Z M367 851 Q367 808 340.5 779 Q314 750 273 750 Q233 750 207 779 Q181 808 181 851 Q181 895 207 924 Q233 953 273 953 Q314 953 340.5 924 Q367 895 367 851 Z M329 851 Q329 878 314.5 898 Q300 918 273 918 Q247 918 232.5 898 Q218 878 218 851 Q218 825 232.5 805 Q247 785 273 785 Q300 785 314.5 805 Q329 825 329 851 Z " />
<glyph glyph-name="uring" unicode="&#x16f;" horiz-adv-x="470" d="M139 496 L139 176 Q139 153 141.5 129.5 Q144 106 152.5 86.5 Q161 67 176 54.5 Q191 42 217 42 Q242 42 261.5 55.5 Q281 69 294.5 92.5 Q308 116 315.5 146.5 Q323 177 323 210 L323 496 L389 496 L389 125 Q389 109 389.5 90.5 Q390 72 390.5 54.5 Q391 37 391.5 22 Q392 7 393 0 L329 0 Q327 19 326 46 Q325 73 325 97 L323 97 Q309 47 277 15.5 Q245 -16 197 -16 Q157 -16 132.5 1 Q108 18 95 45.5 Q82 73 77.5 107 Q73 141 73 176 L73 496 L139 496 Z M324 656 Q324 613 297.5 584 Q271 555 230 555 Q190 555 164 584 Q138 613 138 656 Q138 700 164 729 Q190 758 230 758 Q271 758 297.5 729 Q324 700 324 656 Z M286 656 Q286 683 271.5 703 Q257 723 230 723 Q204 723 189.5 703 Q175 683 175 656 Q175 630 189.5 610 Q204 590 230 590 Q257 590 271.5 610 Q286 630 286 656 Z " />
<glyph glyph-name="Uhungarumlaut" unicode="&#x170;" horiz-adv-x="550" d="M477 248 Q477 193 466.5 144.5 Q456 96 432.5 60 Q409 24 370 3.5 Q331 -17 274 -17 Q217 -17 178.5 3.5 Q140 24 116.5 60 Q93 96 83 144.5 Q73 193 73 248 L73 708 L143 708 L143 257 Q143 218 148.5 180 Q154 142 168.5 112.5 Q183 83 208.5 65 Q234 47 275 47 Q315 47 341 65 Q367 83 381.5 112.5 Q396 142 401.5 179.5 Q407 217 407 257 L407 708 L477 708 L477 248 Z M230 764 L174 764 L264 908 L336 908 L230 764 Z M364 764 L308 764 L398 908 L470 908 L364 764 Z " />
<glyph glyph-name="uhungarumlaut" unicode="&#x171;" horiz-adv-x="470" d="M139 496 L139 176 Q139 153 141.5 129.5 Q144 106 152.5 86.5 Q161 67 176 54.5 Q191 42 217 42 Q242 42 261.5 55.5 Q281 69 294.5 92.5 Q308 116 315.5 146.5 Q323 177 323 210 L323 496 L389 496 L389 125 Q389 109 389.5 90.5 Q390 72 390.5 54.5 Q391 37 391.5 22 Q392 7 393 0 L329 0 Q327 19 326 46 Q325 73 325 97 L323 97 Q309 47 277 15.5 Q245 -16 197 -16 Q157 -16 132.5 1 Q108 18 95 45.5 Q82 73 77.5 107 Q73 141 73 176 L73 496 L139 496 Z M186 569 L130 569 L220 713 L292 713 L186 569 Z M320 569 L264 569 L354 713 L426 713 L320 569 Z " />
<glyph glyph-name="Uogonek" unicode="&#x172;" horiz-adv-x="550" d="M477 248 Q477 199 469 155 Q461 111 442 76.5 Q423 42 393 18.5 Q363 -5 320 -13 Q291 -45 276 -69.5 Q261 -94 261 -121 Q261 -142 274.5 -155.5 Q288 -169 307 -169 Q335 -169 354 -147 L371 -183 Q355 -200 335 -209.5 Q315 -219 292 -219 Q255 -219 230.5 -197.5 Q206 -176 206 -138 Q206 -103 225.5 -72 Q245 -41 269 -17 Q213 -16 175.5 5 Q138 26 115.5 62 Q93 98 83 145.5 Q73 193 73 248 L73 708 L143 708 L143 257 Q143 218 148.5 180 Q154 142 168.5 112.5 Q183 83 208.5 65 Q234 47 275 47 Q315 47 341 65 Q367 83 381.5 112.5 Q396 142 401.5 179.5 Q407 217 407 257 L407 708 L477 708 L477 248 L477 248 Z " />
<glyph glyph-name="uogonek" unicode="&#x173;" horiz-adv-x="468" d="M372 0 Q338 -37 319.5 -64.5 Q301 -92 301 -121 Q301 -142 314.5 -155.5 Q328 -169 347 -169 Q375 -169 394 -147 L411 -183 Q395 -200 375 -209.5 Q355 -219 332 -219 Q295 -219 270.5 -197.5 Q246 -176 246 -138 Q246 -117 253.5 -97.5 Q261 -78 273 -60.5 Q285 -43 299.5 -27.5 Q314 -12 328 0 L327 0 Q327 8 326.5 19.5 Q326 31 325.5 44.5 Q325 58 325 71.5 Q325 85 325 97 L323 97 Q309 48 277 15.5 Q245 -17 197 -17 Q157 -17 132.5 0.5 Q108 18 95 45.5 Q82 73 77.5 107.5 Q73 142 73 176 L73 496 L139 496 L139 176 Q139 153 141.5 129.5 Q144 106 152.5 86.5 Q161 67 176 55 Q191 43 217 43 Q242 43 261.5 56.5 Q281 70 294.5 93 Q308 116 315.5 146.5 Q323 177 323 211 L323 496 L389 496 L389 126 Q389 117 389.5 99 Q390 81 390.5 61.5 Q391 42 391.5 25 Q392 8 393 0 L372 0 Z " />
<glyph glyph-name="Wcircumflex" unicode="&#x174;" horiz-adv-x="728" d="M573 0 L481 0 L365 606 L363 606 L248 0 L156 0 L17 708 L88 708 L204 89 L206 89 L324 708 L408 708 L528 89 L530 89 L645 708 L713 708 L573 0 Z M438 764 L366 869 L294 764 L229 764 L332 908 L402 908 L504 764 L438 764 Z " />
<glyph glyph-name="wcircumflex" unicode="&#x175;" horiz-adv-x="575" d="M448 0 L370 0 L286 403 L285 403 L200 0 L125 0 L24 496 L91 496 L167 76 L168 76 L255 496 L319 496 L407 76 L408 76 L484 496 L551 496 L448 0 Z M359 569 L287 674 L215 569 L150 569 L253 713 L323 713 L425 569 L359 569 Z " />
<glyph glyph-name="Ycircumflex" unicode="&#x176;" horiz-adv-x="422" d="M244 291 L244 0 L176 0 L176 291 L0 708 L76 708 L210 363 L347 708 L422 708 L244 291 Z M282 764 L210 869 L138 764 L73 764 L176 908 L246 908 L348 764 L282 764 Z " />
<glyph glyph-name="ycircumflex" unicode="&#x177;" horiz-adv-x="375" d="M202 -105 Q194 -137 183.5 -162 Q173 -187 158 -204 Q143 -221 123.5 -230.5 Q104 -240 77 -240 Q63 -240 49 -237.5 Q35 -235 26 -232 L35 -173 Q42 -175 52 -177 Q62 -179 72 -179 Q101 -179 115.5 -159 Q130 -139 139 -104 L161 -18 L17 496 L87 496 L194 77 L196 77 L291 496 L358 496 L202 -105 Z M267 569 L195 674 L123 569 L58 569 L161 713 L231 713 L333 569 L267 569 Z " />
<glyph glyph-name="Ydieresis" unicode="&#x178;" horiz-adv-x="422" d="M244 291 L244 0 L176 0 L176 291 L0 708 L76 708 L210 363 L347 708 L422 708 L244 291 Z M182 843 Q182 823 169.5 810.5 Q157 798 140 798 Q121 798 109.5 810.5 Q98 823 98 843 Q98 862 109.5 875 Q121 888 140 888 Q157 888 169.5 875 Q182 862 182 843 Z M325 843 Q325 823 313 810.5 Q301 798 283 798 Q266 798 253.5 810.5 Q241 823 241 843 Q241 862 253.5 875 Q266 888 283 888 Q301 888 313 875 Q325 862 325 843 Z " />
<glyph glyph-name="Zacute" unicode="&#x179;" horiz-adv-x="397" d="M29 0 L29 60 L288 646 L40 646 L40 708 L361 708 L361 647 L104 63 L363 63 L363 0 L29 0 Z M203 764 L147 764 L237 908 L309 908 L203 764 Z " />
<glyph glyph-name="zacute" unicode="&#x17a;" horiz-adv-x="333" d="M26 0 L26 58 L233 439 L42 439 L42 496 L302 496 L302 440 L96 57 L303 57 L303 0 L26 0 Z M174 569 L118 569 L208 713 L280 713 L174 569 Z " />
<glyph glyph-name="Zdotaccent" unicode="&#x17b;" horiz-adv-x="397" d="M29 0 L29 60 L288 646 L40 646 L40 708 L361 708 L361 647 L104 63 L363 63 L363 0 L29 0 Z M246 843 Q246 822 233 808.5 Q220 795 202 795 Q183 795 170.5 808.5 Q158 822 158 843 Q158 863 170.5 877 Q183 891 202 891 Q221 891 233.5 877 Q246 863 246 843 Z " />
<glyph glyph-name="zdotaccent" unicode="&#x17c;" horiz-adv-x="333" d="M26 0 L26 58 L233 439 L42 439 L42 496 L302 496 L302 440 L96 57 L303 57 L303 0 L26 0 Z M219 648 Q219 627 206 613.5 Q193 600 175 600 Q156 600 143.5 613.5 Q131 627 131 648 Q131 668 143.5 682 Q156 696 175 696 Q194 696 206.5 682 Q219 668 219 648 Z " />
<glyph glyph-name="Zcaron" unicode="&#x17d;" horiz-adv-x="397" d="M29 0 L29 60 L288 646 L40 646 L40 708 L361 708 L361 647 L104 63 L363 63 L363 0 L29 0 Z M237 763 L167 763 L64 907 L129 907 L201 802 L273 907 L339 907 L237 763 Z " />
<glyph glyph-name="zcaron" unicode="&#x17e;" horiz-adv-x="333" d="M26 0 L26 58 L233 439 L42 439 L42 496 L302 496 L302 440 L96 57 L303 57 L303 0 L26 0 Z M210 568 L140 568 L37 712 L102 712 L174 607 L246 712 L312 712 L210 568 Z " />
<glyph glyph-name="florin" unicode="&#x192;" horiz-adv-x="470" d="M414 647 Q393 663 365 663 Q345 663 331 655 Q317 647 307.5 633.5 Q298 620 292.5 602 Q287 584 284 564 L260 419 L365 419 L365 368 L252 368 L190 -3 Q185 -34 176 -60 Q167 -86 152 -104.5 Q137 -123 116 -133 Q95 -143 65 -143 Q50 -143 35 -140.5 Q20 -138 9 -132 L24 -76 Q38 -84 55 -84 Q76 -84 88.5 -75.5 Q101 -67 109 -52 Q117 -37 121.5 -16 Q126 5 130 30 L185 368 L89 368 L89 419 L191 419 L214 556 Q219 589 228 619 Q237 649 253.5 672 Q270 695 295 708.5 Q320 722 357 722 Q381 722 401.5 716 Q422 710 435 700 L414 647 Z " />
<glyph glyph-name="Scommaaccent" unicode="&#x218;" horiz-adv-x="434" d="M388 181 Q388 134 374 97.5 Q360 61 335.5 35.5 Q311 10 278 -3.5 Q245 -17 208 -17 Q154 -17 108.5 6 Q63 29 35 67 L78 116 Q101 83 136 65 Q171 47 207 47 Q255 47 287.5 81 Q320 115 320 178 Q320 208 310 231 Q300 254 283 272 Q266 290 244.5 304 Q223 318 199 330 Q170 344 144 361.5 Q118 379 98.5 402 Q79 425 67 456.5 Q55 488 55 530 Q55 579 70 615.5 Q85 652 110.5 676.5 Q136 701 168 713 Q200 725 235 725 Q283 725 321.5 708.5 Q360 692 386 657 L343 608 Q323 637 296 649.5 Q269 662 237 662 Q216 662 195.5 654.5 Q175 647 159 631 Q143 615 133 590 Q123 565 123 531 Q123 501 132 479 Q141 457 156.5 440 Q172 423 192.5 410 Q213 397 235 386 Q263 372 290.5 354 Q318 336 340 312 Q362 288 375 256 Q388 224 388 181 Z M193 -219 L143 -219 L184 -45 L242 -45 L193 -219 Z " />
<glyph glyph-name="scommaaccent" unicode="&#x219;" horiz-adv-x="340" d="M266 410 Q253 432 232.5 445.5 Q212 459 183 459 Q151 459 130.5 435.5 Q110 412 110 374 Q110 334 130 316 Q150 298 190 283 Q210 275 230 263.5 Q250 252 265.5 235 Q281 218 291 194.5 Q301 171 301 138 Q301 65 261.5 24.5 Q222 -16 159 -16 Q117 -16 82 3.5 Q47 23 24 56 L64 99 Q81 73 104.5 56.5 Q128 40 160 40 Q195 40 216.5 65.5 Q238 91 238 133 Q238 157 230 173.5 Q222 190 209 201 Q196 212 179.5 220 Q163 228 145 235 Q126 242 108.5 252 Q91 262 77 278 Q63 294 54.5 316.5 Q46 339 46 371 Q46 402 56.5 428 Q67 454 86 472.5 Q105 491 129.5 501.5 Q154 512 183 512 Q225 512 255.5 495.5 Q286 479 305 453 L266 410 Z M140 -219 L90 -219 L131 -45 L189 -45 L140 -219 Z " />
<glyph glyph-name="uni021A" unicode="&#x21a;" horiz-adv-x="342" d="M205 648 L205 0 L136 0 L136 648 L0 648 L0 708 L342 708 L342 648 L205 648 Z M156 -219 L106 -219 L147 -45 L205 -45 L156 -219 Z " />
<glyph glyph-name="uni021B" unicode="&#x21b;" horiz-adv-x="250" d="M238 0 Q227 -5 211 -9 Q195 -13 178 -13 Q126 -13 104.5 23 Q83 59 83 119 L83 442 L18 442 L18 496 L82 496 L82 633 L147 633 L147 496 L235 496 L235 442 L147 442 L147 131 Q147 86 160 65.5 Q173 45 199 45 Q208 45 218 47.5 Q228 50 235 53 L238 0 Z M145 -219 L95 -219 L136 -45 L194 -45 L145 -219 Z " />
<glyph glyph-name="circumflex" unicode="&#x2c6;" horiz-adv-x="225" d="M184 569 L112 674 L40 569 L-25 569 L78 713 L148 713 L250 569 L184 569 Z " />
<glyph glyph-name="caron" unicode="&#x2c7;" horiz-adv-x="225" d="M148 568 L78 568 L-25 712 L40 712 L112 607 L184 712 L250 712 L148 568 Z " />
<glyph glyph-name="uni02C9" unicode="&#x2c9;" horiz-adv-x="225" d="M-12 809 L-12 861 L237 861 L237 809 L-12 809 Z " />
<glyph glyph-name="breve" unicode="&#x2d8;" horiz-adv-x="225" d="M243 705 Q235 636 198.5 604.5 Q162 573 111 573 Q62 573 25.5 604.5 Q-11 636 -18 705 L32 705 Q38 664 60.5 645 Q83 626 111 626 Q142 626 163.5 644 Q185 662 193 705 L243 705 L243 705 Z " />
<glyph glyph-name="dotaccent" unicode="&#x2d9;" horiz-adv-x="225" d="M156 648 Q156 627 143 613.5 Q130 600 112 600 Q93 600 80.5 613.5 Q68 627 68 648 Q68 668 80.5 682 Q93 696 112 696 Q131 696 143.5 682 Q156 668 156 648 Z " />
<glyph glyph-name="ring" unicode="&#x2da;" horiz-adv-x="225" d="M206 656 Q206 613 179.5 584 Q153 555 112 555 Q72 555 46 584 Q20 613 20 656 Q20 700 46 729 Q72 758 112 758 Q153 758 179.5 729 Q206 700 206 656 Z M168 656 Q168 683 153.5 703 Q139 723 112 723 Q86 723 71.5 703 Q57 683 57 656 Q57 630 71.5 610 Q86 590 112 590 Q139 590 153.5 610 Q168 630 168 656 Z " />
<glyph glyph-name="ogonek" unicode="&#x2db;" horiz-adv-x="225" d="M200 -183 Q184 -200 164 -209.5 Q144 -219 121 -219 Q84 -219 59.5 -197.5 Q35 -176 35 -138 Q35 -117 42.5 -97.5 Q50 -78 62 -60.5 Q74 -43 88.5 -27.5 Q103 -12 117 0 L161 0 Q127 -37 108.5 -64.5 Q90 -92 90 -121 Q90 -142 103.5 -155.5 Q117 -169 136 -169 Q164 -169 183 -147 L200 -183 Z " />
<glyph glyph-name="tilde" unicode="&#x2dc;" horiz-adv-x="225" d="M240 685 Q237 636 218.5 611.5 Q200 587 171 587 Q155 587 141.5 592 Q128 597 108 611 Q85 626 75.5 630.5 Q66 635 55 635 Q39 635 32 622 Q25 609 21 586 L-16 586 Q-13 631 5 659 Q23 687 53 687 Q71 687 83.5 681.5 Q96 676 116 663 Q139 648 149 643.5 Q159 639 170 639 Q186 639 192.5 649.5 Q199 660 203 685 L240 685 L240 685 Z " />
<glyph glyph-name="hungarumlaut" unicode="&#x2dd;" horiz-adv-x="225" d="M45 569 L-11 569 L79 713 L151 713 L45 569 Z M179 569 L123 569 L213 713 L285 713 L179 569 Z " />
<glyph glyph-name="uni0394" unicode="&#x394;" horiz-adv-x="670" d="M15 0 L296 712 L370 712 L657 0 L15 0 Z M332 645 L106 62 L561 62 L332 645 Z " />
<glyph glyph-name="uni03A9" unicode="&#x3a9;" horiz-adv-x="744" d="M434 0 L434 181 Q479 189 513.5 209.5 Q548 230 571.5 261 Q595 292 606.5 331 Q618 370 618 415 Q618 469 598.5 514 Q579 559 545 591.5 Q511 624 465 642 Q419 660 366 660 Q313 660 267 641.5 Q221 623 187 590.5 Q153 558 133.5 513 Q114 468 114 415 Q114 371 125.5 331.5 Q137 292 160.5 261 Q184 230 218.5 209 Q253 188 298 181 L298 0 L47 0 L47 58 L244 58 L244 140 Q197 153 160.5 180 Q124 207 98.5 243.5 Q73 280 60 324 Q47 368 47 416 Q47 483 72.5 539 Q98 595 142 635.5 Q186 676 244 698.5 Q302 721 367 721 Q432 721 489.5 698.5 Q547 676 590.5 635.5 Q634 595 659.5 539 Q685 483 685 417 Q685 369 672 324.5 Q659 280 634 243.5 Q609 207 572.5 180 Q536 153 488 140 L488 58 L685 58 L685 0 L434 0 Z " />
<glyph glyph-name="uni03BC" unicode="&#x3bc;" horiz-adv-x="556" d="M72 468 L138 468 L138 209 Q138 123 165.5 85.5 Q193 48 265 48 Q295 48 321 60 Q347 72 366 95 Q385 118 396 151.5 Q407 185 407 228 L407 468 L473 468 L473 103 Q473 77 474.5 51.5 Q476 26 478 0 L407 0 L407 76 L405 76 Q394 58 377 42 Q360 26 339 14 Q318 2 294.5 -5 Q271 -12 248 -12 Q179 -12 138 17 L138 -228 L72 -228 L72 468 Z " />
<glyph glyph-name="pi" unicode="&#x3c0;" horiz-adv-x="563" d="M530 11 Q513 3 498.5 -1.5 Q484 -6 466 -6 Q437 -6 420.5 3.5 Q404 13 396.5 29.5 Q389 46 387.5 67 Q386 88 386 111 L386 409 L166 409 L166 0 L102 0 L102 409 L32 409 L32 468 L526 468 L526 409 L450 409 L450 104 Q450 82 455.5 66 Q461 50 488 50 Q508 50 530 60 L530 11 L530 11 Z " />
<glyph glyph-name="endash" unicode="&#x2013;" horiz-adv-x="360" d="M24 233 L24 289 L336 289 L336 233 L24 233 Z " />
<glyph glyph-name="emdash" unicode="&#x2014;" horiz-adv-x="460" d="M24 233 L24 289 L436 289 L436 233 L24 233 Z " />
<glyph glyph-name="quoteleft" unicode="&#x2018;" horiz-adv-x="189" d="M103 470 L44 470 L95 708 L145 708 L103 470 Z " />
<glyph glyph-name="quoteright" unicode="&#x2019;" horiz-adv-x="189" d="M94 470 L44 470 L86 708 L145 708 L94 470 Z " />
<glyph glyph-name="quotesinglbase" unicode="&#x201a;" horiz-adv-x="187" d="M94 -130 L44 -130 L85 108 L143 108 L94 -130 Z " />
<glyph glyph-name="quotedblleft" unicode="&#x201c;" horiz-adv-x="317" d="M230 470 L171 470 L222 708 L273 708 L230 470 Z M103 470 L44 470 L95 708 L145 708 L103 470 Z " />
<glyph glyph-name="quotedblright" unicode="&#x201d;" horiz-adv-x="315" d="M221 470 L170 470 L212 708 L271 708 L221 470 Z M95 470 L44 470 L86 708 L145 708 L95 470 Z " />
<glyph glyph-name="quotedblbase" unicode="&#x201e;" horiz-adv-x="313" d="M95 -130 L44 -130 L85 108 L143 108 L95 -130 Z M220 -130 L170 -130 L211 108 L269 108 L220 -130 Z " />
<glyph glyph-name="dagger" unicode="&#x2020;" horiz-adv-x="375" d="M218 447 L218 -127 L159 -127 L159 447 L15 447 L15 503 L159 503 L159 708 L218 708 L218 503 L362 503 L362 447 L218 447 Z " />
<glyph glyph-name="daggerdbl" unicode="&#x2021;" horiz-adv-x="375" d="M218 70 L218 -127 L159 -127 L159 70 L15 70 L15 126 L159 126 L159 455 L15 455 L15 510 L159 510 L159 708 L218 708 L218 510 L362 510 L362 455 L218 455 L218 126 L362 126 L362 70 L218 70 Z " />
<glyph glyph-name="bullet" unicode="&#x2022;" horiz-adv-x="500" d="M73 354 Q73 391 87 423 Q101 455 125 479 Q149 503 181 517 Q213 531 250 531 Q287 531 319 517 Q351 503 375 479 Q399 455 413 423 Q427 391 427 354 Q427 317 413 285 Q399 253 375 229 Q351 205 319 191 Q287 177 250 177 Q213 177 181 191 Q149 205 125 229 Q101 253 87 285 Q73 317 73 354 Z " />
<glyph glyph-name="ellipsis" unicode="&#x2026;" horiz-adv-x="900" d="M197 43 Q197 21 183.5 7 Q170 -7 150 -7 Q130 -7 117 7 Q104 21 104 43 Q104 63 117 78 Q130 93 150 93 Q170 93 183.5 78 Q197 63 197 43 Z M797 43 Q797 21 783.5 7 Q770 -7 750 -7 Q730 -7 717 7 Q704 21 704 43 Q704 63 717 78 Q730 93 750 93 Q770 93 783.5 78 Q797 63 797 43 Z M497 43 Q497 21 483.5 7 Q470 -7 450 -7 Q430 -7 417 7 Q404 21 404 43 Q404 63 417 78 Q430 93 450 93 Q470 93 483.5 78 Q497 63 497 43 Z " />
<glyph glyph-name="perthousand" unicode="&#x2030;" horiz-adv-x="880" d="M278 548 Q278 510 270 478 Q262 446 247 423 Q232 400 210 387 Q188 374 160 374 Q133 374 111 387 Q89 400 73.5 423 Q58 446 50 478 Q42 510 42 548 Q42 586 50 618 Q58 650 73 673.5 Q88 697 110 710 Q132 723 160 723 Q188 723 210 710 Q232 697 247 673.5 Q262 650 270 618 Q278 586 278 548 Z M224 548 Q224 602 208 638 Q192 674 160 674 Q128 674 112 638 Q96 602 96 548 Q96 495 112 459 Q128 423 160 423 Q192 423 208 459 Q224 495 224 548 Z M568 162 Q568 124 560 92 Q552 60 537 37 Q522 14 500 1 Q478 -12 450 -12 Q423 -12 401 1 Q379 14 363.5 37 Q348 60 340 92 Q332 124 332 162 Q332 200 340 232 Q348 264 363 287.5 Q378 311 400 324 Q422 337 450 337 Q478 337 500 324 Q522 311 537 287.5 Q552 264 560 232 Q568 200 568 162 Z M514 162 Q514 216 498 252 Q482 288 450 288 Q418 288 402 252 Q386 216 386 162 Q386 109 402 73 Q418 37 450 37 Q482 37 498 73 Q514 109 514 162 Z M846 162 Q846 124 838 92 Q830 60 815 37 Q800 14 778 1 Q756 -12 728 -12 Q701 -12 679 1 Q657 14 641.5 37 Q626 60 618 92 Q610 124 610 162 Q610 200 618 232 Q626 264 641 287.5 Q656 311 678 324 Q700 337 728 337 Q756 337 778 324 Q800 311 815 287.5 Q830 264 838 232 Q846 200 846 162 Z M792 162 Q792 216 776 252 Q760 288 728 288 Q696 288 680 252 Q664 216 664 162 Q664 109 680 73 Q696 37 728 37 Q760 37 776 73 Q792 109 792 162 Z M191 -23 L142 -8 L420 737 L468 722 L191 -23 Z " />
<glyph glyph-name="guilsinglleft" unicode="&#x2039;" horiz-adv-x="214" d="M135 462 L180 437 L92 249 L180 61 L135 36 L34 249 L135 462 Z " />
<glyph glyph-name="guilsinglright" unicode="&#x203a;" horiz-adv-x="214" d="M79 36 L34 61 L122 249 L34 437 L79 462 L180 249 L79 36 Z " />
<glyph glyph-name="fraction" unicode="&#x2044;" horiz-adv-x="100" d="M-60 -23 L-105 -8 L173 737 L217 722 L-60 -23 Z " />
<glyph glyph-name="Euro" unicode="&#x20ac;" horiz-adv-x="470" d="M425 649 Q412 656 390.5 661.5 Q369 667 339 667 Q270 667 223.5 614.5 Q177 562 160 461 L383 461 L370 413 L152 413 Q150 400 149 382.5 Q148 365 148 350 Q148 339 148.5 323.5 Q149 308 150 297 L350 297 L339 249 L156 249 Q168 152 215 97.5 Q262 43 331 43 Q363 43 386.5 51 Q410 59 429 70 L441 13 Q424 2 395 -7 Q366 -16 324 -16 Q273 -16 233 3.5 Q193 23 163.5 58.5 Q134 94 115 142.5 Q96 191 88 249 L25 249 L37 297 L85 297 Q83 308 82.5 323.5 Q82 339 82 350 Q82 364 83 381.5 Q84 399 86 413 L27 413 L38 461 L90 461 Q114 594 178 659 Q242 724 337 724 Q369 724 396.5 718 Q424 712 441 704 L425 649 L425 649 Z " />
<glyph glyph-name="afii61289" unicode="&#x2113;" horiz-adv-x="500" d="M415 41 Q356 -14 285 -14 Q230 -14 194 17.5 Q158 49 158 114 L158 228 L100 166 L98 166 L72 203 L158 287 L158 546 Q158 588 168 620.5 Q178 653 195.5 675.5 Q213 698 236.5 709.5 Q260 721 287 721 Q335 721 366 687 Q397 653 397 593 Q397 519 353.5 440 Q310 361 226 275 L226 125 Q226 99 233 82 Q240 65 251 55.5 Q262 46 275 42 Q288 38 301 38 Q321 38 343.5 47 Q366 56 389 76 L391 76 L415 41 Z M340 588 Q340 626 325 649.5 Q310 673 287 673 Q264 673 245 645 Q226 617 226 557 L226 335 Q282 400 311 465.5 Q340 531 340 588 Z " />
<glyph glyph-name="trademark" unicode="&#x2122;" horiz-adv-x="760" d="M624 296 L624 639 L622 639 L522 296 L481 296 L382 639 L380 639 L380 296 L327 296 L327 708 L414 708 L503 393 L591 708 L677 708 L677 296 L624 296 Z M188 658 L188 296 L128 296 L128 658 L44 658 L44 708 L273 708 L273 658 L188 658 Z " />
<glyph glyph-name="Omega" unicode="&#x2126;" horiz-adv-x="744" d="M434 0 L434 181 Q479 189 513.5 209.5 Q548 230 571.5 261 Q595 292 606.5 331 Q618 370 618 415 Q618 469 598.5 514 Q579 559 545 591.5 Q511 624 465 642 Q419 660 366 660 Q313 660 267 641.5 Q221 623 187 590.5 Q153 558 133.5 513 Q114 468 114 415 Q114 371 125.5 331.5 Q137 292 160.5 261 Q184 230 218.5 209 Q253 188 298 181 L298 0 L47 0 L47 58 L244 58 L244 140 Q197 153 160.5 180 Q124 207 98.5 243.5 Q73 280 60 324 Q47 368 47 416 Q47 483 72.5 539 Q98 595 142 635.5 Q186 676 244 698.5 Q302 721 367 721 Q432 721 489.5 698.5 Q547 676 590.5 635.5 Q634 595 659.5 539 Q685 483 685 417 Q685 369 672 324.5 Q659 280 634 243.5 Q609 207 572.5 180 Q536 153 488 140 L488 58 L685 58 L685 0 L434 0 Z " />
<glyph glyph-name="estimated" unicode="&#x212e;" horiz-adv-x="800" d="M595 402 L595 595 Q513 674 401 674 Q289 674 210 595 L210 402 L595 402 Z M210 355 L210 115 Q286 37 402 37 Q485 37 546 74.5 Q607 112 658 196 L704 168 Q674 120 642.5 86 Q611 52 575 30.5 Q539 9 496.5 -1.5 Q454 -12 402 -12 Q324 -12 261 16.5 Q198 45 153 95 Q108 145 84 211.5 Q60 278 60 355 Q60 432 84 498.5 Q108 565 153 614.5 Q198 664 261 692 Q324 720 402 720 Q478 720 541.5 693 Q605 666 650 617.5 Q695 569 720 502 Q745 435 745 355 L210 355 Z " />
<glyph glyph-name="partialdiff" unicode="&#x2202;" horiz-adv-x="496" d="M455 363 Q455 308 447 242.5 Q439 177 415 120.5 Q391 64 346.5 26 Q302 -12 230 -12 Q183 -12 146 6.5 Q109 25 83.5 56 Q58 87 44.5 127.5 Q31 168 31 212 Q31 255 44 294 Q57 333 82 362 Q107 391 143 408 Q179 425 225 425 Q274 425 317 402 Q360 379 391 341 Q391 354 391.5 367 Q392 380 392 393 Q392 435 383.5 482.5 Q375 530 354.5 571 Q334 612 299.5 639 Q265 666 213 666 Q178 666 152.5 653 Q127 640 101 620 L65 663 Q97 691 132 706 Q167 721 210 721 Q258 721 295 705.5 Q332 690 359 663 Q386 636 404.5 600.5 Q423 565 434 525 Q445 485 450 443.5 Q455 402 455 363 Z M386 278 Q359 314 319 341.5 Q279 369 231 369 Q197 369 171.5 356 Q146 343 128.5 321 Q111 299 102.5 270 Q94 241 94 210 Q94 180 102.5 150 Q111 120 128.5 95.5 Q146 71 171.5 56 Q197 41 231 41 Q274 41 303 65 Q332 89 350 125 Q368 161 376 202.5 Q384 244 386 278 Z " />
<glyph glyph-name="increment" unicode="&#x2206;" horiz-adv-x="670" d="M15 0 L296 712 L370 712 L657 0 L15 0 Z M332 645 L106 62 L561 62 L332 645 Z " />
<glyph glyph-name="product" unicode="&#x220f;" horiz-adv-x="711" d="M575 -214 L575 724 L137 724 L137 -214 L71 -214 L71 786 L641 786 L641 -214 L575 -214 Z " />
<glyph glyph-name="summation" unicode="&#x2211;" horiz-adv-x="604" d="M25 -214 L25 -159 L354 289 L39 730 L39 786 L566 786 L566 724 L124 724 L433 289 L105 -153 L578 -153 L578 -214 L25 -214 Z " />
<glyph glyph-name="minus" unicode="&#x2212;" horiz-adv-x="666" d="M588 273 L78 273 L78 333 L588 333 L588 273 Z " />
<glyph glyph-name="uni2215" unicode="&#x2215;" horiz-adv-x="100" d="M-60 -23 L-105 -8 L173 737 L217 722 L-60 -23 Z " />
<glyph glyph-name="uni2219" unicode="&#x2219;" horiz-adv-x="217" d="M155 260 Q155 238 141.5 224 Q128 210 108 210 Q88 210 75 224 Q62 238 62 260 Q62 280 75 295 Q88 310 108 310 Q128 310 141.5 295 Q155 280 155 260 Z " />
<glyph glyph-name="radical" unicode="&#x221a;" horiz-adv-x="493" d="M292 -214 L226 -214 L62 126 L16 104 L-8 154 L92 202 L250 -130 L439 786 L502 786 L292 -214 Z " />
<glyph glyph-name="infinity" unicode="&#x221e;" horiz-adv-x="741" d="M700 252 Q700 221 690 194 Q680 167 662 147 Q644 127 618 115.5 Q592 104 560 104 Q531 104 505 113.5 Q479 123 456 138.5 Q433 154 411.5 173 Q390 192 371 211 Q349 193 328 174 Q307 155 284.5 139.5 Q262 124 236.5 114 Q211 104 181 104 Q149 104 123.5 115 Q98 126 79.5 145.5 Q61 165 51 191.5 Q41 218 41 249 Q41 279 50.5 306 Q60 333 78 353.5 Q96 374 121.5 385.5 Q147 397 179 397 Q208 397 234.5 386.5 Q261 376 284.5 359.5 Q308 343 329.5 323.5 Q351 304 371 285 Q391 304 411.5 324 Q432 344 454.5 360.5 Q477 377 502.5 387.5 Q528 398 558 398 Q590 398 616 387 Q642 376 661 356.5 Q680 337 690 310 Q700 283 700 252 Z M643 249 Q643 287 622 314 Q601 341 560 341 Q539 341 518.5 331.5 Q498 322 478.5 308 Q459 294 441.5 277.5 Q424 261 409 248 Q425 234 442.5 219 Q460 204 479.5 191 Q499 178 519.5 170 Q540 162 563 162 Q601 162 622 187 Q643 212 643 249 Z M333 249 Q318 262 300 277.5 Q282 293 261.5 307 Q241 321 220 330.5 Q199 340 178 340 Q159 340 144 332.5 Q129 325 119 312.5 Q109 300 103.5 284 Q98 268 98 250 Q98 212 120 187 Q142 162 182 162 Q202 162 223 170.5 Q244 179 264 192 Q284 205 301.5 220.5 Q319 236 333 249 Z " />
<glyph glyph-name="integral" unicode="&#x222b;" horiz-adv-x="543" d="M406 736 Q406 719 395.5 710.5 Q385 702 369 702 Q355 702 348 708 Q341 714 336.5 721.5 Q332 729 328 735.5 Q324 742 317 742 Q305 742 298 729 Q291 716 287.5 696.5 Q284 677 282.5 654 Q281 631 281.5 609.5 Q282 588 282.5 572 Q283 556 283 551 L283 47 Q283 15 282 -29.5 Q281 -74 270 -115 Q259 -156 234 -184.5 Q209 -213 161 -213 Q140 -213 120.5 -202 Q101 -191 101 -166 Q101 -152 110.5 -143 Q120 -134 134 -134 Q147 -134 154 -140 Q161 -146 165.5 -153 Q170 -160 174 -166 Q178 -172 184 -172 Q197 -172 204 -149.5 Q211 -127 213.5 -98.5 Q216 -70 216 -44.5 Q216 -19 216 -13 L217 8 L217 503 Q217 526 216 556 Q215 586 216.5 617.5 Q218 649 223.5 679 Q229 709 242.5 733 Q256 757 278.5 771.5 Q301 786 336 786 Q347 786 359.5 783.5 Q372 781 382.5 775 Q393 769 399.5 759.5 Q406 750 406 736 Z " />
<glyph glyph-name="approxequal" unicode="&#x2248;" horiz-adv-x="666" d="M596 402 Q593 376 584.5 351 Q576 326 561 307 Q546 288 524.5 276.5 Q503 265 473 265 Q441 265 403.5 276.5 Q366 288 328 302 Q291 316 256.5 327 Q222 338 195 338 Q161 338 141 313.5 Q121 289 116 258 L71 258 Q74 284 82.5 309 Q91 334 106 353.5 Q121 373 143 385 Q165 397 195 397 Q228 397 264.5 386 Q301 375 338 361 Q376 347 410.5 335.5 Q445 324 474 324 Q510 324 528 347 Q546 370 553 402 L596 402 Z M596 232 Q593 206 584.5 181 Q576 156 561 136.5 Q546 117 524 105.5 Q502 94 472 94 Q440 94 402.5 105.5 Q365 117 328 131 Q291 145 256.5 156 Q222 167 195 167 Q161 167 141 142.5 Q121 118 116 87 L71 87 Q75 113 83 138 Q91 163 105.5 183 Q120 203 142 215 Q164 227 194 227 Q227 227 263.5 216 Q300 205 338 191 Q375 177 410 165.5 Q445 154 474 154 Q509 154 527 177 Q545 200 552 232 L596 232 Z " />
<glyph glyph-name="notequal" unicode="&#x2260;" horiz-adv-x="666" d="M297 120 L221 -24 L169 3 L231 120 L82 120 L82 180 L263 180 L331 310 L82 310 L82 370 L364 370 L441 517 L493 489 L430 370 L584 370 L584 310 L398 310 L329 180 L584 180 L584 120 L297 120 Z " />
<glyph glyph-name="lessequal" unicode="&#x2264;" horiz-adv-x="666" d="M82 296 L82 361 L584 550 L584 485 L165 328 L584 173 L584 108 L82 296 Z M82 6 L82 65 L584 65 L584 6 L82 6 Z " />
<glyph glyph-name="greaterequal" unicode="&#x2265;" horiz-adv-x="666" d="M82 108 L82 173 L502 328 L82 485 L82 550 L584 361 L584 296 L82 108 Z M82 6 L82 65 L584 65 L584 6 L82 6 Z " />
<glyph glyph-name="lozenge" unicode="&#x25ca;" horiz-adv-x="593" d="M327 -35 L264 -35 L95 356 L264 747 L327 747 L498 356 L327 -35 Z M296 681 L160 356 L296 31 L433 356 L296 681 Z " />
<glyph glyph-name="dotlessj" unicode="&#xf6be;" horiz-adv-x="221" d="M145 -73 Q145 -149 116 -194.5 Q87 -240 18 -240 Q10 -240 -0.5 -238.5 Q-11 -237 -21 -234 L-15 -174 Q0 -179 14 -179 Q34 -179 46.5 -170 Q59 -161 66.5 -146 Q74 -131 76.5 -111 Q79 -91 79 -69 L79 496 L145 496 L145 -73 L145 -73 Z " />
<glyph glyph-name="commaaccent" unicode="&#xf6c3;" horiz-adv-x="225" d="M101 -219 L51 -219 L92 -45 L150 -45 L101 -219 Z " />
<glyph glyph-name="uniF8FF" unicode="&#xf8ff;" horiz-adv-x="512" d="M222 117 L222 184 L278 184 L278 117 L222 117 Z M225 234 L223 251 Q223 307 236 332 Q243 345 254 359.5 Q265 374 282 391 Q298 406 308 417.5 Q318 429 323 438.5 Q328 448 330 456.5 Q332 465 332 474 Q332 510 309.5 534.5 Q287 559 256 559 Q225 559 202.5 537 Q180 515 174 464 L124 472 Q131 544 168 576.5 Q205 609 259 609 Q313 609 348 573.5 Q383 538 383 478 Q383 446 370.5 419.5 Q358 393 320 358 Q283 325 277 306 Q271 286 271 234 L225 234 Z M462 50 L462 667 L50 667 L50 50 L462 50 Z M512 718 L512 0 L0 0 L0 718 L512 718 Z " />
<glyph glyph-name="fi" unicode="&#xfb01;" horiz-adv-x="457" d="M245 711 Q230 716 216 716 Q196 716 182.5 706 Q169 696 161 680 Q153 664 150 643.5 Q147 623 147 601 L147 496 L231 496 L231 442 L147 442 L147 0 L82 0 L82 442 L15 442 L15 496 L82 496 L82 601 Q82 677 112.5 724.5 Q143 772 209 772 Q232 772 250 766 L245 711 Z M313 0 L313 496 L380 496 L380 0 L313 0 Z M391 648 Q391 627 377.5 613.5 Q364 600 347 600 Q328 600 315.5 613.5 Q303 627 303 648 Q303 668 315.5 682 Q328 696 347 696 Q365 696 378 682 Q391 668 391 648 Z " />
<glyph glyph-name="fl" unicode="&#xfb02;" horiz-adv-x="457" d="M245 711 Q230 716 216 716 Q196 716 182.5 706 Q169 696 161 680 Q153 664 150 643.5 Q147 623 147 601 L147 496 L231 496 L231 442 L147 442 L147 0 L82 0 L82 442 L15 442 L15 496 L82 496 L82 601 Q82 677 112.5 724.5 Q143 772 209 772 Q232 772 250 766 L245 711 Z M313 0 L313 756 L380 756 L380 0 L313 0 Z " />
</font>
</svg>
