<?xml version="1.0" encoding="utf-8"?>
<!-- Generator: Adobe Illustrator 18.1.1, SVG Export Plug-In . SVG Version: 6.00 Build 0)  -->
<svg version="1.1" id="Camada_1" xmlns="http://www.w3.org/2000/svg" xmlns:xlink="http://www.w3.org/1999/xlink" x="0px" y="0px"
	 viewBox="0 0 84.5 60.5" enable-background="new 0 0 84.5 60.5" xml:space="preserve">
<g>
	<path fill="#E0E1E3" d="M39.3,39.7l-7.5-6.5L2.1,58.6c1.1,1,2.5,1.6,4.1,1.6h71.9c1.6,0,3.1-0.6,4.1-1.6L52.6,33.2l-7.5,6.5
		C43.5,41.2,41,41.2,39.3,39.7z"/>
	<path fill="#E0E1E3" d="M82.4,1.9c-1.1-1-2.5-1.6-4.1-1.6H6.3c-1.6,0-3.1,0.6-4.1,1.6l37.2,31.9c1.7,1.4,4.1,1.4,5.8,0L82.4,1.9z"
		/>
	<polygon fill="#E0E1E3" points="0.3,5.5 0.3,55.4 29.2,30.7 	"/>
	<polygon fill="#E0E1E3" points="55.3,30.7 84.2,55.4 84.2,5.5 	"/>
</g>
</svg>
