<?xml version="1.0" encoding="utf-8"?>
<!-- Generator: Adobe Illustrator 18.1.1, SVG Export Plug-In . SVG Version: 6.00 Build 0)  -->
<svg version="1.1" id="Camada_1" xmlns="http://www.w3.org/2000/svg" xmlns:xlink="http://www.w3.org/1999/xlink" x="0px" y="0px"
	 viewBox="0 0 30 60.5" enable-background="new 0 0 30 60.5" xml:space="preserve">
<path fill="#E0E1E3" d="M11.6,15c1.1,1.9,3.3,2.9,5.5,2.5c2.8-0.6,4.7-3.3,4.1-6.1l-1.4-6.9c-0.6-2.8-3.3-4.7-6.1-4.1
	C5.1,2.1,2.7,12.2,1.3,16.4c-1.4,4.5-1.4,10,0.1,17.5C2.9,41.4,5,46.6,8,50.2c2.8,3.3,8.9,11.5,17.5,9.8c2.8-0.6,4.7-3.3,4.1-6.1
	L28.3,47c-0.6-2.8-3.3-4.7-6.1-4.1c-2.3,0.5-4,2.4-4.2,4.6c-3.7-1.1-6.7-5.1-8.7-15.2C7.3,22.2,8.5,17.4,11.6,15"/>
</svg>
